<svg xmlns="http://www.w3.org/2000/svg" width="26.173" height="28.232" viewBox="0 0 26.173 28.232">
  <g id="APPETTIZERS_icon_black" data-name="APPETTIZERS icon black" transform="translate(-6393 1988.876)">
    <path id="Trazado_4540" data-name="Trazado 4540" d="M210.373,189.874a.477.477,0,0,0-.074-.022c-.017-.009-.03-.026-.052-.03-7.644-2.713-14.116,2.7-18.522,8.434-2.409,3.134-2.869,6.932-2.387,10.813.347,2.809,1.632,6.416,4.445,7.635,2.856,1.237,7.457.438,10.292-.586,3.386-1.224,5.626-4.527,7.714-7.3C215.89,203.4,217.626,193.689,210.373,189.874Zm2.6,15.106a2.484,2.484,0,0,1-.773-.946.527.527,0,0,0-.721-.187.536.536,0,0,0-.187.721,3.454,3.454,0,0,0,1.176,1.346,25.139,25.139,0,0,1-1.827,2.691c-1.949,2.544-4.072,5.6-7.232,6.646-.473.156-1.024.313-1.615.451a.9.9,0,0,0-.091-.091,6.668,6.668,0,0,1-1.12-1.12.527.527,0,0,0-.742,0,.539.539,0,0,0,0,.742,7.208,7.208,0,0,0,.682.729c-2.2.386-4.7.482-6.312-.269-3.177-1.472-3.954-5.89-3.915-9.029a16.277,16.277,0,0,1,.408-3.664c.243.217.486.434.729.647.5.447,1.25-.291.742-.742l-1.146-1.016a13.32,13.32,0,0,1,2.548-4.237,27.683,27.683,0,0,1,5.43-5.053,5.705,5.705,0,0,0,1.024,1.072.539.539,0,0,0,.742,0,.531.531,0,0,0,0-.742,5.023,5.023,0,0,1-.877-.894,12.563,12.563,0,0,1,5.456-1.832.519.519,0,0,0,.117.169c.438.417.877.829,1.315,1.246.491.464,1.237-.278.742-.742l-.725-.686a11.352,11.352,0,0,1,3.078.625c3.373,1.8,4.506,5.352,4.415,9A12.039,12.039,0,0,1,212.977,204.98Z" transform="translate(6203.833 -2177.977)" fill="#141414"/>
    <path id="Trazado_4541" data-name="Trazado 4541" d="M260.039,347.119l-1.107-.833a.536.536,0,0,0-.721.187.543.543,0,0,0,.187.721l1.107.833a.536.536,0,0,0,.721-.187A.543.543,0,0,0,260.039,347.119Zm-5.552,12.4c-.378-.556-1.289-.03-.907.53a12.2,12.2,0,0,0,1.163,1.463c.46.495,1.2-.247.742-.742A9.923,9.923,0,0,1,254.487,359.521Zm10.314-.382a.525.525,0,0,0-.742.742,4.479,4.479,0,0,1,.642.812c.356.573,1.267.043.907-.53A6.117,6.117,0,0,0,264.8,359.139Zm-6.042-5.118a.539.539,0,0,0-.742,0,.531.531,0,0,0,0,.742c.286.239.569.482.855.721a.539.539,0,0,0,.742,0,.531.531,0,0,0,0-.742C259.327,354.5,259.045,354.26,258.759,354.021Zm7.275-1.91a.543.543,0,0,0-.721-.187.53.53,0,0,0-.187.721,7.822,7.822,0,0,0,.938,1.1c.486.469,1.233-.273.742-.742A6.306,6.306,0,0,1,266.034,352.111Zm-.161-3.538a.531.531,0,0,0,.721-.187.543.543,0,0,0-.187-.721c-.373-.286-.742-.573-1.116-.864a.531.531,0,0,0-.721.187.543.543,0,0,0,.187.721C265.131,348,265.5,348.287,265.873,348.574Zm5.166-3.555a.527.527,0,0,0-.742,0,.539.539,0,0,0,0,.742c.352.451.7.9,1.055,1.35a.527.527,0,0,0,.742,0,.539.539,0,0,0,0-.742C271.742,345.917,271.39,345.47,271.039,345.019Z" transform="translate(6139.512 -2326.979)" fill="#141414"/>
  </g>
</svg>
