<svg xmlns="http://www.w3.org/2000/svg" width="37.035" height="28.994" viewBox="0 0 37.035 28.994">
  <path id="Sandwich_icon_black" data-name="Sandwich icon black" d="M229.091,281.594a2.439,2.439,0,0,0-.081-2.4l-11.635-16.9a.636.636,0,0,0-.725-.244l-20.377,6.879a2.242,2.242,0,0,0-1.8,2.929v.006a2.943,2.943,0,0,0-1.729,1.816,2.074,2.074,0,0,0,.551,1.81,4.01,4.01,0,0,0,1.583.876,4.362,4.362,0,0,0,.046.974,2.563,2.563,0,0,0,.487,4.1l31.455,9.565c2.39.139,2.082-2.825,1.56-3.3a20.792,20.792,0,0,0,.2-2.43C230.594,284.151,229.41,281.976,229.091,281.594Zm-.731,2.616a2.489,2.489,0,0,1-3.074-.209,15.642,15.642,0,0,0-1.514-1.288,15.237,15.237,0,0,1,1.549-.394s2.32.911,3.039.052A1.266,1.266,0,0,1,228.361,284.209Zm-15.411-5.673,10.417,3.19c-1.282.383-2.587.864-2.848.969a1.657,1.657,0,0,1-1.641-.1C218.877,282.585,214.637,279.5,212.949,278.537Zm-16.966-8.144,32.064,9.7c.458.5.046,1.7-1.375,1.311l-30.521-9.339C195.5,271.866,195.218,270.735,195.983,270.393Zm20.614-6.978,10.33,15.005-28.9-8.741ZM193.779,273.9c.087-.389.522-.777,1.218-1.125a2.3,2.3,0,0,0,.713.481l11.27,3.451c.829.365,3.051,1.38,5.423,2.738.626.36,1.224.754,1.821,1.154a3.236,3.236,0,0,1-1.578.22,3.119,3.119,0,0,1-1.81-1.34,3.694,3.694,0,0,0-4.1-1.177,3.889,3.889,0,0,1-3.179-.58,9.784,9.784,0,0,1-1.479-1.4c-1.328-1.566-4.211-.876-4.31-.853-.023.006-2.43.481-3.741-.731A1.062,1.062,0,0,1,193.779,273.9Zm33.358,15.858-31.264-9.513a1.17,1.17,0,0,1-.29-1.757l31.565,9.611C227.85,288.31,227.775,289.656,227.137,289.76Zm.29-2.883-31.211-9.518a4.076,4.076,0,0,1-.075-.76,7.232,7.232,0,0,0,1.874-.1c.65-.162,2.517-.389,3.266.5a10.013,10.013,0,0,0,1.647,1.56,4.864,4.864,0,0,0,4.147.742,2.587,2.587,0,0,1,2.906.795,4.11,4.11,0,0,0,2.483,1.757,4.868,4.868,0,0,0,2.813-.557c.6.423,2.976,2.14,2.976,2.14a2.865,2.865,0,0,0,1.56.487,20.626,20.626,0,0,0,2.587-.789c.528,0,1.549,1.021,2.187,1.647a3.852,3.852,0,0,0,2.947.812,10.7,10.7,0,0,1-.1,1.276Z" transform="translate(-192.7 -262.019)" fill="#231f20"/>
</svg>
