<svg xmlns="http://www.w3.org/2000/svg" width="40.575" height="25.942" viewBox="0 0 40.575 25.942">
  <g id="Breakfast_icon_black" data-name="Breakfast icon black" transform="translate(-5876.713 1987)">
    <g id="Grupo_1361" data-name="Grupo 1361" transform="translate(5876.713 -1987)">
      <path id="Trazado_4274" data-name="Trazado 4274" d="M28.125,42.545a28.875,28.875,0,0,1-12.544-2.923,18.046,18.046,0,0,1-4.393-3.031,11.6,11.6,0,0,1-2.907-4.055A8.4,8.4,0,0,1,9.3,24.047a13.578,13.578,0,0,1,3.939-3.576,22.4,22.4,0,0,1,7.408-2.833A30.473,30.473,0,0,1,37.11,18.828,20.561,20.561,0,0,1,43.3,22.239a13.938,13.938,0,0,1,2.956,3.27,8.581,8.581,0,0,1-.4,10.157,14.694,14.694,0,0,1-4.938,4.063,24.043,24.043,0,0,1-7.391,2.411,33.583,33.583,0,0,1-5.4.4ZM26.242,17.7a30.142,30.142,0,0,0-5.715.644,20.937,20.937,0,0,0-7.7,3.237A12.4,12.4,0,0,0,9.874,24.46a8.062,8.062,0,0,0-.2,9.414,12.3,12.3,0,0,0,2.1,2.436,19.263,19.263,0,0,0,5.946,3.609,29.4,29.4,0,0,0,17.59,1.255,19.96,19.96,0,0,0,7.358-3.212,11.166,11.166,0,0,0,3.452-3.815,7.658,7.658,0,0,0,.727-5.508A9.728,9.728,0,0,0,44.377,24.2,17.87,17.87,0,0,0,38.4,20.067,29.071,29.071,0,0,0,26.242,17.7Z" transform="translate(-7.365 -16.81)" fill="#231f20"/>
      <path id="Trazado_4275" data-name="Trazado 4275" d="M28.081,42.708h0A28.872,28.872,0,0,1,15.446,39.76,18.272,18.272,0,0,1,11,36.7a11.706,11.706,0,0,1-2.956-4.129A8.587,8.587,0,0,1,9.087,23.88a13.8,13.8,0,0,1,4-3.634,22.389,22.389,0,0,1,7.482-2.857A30.839,30.839,0,0,1,37.14,18.578a20.916,20.916,0,0,1,6.251,3.444,13.9,13.9,0,0,1,3,3.32,8.779,8.779,0,0,1-.413,10.4,14.732,14.732,0,0,1-5,4.121A24.288,24.288,0,0,1,33.515,42.3a33.6,33.6,0,0,1-5.434.4h0ZM26.727,17.19a30.426,30.426,0,0,0-6.078.619,21.73,21.73,0,0,0-7.341,2.8,13.318,13.318,0,0,0-3.881,3.518,8.2,8.2,0,0,0-.991,8.291,11.357,11.357,0,0,0,2.857,3.98,17.674,17.674,0,0,0,4.344,2.989,28.392,28.392,0,0,0,12.453,2.9,32.819,32.819,0,0,0,5.368-.4A24,24,0,0,0,40.79,39.5,14.486,14.486,0,0,0,45.663,35.5a8.37,8.37,0,0,0,.4-9.918,13.734,13.734,0,0,0-2.907-3.221,20.665,20.665,0,0,0-6.128-3.378A30.668,30.668,0,0,0,26.743,17.19Zm1.66,24.931a29.405,29.405,0,0,1-10.793-2.056,19.154,19.154,0,0,1-6.012-3.642,12.317,12.317,0,0,1-2.131-2.477A8.325,8.325,0,0,1,9.657,24.3a12.4,12.4,0,0,1,3.006-2.932,21.024,21.024,0,0,1,7.771-3.27,30.227,30.227,0,0,1,5.756-.644h0a29.269,29.269,0,0,1,12.239,2.387,18.053,18.053,0,0,1,6.045,4.187,9.932,9.932,0,0,1,2.519,4.534,7.888,7.888,0,0,1-.743,5.649,11.408,11.408,0,0,1-3.51,3.881,20,20,0,0,1-7.432,3.254,31.228,31.228,0,0,1-6.92.793Zm-2.18-24.271a29.912,29.912,0,0,0-5.673.636,20.636,20.636,0,0,0-7.622,3.2A12.176,12.176,0,0,0,10,24.524a7.834,7.834,0,0,0-.2,9.183A11.784,11.784,0,0,0,11.862,36.1a18.92,18.92,0,0,0,5.88,3.568,29.3,29.3,0,0,0,17.474,1.247A19.524,19.524,0,0,0,42.5,37.737,11.026,11.026,0,0,0,45.894,34a7.455,7.455,0,0,0,.71-5.36,9.555,9.555,0,0,0-2.42-4.344,17.674,17.674,0,0,0-5.9-4.1,28.862,28.862,0,0,0-12.065-2.354Z" transform="translate(-7.321 -16.766)" fill="#231f20"/>
    </g>
    <g id="Grupo_1362" data-name="Grupo 1362" transform="translate(5893.317 -1976.443)">
      <path id="Trazado_4276" data-name="Trazado 4276" d="M31.107,29.79a3.76,3.76,0,0,1,2.155.71,2.136,2.136,0,0,1,1.082,1.792,1.838,1.838,0,0,1-.57,1.041,4.164,4.164,0,0,1-5.45.19,1.764,1.764,0,0,1-.57-1.883,2.6,2.6,0,0,1,1.313-1.42A4.029,4.029,0,0,1,31.1,29.79Zm.058,4.1a3.339,3.339,0,0,0,2.122-.867,1.439,1.439,0,0,0,.5-.751c.116-.685-.661-1.338-1.2-1.6a3.771,3.771,0,0,0-1.949-.355,1.722,1.722,0,0,0-.289.033,2.792,2.792,0,0,0-1.66.8,1.463,1.463,0,0,0-.124,1.924,2.924,2.924,0,0,0,1.272.652,4.142,4.142,0,0,0,1.338.173Z" transform="translate(-27.472 -29.592)" fill="#231f20"/>
      <path id="Trazado_4277" data-name="Trazado 4277" d="M30.981,34.612a4.672,4.672,0,0,1-2.833-.966,1.962,1.962,0,0,1-.636-2.1A2.761,2.761,0,0,1,28.924,30a4.281,4.281,0,0,1,2.139-.454h0a3.937,3.937,0,0,1,2.271.751A2.359,2.359,0,0,1,34.5,32.283a1.988,1.988,0,0,1-.636,1.164,4.056,4.056,0,0,1-2.89,1.173Zm.05-4.658a3.837,3.837,0,0,0-1.9.4,2.369,2.369,0,0,0-1.222,1.3,1.552,1.552,0,0,0,.5,1.66,3.961,3.961,0,0,0,5.178-.173,1.666,1.666,0,0,0,.512-.917c.083-.71-.586-1.3-1-1.6a3.607,3.607,0,0,0-2.031-.677H31.03Zm-.074,4.1a4.272,4.272,0,0,1-1.23-.182,3.141,3.141,0,0,1-1.363-.71,1.664,1.664,0,0,1,.116-2.2,3.021,3.021,0,0,1,1.784-.867c.1-.017.206-.025.306-.033a3.926,3.926,0,0,1,2.056.38c.512.264,1.453.974,1.3,1.825a1.573,1.573,0,0,1-.553.867,3.51,3.51,0,0,1-2.246.917h-.173ZM30.9,30.467c-.1,0-.2,0-.3.008s-.182.017-.273.025a2.6,2.6,0,0,0-1.536.735,1.262,1.262,0,0,0-.124,1.643,2.761,2.761,0,0,0,1.181.595,3.943,3.943,0,0,0,1.263.165,3.135,3.135,0,0,0,1.99-.809,1.252,1.252,0,0,0,.429-.636c.1-.562-.611-1.148-1.082-1.387a3.516,3.516,0,0,0-1.553-.347Z" transform="translate(-27.428 -29.55)" fill="#231f20"/>
    </g>
    <g id="Grupo_1363" data-name="Grupo 1363" transform="translate(5882.045 -1976.323)">
      <path id="Trazado_4278" data-name="Trazado 4278" d="M22.171,40.635a4,4,0,0,0-.991-.595,8.671,8.671,0,0,1-.966-.661,9.868,9.868,0,0,1-1.652-1.817,10.93,10.93,0,0,1-1.206-2.139,7.529,7.529,0,0,1-.264-.867.616.616,0,0,0,.116-.595,2.193,2.193,0,0,0-1.354-1.726,2.279,2.279,0,0,0-.223-.066.933.933,0,0,0,0-.215c-.033-.512-.066-1.016-.116-1.528-.041-.446-.306-.586-.718-.4a.484.484,0,0,0-.281.545c.074.553.182,1.107.3,1.66,0,.017.017.033.033.05a.762.762,0,0,0-.239.19,2.518,2.518,0,0,0-.562,2.023,1.44,1.44,0,0,0,.091.355c.066.165.223.355.413.33a6.9,6.9,0,0,0,.76,2.188,8.611,8.611,0,0,0,2.948,3.022,6.615,6.615,0,0,0,2.75,1.14,2.628,2.628,0,0,0,.917-.041.477.477,0,0,0,.239-.842Zm-7.2-9.918a.49.49,0,0,1,.091.008c.033.256.058.5.091.751.033.223.058.446.1.669a.418.418,0,0,0-.107.017c-.066-.537-.116-.991-.173-1.453Zm-.339,2.766a1.433,1.433,0,0,1,.388-.677.647.647,0,0,1,.735-.066,1.711,1.711,0,0,1,.685.619,1.907,1.907,0,0,1,.19.446,2.536,2.536,0,0,1,.149.5c-.149-.041-.289-.116-.438-.165-.206-.058-.256.206-.314.347a1.1,1.1,0,0,0-.215-.173c-.132-.083-.256-.1-.355.033-.041.05-.074.1-.116.157-.017.017-.033.041-.058.041a.063.063,0,0,1-.041-.017c-.091-.058-.182-.149-.3-.116a.242.242,0,0,0-.1.058l-.239.19a1.371,1.371,0,0,1-.025-.182,2.758,2.758,0,0,1,.058-1.007Zm7.143,7.482c-.017.074-.124.1-.19.1a4.1,4.1,0,0,1-1.263-.173,4.8,4.8,0,0,1-1.14-.537c-.256-.14-.5-.306-.751-.462a9.113,9.113,0,0,1-1.676-1.4,6.994,6.994,0,0,1-1.2-1.775c-.058-.132-.116-.264-.165-.4a4.85,4.85,0,0,1-.3-.966c-.025-.157-.05-.314-.083-.471h.05c.033.008.066.05.107.058a.275.275,0,0,0,.116.008c.165-.017.372-.3.388-.306s.347.206.487.149c.1-.05.215-.281.223-.281l.182.1v.008a11.869,11.869,0,0,0,.38,1.2,13.044,13.044,0,0,0,1.883,2.932A6.243,6.243,0,0,0,20.6,40.289a6.906,6.906,0,0,0,.652.33,3.3,3.3,0,0,1,.347.165.511.511,0,0,1,.14.091.109.109,0,0,1,.025.091Z" transform="translate(-13.821 -29.739)" fill="#231f20"/>
      <path id="Trazado_4279" data-name="Trazado 4279" d="M21.344,41.7a2.221,2.221,0,0,1-.4-.025,6.749,6.749,0,0,1-2.841-1.164,8.843,8.843,0,0,1-3.014-3.1,6.722,6.722,0,0,1-.76-2.1.748.748,0,0,1-.429-.438,2.228,2.228,0,0,1-.1-.355,2.731,2.731,0,0,1,.611-2.238.772.772,0,0,1,.149-.132c-.1-.471-.215-1.024-.289-1.6a.692.692,0,0,1,.4-.76.737.737,0,0,1,.694-.017.71.71,0,0,1,.314.595c.041.413.066.834.1,1.247l.017.281v.074a.345.345,0,0,1,.083.033,2.376,2.376,0,0,1,1.478,1.875.862.862,0,0,1-.091.685c.017.05.025.1.041.149.058.206.107.4.182.595a10.931,10.931,0,0,0,1.181,2.1,8.9,8.9,0,0,0,1.61,1.775,7.3,7.3,0,0,0,.941.644c.1.058.206.107.314.165a2.441,2.441,0,0,1,.727.471h0a.708.708,0,0,1,.2.7.7.7,0,0,1-.545.479,2.263,2.263,0,0,1-.595.066Zm-6.664-6.8.033.2a6.44,6.44,0,0,0,.735,2.122,8.512,8.512,0,0,0,2.874,2.948,6.343,6.343,0,0,0,2.667,1.107,2.525,2.525,0,0,0,.842-.033.277.277,0,0,0,.14-.5,1.926,1.926,0,0,0-.6-.38c-.116-.058-.231-.116-.339-.173a7.863,7.863,0,0,1-.991-.685,9.247,9.247,0,0,1-1.685-1.858,11.173,11.173,0,0,1-1.23-2.18,4.961,4.961,0,0,1-.206-.652c-.025-.083-.041-.157-.066-.239v-.041l-.14-.033.017.058.066.239c.091.306.182.619.3.917a12.667,12.667,0,0,0,1.833,2.857,6.074,6.074,0,0,0,1.734,1.519c.206.116.421.223.636.322l.116.05c.083.033.157.074.239.116a.6.6,0,0,1,.206.149.32.32,0,0,1,.066.256h0a.368.368,0,0,1-.38.273,4.227,4.227,0,0,1-1.321-.182,4.369,4.369,0,0,1-1.057-.479l-.132-.074c-.264-.149-.512-.306-.768-.471a9.612,9.612,0,0,1-1.709-1.429,7.07,7.07,0,0,1-1.23-1.833c-.058-.132-.116-.273-.173-.4a5.134,5.134,0,0,1-.306-1.007c-.025-.157-.05-.314-.083-.471l-.025-.14-.223.182.149-.025Zm.562.223.025.157a5.219,5.219,0,0,0,.289.925c.05.132.107.256.165.38A6.723,6.723,0,0,0,16.876,38.3a8.811,8.811,0,0,0,1.635,1.371c.239.157.487.314.743.454l.132.074a4.147,4.147,0,0,0,.958.438,5.257,5.257,0,0,0,.9.165l-.1-.041c-.223-.107-.454-.215-.669-.339a6.4,6.4,0,0,1-1.833-1.594,13.02,13.02,0,0,1-1.916-2.981,8.638,8.638,0,0,1-.314-.958l-.025-.1a.43.43,0,0,1-.165.14.634.634,0,0,1-.52-.083.668.668,0,0,1-.413.256h-.033Zm-.083-2.8h0l-.239.091a.691.691,0,0,0-.19.149,2.312,2.312,0,0,0-.512,1.858,1.307,1.307,0,0,0,.074.3.569.569,0,0,0,.1.157l-.041-.206c-.008-.066-.025-.132-.033-.2a2.949,2.949,0,0,1,.066-1.082,1.656,1.656,0,0,1,.438-.776.854.854,0,0,1,.974-.1,1.913,1.913,0,0,1,.768.7,2.571,2.571,0,0,1,.215.5l.033.1a2.439,2.439,0,0,1,.124.438v.066a.407.407,0,0,0,.041-.355,1.988,1.988,0,0,0-1.222-1.577,1.665,1.665,0,0,0-.19-.058l-.173-.033-.157.017a.169.169,0,0,0-.074.017Zm-.215,2.254-.083.066.14-.017h.041c-.025-.017-.074-.05-.091-.058Zm1.288-.273Zm-1.288-.14a.5.5,0,0,1,.256.083l.041-.058a.434.434,0,0,1,.628-.091c.008,0,.017.008.025.017a.366.366,0,0,1,.454-.206.262.262,0,0,1,.074.025l-.033-.1a2.573,2.573,0,0,0-.173-.413,1.485,1.485,0,0,0-.6-.545.448.448,0,0,0-.5.025,1.309,1.309,0,0,0-.33.578,2.527,2.527,0,0,0-.066.751.432.432,0,0,1,.124-.058.415.415,0,0,1,.1-.017ZM14.7,30.434l.512.05.05.421c.017.165.041.339.058.5l.017.107c.025.165.041.33.074.5v-.083l-.025-.289c-.033-.413-.058-.826-.1-1.239-.017-.14-.05-.239-.107-.273a.4.4,0,0,0-.322.041c-.05.017-.19.083-.157.322.008.083.025.157.033.239l-.033-.289Z" transform="translate(-13.778 -29.695)" fill="#231f20"/>
    </g>
    <g id="Grupo_1364" data-name="Grupo 1364" transform="translate(5881.873 -1985.566)">
      <path id="Trazado_4280" data-name="Trazado 4280" d="M42.455,31.423a13.343,13.343,0,0,1-.421-3.188,2.343,2.343,0,0,0-.7-1.619,4.515,4.515,0,0,0-1.519-1.049,8.1,8.1,0,0,1-.933-.454,1.575,1.575,0,0,1-.768-.875c.165-.173.314-.33.462-.5s.289-.33.413-.5a.862.862,0,0,0-.149-1.263,1.528,1.528,0,0,0-.884-.38c-.273-.033-.562-.074-.685-.372a.73.73,0,0,0-.925-.462.685.685,0,0,1-.727-.462c-.14-.281-.3-.5-.644-.4-.206.066-.429.248-.652.223-.149-.017-.256-.165-.347-.273-.107-.124-.19-.264-.3-.4a.919.919,0,0,0-1.041-.429,2.225,2.225,0,0,0-.562.355,2.1,2.1,0,0,0-.231.239c-.033.041-.173.2-.165.256a.1.1,0,0,0-.008-.05.7.7,0,0,0-.966-.462.762.762,0,0,1-1.032-.3.667.667,0,0,0-1.007-.19,7.388,7.388,0,0,0-.842.595.52.52,0,0,1-.595.124.959.959,0,0,0-.941.058.81.81,0,0,1-.776,0,.849.849,0,0,0-.619-.025,1.378,1.378,0,0,1-1.3-.058,1.116,1.116,0,0,0-1.313.206,2.8,2.8,0,0,0-.281.264.7.7,0,0,1-.785.2,1.323,1.323,0,0,0-1.809.669.62.62,0,0,1-.685.306,2.394,2.394,0,0,0-.595-.025.641.641,0,0,0-.6.958,1.392,1.392,0,0,0,.1.231,1.307,1.307,0,0,0-.314.041,1.5,1.5,0,0,0-.768.487,5.534,5.534,0,0,1-.636.529,1.056,1.056,0,0,0-.421.636.954.954,0,0,1-.4.685,1.147,1.147,0,0,0-.512.809,1.285,1.285,0,0,1-.429.685.664.664,0,0,0,.033,1.123,2.858,2.858,0,0,0,1,.537c.851.248,1.726.438,2.585.644a8.027,8.027,0,0,0-.306,3.295,4.252,4.252,0,0,0,1.718,3.113c.1.074.2.14.3.206a3.641,3.641,0,0,0,.306.512,5.315,5.315,0,0,0,1.338,1.346,6.4,6.4,0,0,0,4.459,1.09,14.407,14.407,0,0,0,1.668-.3,5.378,5.378,0,0,1,2.915.124,13.123,13.123,0,0,1,1.742.768,4.939,4.939,0,0,0,3.072.5,8.768,8.768,0,0,0,3.642-1.519,14.943,14.943,0,0,0,3.2-3.328,3.377,3.377,0,0,0,.661-2.923ZM32.248,20.01c.578-.661.694-.661,1.206.058a1.636,1.636,0,0,0,.578.562.773.773,0,0,0,.776-.091.37.37,0,0,1,.3-.083c.124.041.165.19.215.314a.841.841,0,0,0,1.024.5,1.609,1.609,0,0,1,.19-.05.271.271,0,0,1,.182.041.41.41,0,0,1,.1.2,1.2,1.2,0,0,0,1.131.7,1,1,0,0,1,.438.2c.256.19.281.347.074.595-.256.306-.537.586-.809.884a4.645,4.645,0,0,0-1.627-.619,8.624,8.624,0,0,0-1.842-.107,16.241,16.241,0,0,0-1.775.206,7.866,7.866,0,0,0-1.594-.537c.149-.479.339-.941.512-1.412a4.589,4.589,0,0,1,.908-1.354Zm-13.5,1.784a1.157,1.157,0,0,0,.446-.041,1.23,1.23,0,0,0,.685-.586c.314-.5.529-.578,1.107-.413a1.25,1.25,0,0,0,1.429-.372.814.814,0,0,1,1.115-.231,1.541,1.541,0,0,0,1.42.05.549.549,0,0,1,.413,0,1.2,1.2,0,0,0,1.148-.033.653.653,0,0,1,.462-.05,1.094,1.094,0,0,0,1.288-.3c.107-.1.223-.2.33-.306a.592.592,0,0,1,.4-.182.38.38,0,0,1,.223.091c.256.19.429.462.751.553a1.947,1.947,0,0,0,.818-.025c.165-.025.446-.025.4.215-.05.206-.149.388-.206.595-.173.578-.372,1.14-.562,1.709a1.273,1.273,0,0,1-.083.2,17.569,17.569,0,0,0-2.065-.239h-.083a16.235,16.235,0,0,0-2.2.091,10.049,10.049,0,0,0-5.748,2.362c-.058-.066-.132-.132-.182-.2-.363-.454-.718-.908-1.074-1.363l-.537-.685a2.29,2.29,0,0,1-.421-.595c-.157-.462.5-.273.727-.248Zm-1.577,6.078c-.652-.173-1.3-.322-1.949-.512a1.455,1.455,0,0,1-.6-.314c-.058-.058-.19-.157-.2-.248v-.017c0-.1.116-.173.173-.231a1.758,1.758,0,0,0,.273-.281,1.233,1.233,0,0,0,.248-.71c0-.124.157-.273.273-.347a1.121,1.121,0,0,0,.586-.925.505.505,0,0,1,.339-.5,1.315,1.315,0,0,0,.5-.4,1.166,1.166,0,0,1,1.164-.487c.595.76,1.2,1.519,1.8,2.279a.414.414,0,0,0,.058.066A7.978,7.978,0,0,0,17.9,28.062c-.239-.074-.487-.132-.735-.2Zm.958,4.674a6.419,6.419,0,0,1,.074-3.658,7.4,7.4,0,0,1,3.419-4.36,10.471,10.471,0,0,1,5.285-1.544c.306-.017.611-.017.925-.025h.058a7.631,7.631,0,0,1,.867.05,12.729,12.729,0,0,1,2,.314,7.613,7.613,0,0,1,2.932,1.412c.7.545,1.387,1.123,2.056,1.709a12.264,12.264,0,0,0,2.841,1.916,3.645,3.645,0,0,1,1.61,1.429,2.623,2.623,0,0,1,.339,1.726,4.076,4.076,0,0,1-1.371,2.535,6.41,6.41,0,0,1-3.534,1.817A10.819,10.819,0,0,1,31.67,35.6c-.71-.165-1.42-.33-2.114-.52a7.312,7.312,0,0,0-3.931.206,12.406,12.406,0,0,1-1.429.347,6.619,6.619,0,0,1-4.319-.793,3.692,3.692,0,0,1-1.751-2.279Zm23.4,1.222a12.807,12.807,0,0,1-3.543,3.667,7.736,7.736,0,0,1-3.518,1.239A4.192,4.192,0,0,1,32,38.112a7,7,0,0,0-5.483-.677,6.107,6.107,0,0,1-2.221.157,5.35,5.35,0,0,1-3.89-1.924,7.257,7.257,0,0,0,2.362.545,8.069,8.069,0,0,0,2.907-.4,7.094,7.094,0,0,1,4.146-.14c.595.173,1.2.3,1.8.446a10.484,10.484,0,0,0,3.956.264,7.215,7.215,0,0,0,4.5-2.568,4.2,4.2,0,0,0,1.016-2.866,2.594,2.594,0,0,0-.347-1.3,4.3,4.3,0,0,0-2.065-1.875,7.735,7.735,0,0,1-1.891-1.181l-2.469-2.073a8.535,8.535,0,0,0-1.074-.768,4.423,4.423,0,0,1,.57-.05,18.166,18.166,0,0,1,2.122.066,2.294,2.294,0,0,1,1.668.834,4.8,4.8,0,0,0,2.04,1.5,5.673,5.673,0,0,1,1.222.8A1.831,1.831,0,0,1,41.53,28.4a8.59,8.59,0,0,0,.091,1.3c.1.669.2,1.33.355,1.99a2.494,2.494,0,0,1-.429,2.073Z" transform="translate(-13.617 -18.543)" fill="#231f20"/>
      <path id="Trazado_4281" data-name="Trazado 4281" d="M34.083,39.435a5.125,5.125,0,0,1-2.345-.578,13.859,13.859,0,0,0-1.718-.751,5.21,5.21,0,0,0-2.8-.116l-.248.05a13.735,13.735,0,0,1-1.437.248,6.579,6.579,0,0,1-4.6-1.131,5.627,5.627,0,0,1-1.4-1.4,4.272,4.272,0,0,1-.3-.487c-.091-.058-.173-.116-.264-.182a4.4,4.4,0,0,1-1.8-3.254,8.331,8.331,0,0,1,.248-3.163l-.429-.1c-.644-.149-1.3-.306-1.957-.5a3.145,3.145,0,0,1-1.065-.578.966.966,0,0,1-.4-.685.988.988,0,0,1,.355-.743,1.084,1.084,0,0,0,.372-.578,1.326,1.326,0,0,1,.595-.941.711.711,0,0,0,.306-.553,1.224,1.224,0,0,1,.5-.76l.124-.1a4.689,4.689,0,0,0,.5-.413,1.789,1.789,0,0,1,.875-.545.194.194,0,0,0,.066-.017.834.834,0,0,1,.785-1.214,2.884,2.884,0,0,1,.652.033.431.431,0,0,0,.487-.223,1.517,1.517,0,0,1,2.031-.743.5.5,0,0,0,.578-.132,3.4,3.4,0,0,1,.306-.289,1.347,1.347,0,0,1,1.544-.231,1.166,1.166,0,0,0,1.123.058,1.073,1.073,0,0,1,.785.025.6.6,0,0,0,.6,0,1.157,1.157,0,0,1,1.131-.058c.116.058.2.033.38-.1l.1-.074a6.371,6.371,0,0,1,.768-.537.872.872,0,0,1,1.272.248.577.577,0,0,0,.793.231.919.919,0,0,1,1.1.273,3.044,3.044,0,0,1,.231-.231,2.323,2.323,0,0,1,.619-.388c.306-.116.776-.124,1.28.5a1.938,1.938,0,0,1,.157.206c.041.066.091.124.14.19.083.1.157.19.206.2a.617.617,0,0,0,.314-.1,1.689,1.689,0,0,1,.256-.107c.545-.165.776.281.892.5.206.4.421.363.5.347a.933.933,0,0,1,1.156.586c.066.165.215.206.52.248a1.72,1.72,0,0,1,1,.438,1.06,1.06,0,0,1,.173,1.528,5.7,5.7,0,0,1-.38.479l-.041.05-.33.355-.05.058a1.488,1.488,0,0,0,.636.652,6.921,6.921,0,0,0,.785.388l.124.05a4.764,4.764,0,0,1,1.586,1.1,2.531,2.531,0,0,1,.76,1.759,13.594,13.594,0,0,0,.421,3.138h0a3.6,3.6,0,0,1-.694,3.1A15.152,15.152,0,0,1,38.7,37.841a8.97,8.97,0,0,1-3.733,1.553,4.984,4.984,0,0,1-.851.066Zm-5.607-2a5.169,5.169,0,0,1,1.676.273,13.732,13.732,0,0,1,1.775.776,4.6,4.6,0,0,0,2.94.471,8.574,8.574,0,0,0,3.559-1.486,14.885,14.885,0,0,0,3.163-3.287,3.122,3.122,0,0,0,.619-2.758h0a13.819,13.819,0,0,1-.429-3.237,2.071,2.071,0,0,0-.644-1.47,4.333,4.333,0,0,0-1.445-1l-.124-.05a7.107,7.107,0,0,1-.834-.413,1.732,1.732,0,0,1-.859-.991l-.033-.116.223-.231c.107-.116.215-.223.314-.339l.041-.05a5.505,5.505,0,0,0,.355-.438.665.665,0,0,0-.116-1,1.345,1.345,0,0,0-.768-.33.926.926,0,0,1-.851-.5c-.124-.314-.322-.4-.694-.339a.85.85,0,0,1-.95-.57c-.157-.306-.239-.339-.4-.289a.946.946,0,0,0-.19.083.913.913,0,0,1-.545.14.7.7,0,0,1-.454-.322c-.074-.1-.132-.165-.182-.239s-.091-.124-.14-.19c-.421-.52-.71-.4-.809-.372a2.276,2.276,0,0,0-.5.322,1.282,1.282,0,0,0-.206.215,1.383,1.383,0,0,0-.132.173l-.124-.058-.281.05h0a.5.5,0,0,0-.256-.355.508.508,0,0,0-.438,0,.977.977,0,0,1-1.28-.355c-.231-.3-.4-.33-.743-.14a5.936,5.936,0,0,0-.718.5l-.1.074a.744.744,0,0,1-.818.149.77.77,0,0,0-.751.05,1.056,1.056,0,0,1-.958.017.686.686,0,0,0-.454-.033,1.589,1.589,0,0,1-1.486-.066.91.91,0,0,0-1.09.182c-.091.074-.173.157-.256.239a.9.9,0,0,1-.991.256c-.851-.223-1.074-.14-1.586.586a.848.848,0,0,1-.892.4,2.029,2.029,0,0,0-.545-.025.532.532,0,0,0-.421.19.59.59,0,0,0,0,.487,2.244,2.244,0,0,0,.091.206l.132.281-.306.017a1.049,1.049,0,0,0-.281.041,1.354,1.354,0,0,0-.669.429,5.4,5.4,0,0,1-.537.454l-.124.1a.809.809,0,0,0-.339.512,1.161,1.161,0,0,1-.487.826.922.922,0,0,0-.421.677,1.559,1.559,0,0,1-.487.8.605.605,0,0,0-.231.429.537.537,0,0,0,.248.38,2.839,2.839,0,0,0,.925.5c.636.182,1.3.339,1.932.5l.859.206-.066.215a7.911,7.911,0,0,0-.3,3.212,4.028,4.028,0,0,0,1.635,2.965,3.007,3.007,0,0,0,.289.2l.05.033.025.058a2.955,2.955,0,0,0,.289.479,5.184,5.184,0,0,0,1.288,1.3A6.145,6.145,0,0,0,25.478,37.9a11.33,11.33,0,0,0,1.387-.239l.248-.05a6.518,6.518,0,0,1,1.346-.149Zm5.566,1.429a4.4,4.4,0,0,1-2.188-.611,6.83,6.83,0,0,0-5.326-.661,6.221,6.221,0,0,1-2.3.165,5.574,5.574,0,0,1-4.038-2l-.52-.644.76.33a7.029,7.029,0,0,0,2.3.529,7.808,7.808,0,0,0,2.833-.388,7.277,7.277,0,0,1,4.261-.14c.388.116.776.206,1.173.3l.619.149a10.38,10.38,0,0,0,3.881.256,6.967,6.967,0,0,0,4.369-2.5,4.03,4.03,0,0,0,.966-2.733,2.494,2.494,0,0,0-.322-1.206,4.1,4.1,0,0,0-1.965-1.784A8.282,8.282,0,0,1,36.6,26.709l-2.469-2.073a8.156,8.156,0,0,0-1.049-.751l-.512-.314.7-.083a4.668,4.668,0,0,1,.487-.033h.363a15.951,15.951,0,0,1,1.775.066,2.469,2.469,0,0,1,1.809.917,4.568,4.568,0,0,0,1.957,1.429,5.828,5.828,0,0,1,1.272.834,2.055,2.055,0,0,1,.735,1.66,8.383,8.383,0,0,0,.091,1.272,19.53,19.53,0,0,0,.355,1.965,2.728,2.728,0,0,1-.462,2.238,13.035,13.035,0,0,1-3.609,3.724,7.982,7.982,0,0,1-3.609,1.272c-.132.008-.264.017-.4.017Zm-5.616-1.949a7.387,7.387,0,0,1,3.625.983,3.955,3.955,0,0,0,2.345.537,7.611,7.611,0,0,0,3.427-1.206,12.626,12.626,0,0,0,3.485-3.609,2.3,2.3,0,0,0,.4-1.908c-.165-.694-.273-1.4-.355-2.007a8.157,8.157,0,0,1-.091-1.338,1.656,1.656,0,0,0-.586-1.338,5.286,5.286,0,0,0-1.173-.776,5.023,5.023,0,0,1-2.122-1.569,2.077,2.077,0,0,0-1.528-.751,15.075,15.075,0,0,0-1.726-.066H33.8c.2.14.4.3.586.454.826.685,1.652,1.379,2.469,2.073A7.45,7.45,0,0,0,38.7,27.543a4.563,4.563,0,0,1,2.164,1.965,2.826,2.826,0,0,1,.372,1.412,4.408,4.408,0,0,1-1.074,3,7.409,7.409,0,0,1-4.625,2.634,10.842,10.842,0,0,1-4.03-.273l-.619-.149c-.4-.091-.8-.19-1.189-.306a6.914,6.914,0,0,0-4.03.14,8.609,8.609,0,0,1-2.981.4,7.639,7.639,0,0,1-1.6-.264,5.436,5.436,0,0,0,3.163,1.239,5.96,5.96,0,0,0,2.147-.149,7.472,7.472,0,0,1,2.015-.289Zm5.938-.809a11.794,11.794,0,0,1-2.783-.355l-.446-.107c-.562-.132-1.123-.264-1.676-.413a7.154,7.154,0,0,0-3.815.206l-.223.058a11.619,11.619,0,0,1-1.23.289,6.888,6.888,0,0,1-4.451-.809,3.9,3.9,0,0,1-1.85-2.4,6.622,6.622,0,0,1,.066-3.774,7.624,7.624,0,0,1,3.5-4.484,10.693,10.693,0,0,1,5.384-1.577c.223-.008.438-.017.661-.017h.264l.066.2v-.206a5.708,5.708,0,0,1,.661.033l.223.017a12.053,12.053,0,0,1,2.031.322,7.88,7.88,0,0,1,3.006,1.445c.644.5,1.321,1.065,2.065,1.718a12.115,12.115,0,0,0,2.791,1.883,3.8,3.8,0,0,1,1.7,1.511,2.844,2.844,0,0,1,.363,1.858,4.287,4.287,0,0,1-1.429,2.659A6.466,6.466,0,0,1,35.6,36.024a8.786,8.786,0,0,1-1.247.083Zm-6.3-1.47a5.658,5.658,0,0,1,1.5.2c.553.149,1.107.281,1.66.413l.446.107a10.57,10.57,0,0,0,3.873.264,6.142,6.142,0,0,0,3.419-1.759,3.813,3.813,0,0,0,1.3-2.4,2.452,2.452,0,0,0-.306-1.6,3.361,3.361,0,0,0-1.519-1.346,12.106,12.106,0,0,1-2.89-1.949c-.743-.644-1.412-1.2-2.048-1.7a7.426,7.426,0,0,0-2.849-1.371,11.258,11.258,0,0,0-1.965-.306l-.231-.017a5.248,5.248,0,0,0-.619-.025h-.322c-.215.017-.438.017-.652.025a10.236,10.236,0,0,0-5.178,1.511,7.237,7.237,0,0,0-3.328,4.245,6.193,6.193,0,0,0-.074,3.543h0a3.5,3.5,0,0,0,1.652,2.164,6.437,6.437,0,0,0,4.187.768,11.679,11.679,0,0,0,1.181-.281l.223-.066a9.463,9.463,0,0,1,2.535-.4ZM17.98,28.295l-.182-.058c-.182-.058-.363-.1-.545-.149l-.182-.05c-.223-.058-.438-.116-.661-.165-.438-.107-.867-.223-1.3-.347a1.63,1.63,0,0,1-.685-.355.653.653,0,0,1-.264-.372.483.483,0,0,1,.231-.4,1.268,1.268,0,0,0,.256-.264,1.1,1.1,0,0,0,.206-.595.737.737,0,0,1,.372-.52.917.917,0,0,0,.5-.76.717.717,0,0,1,.462-.677,1.089,1.089,0,0,0,.421-.33,1.439,1.439,0,0,1,.661-.5,1.625,1.625,0,0,1,.694-.066h.091l.058.083c.595.76,1.2,1.519,1.8,2.279l.182.206-.149.14a7.7,7.7,0,0,0-1.883,2.742l-.074.182Zm-.8-.652.182.05c.132.033.256.066.38.1a8.194,8.194,0,0,1,1.775-2.577q-.855-1.065-1.685-2.131a1.25,1.25,0,0,0-.421.041,1.015,1.015,0,0,0-.479.372,1.524,1.524,0,0,1-.586.462.3.3,0,0,0-.215.322,1.31,1.31,0,0,1-.685,1.09.468.468,0,0,0-.182.19,1.482,1.482,0,0,1-.281.826,1.813,1.813,0,0,1-.306.314.744.744,0,0,0-.083.074.77.77,0,0,0,.083.083,1.265,1.265,0,0,0,.553.289c.421.124.851.231,1.28.339.223.058.446.116.661.173h0Zm3.006-2.494-.206-.223c-.041-.041-.083-.091-.124-.14l-.388-.5c-.231-.289-.462-.578-.685-.875l-.537-.685-.124-.149a1.57,1.57,0,0,1-.33-.5.41.41,0,0,1,.05-.429c.173-.206.512-.149.768-.107.05,0,.091.017.124.017a1.058,1.058,0,0,0,.372-.033,1.07,1.07,0,0,0,.57-.5.977.977,0,0,1,1.338-.5,1.046,1.046,0,0,0,1.222-.306,1.006,1.006,0,0,1,1.371-.273,1.3,1.3,0,0,0,1.23.041.743.743,0,0,1,.595.008,1.01,1.01,0,0,0,.966-.041.873.873,0,0,1,.619-.058.9.9,0,0,0,1.074-.256l.33-.3a.773.773,0,0,1,.562-.231.543.543,0,0,1,.33.132,2.1,2.1,0,0,1,.248.215,1.063,1.063,0,0,0,.438.3,1.579,1.579,0,0,0,.619-.017l.116-.017a.623.623,0,0,1,.545.124.362.362,0,0,1,.083.347,2.07,2.07,0,0,1-.132.38,1.905,1.905,0,0,0-.083.231c-.124.4-.256.793-.388,1.189l-.173.529-.05.124-.091.239-.165-.033a16.907,16.907,0,0,0-2.04-.239h-.083a15.479,15.479,0,0,0-2.164.091,9.862,9.862,0,0,0-5.632,2.312l-.157.132ZM18.17,21.919a.041.041,0,0,0,.008.025,1.387,1.387,0,0,0,.248.372,1.431,1.431,0,0,1,.14.173c.173.231.355.454.529.685.231.289.454.578.685.867l.388.5a.186.186,0,0,0,.041.041,10.251,10.251,0,0,1,5.715-2.287,16.379,16.379,0,0,1,2.221-.091h.083a18.066,18.066,0,0,1,1.932.223.05.05,0,0,1,.008-.033l.173-.529c.132-.388.264-.785.38-1.173.025-.091.066-.173.1-.264a1.7,1.7,0,0,0,.1-.289h-.157l-.107.017a1.748,1.748,0,0,1-.8,0,1.452,1.452,0,0,1-.6-.4,2.352,2.352,0,0,0-.215-.19.2.2,0,0,0-.116-.05.431.431,0,0,0-.248.124l-.33.306a1.312,1.312,0,0,1-1.511.33.515.515,0,0,0-.3.05,1.418,1.418,0,0,1-1.33.025.343.343,0,0,0-.223,0,1.717,1.717,0,0,1-1.6-.058.6.6,0,0,0-.859.182,1.456,1.456,0,0,1-1.643.438c-.5-.14-.611-.091-.875.322a1.457,1.457,0,0,1-.8.677,1.375,1.375,0,0,1-.529.05h0a1.257,1.257,0,0,1-.157-.025,1.75,1.75,0,0,0-.363-.033Zm19.489,2.155-.14-.091a4.377,4.377,0,0,0-1.553-.595,8.756,8.756,0,0,0-1.8-.107,15.144,15.144,0,0,0-1.751.206h-.066l-.058-.017a7.822,7.822,0,0,0-1.553-.529l-.215-.05.066-.215c.1-.339.231-.669.347-.983.058-.149.116-.289.165-.438a4.708,4.708,0,0,1,.95-1.42h0c.306-.347.52-.57.793-.553s.471.256.735.628a1.423,1.423,0,0,0,.5.5.584.584,0,0,0,.578-.083.55.55,0,0,1,.487-.1.569.569,0,0,1,.322.388.654.654,0,0,0,.793.421.746.746,0,0,1,.215-.05.454.454,0,0,1,.347.091.5.5,0,0,1,.157.264,1.03,1.03,0,0,0,.966.586,1.1,1.1,0,0,1,.545.239.644.644,0,0,1,.289.421.628.628,0,0,1-.182.471c-.182.215-.372.421-.57.628l-.363.388ZM34.57,22.869a8.563,8.563,0,0,1,1.453.124,4.612,4.612,0,0,1,1.561.562l.14-.149c.19-.2.38-.4.553-.611.1-.116.091-.157.091-.165s-.008-.05-.132-.14a.777.777,0,0,0-.33-.157,1.376,1.376,0,0,1-1.313-.834.4.4,0,0,0-.041-.107.514.514,0,0,0-.132.033l-.058.017a1.032,1.032,0,0,1-1.263-.619l-.017-.05a.414.414,0,0,0-.074-.149.256.256,0,0,0-.116.058.972.972,0,0,1-.983.107,1.77,1.77,0,0,1-.652-.628c-.1-.14-.33-.454-.421-.462h0c-.1,0-.347.289-.462.421h0a4.4,4.4,0,0,0-.875,1.288c-.058.149-.107.3-.165.446-.091.239-.19.5-.273.743a8,8,0,0,1,1.354.479,16.2,16.2,0,0,1,1.734-.2c.14,0,.289-.008.429-.008Z" transform="translate(-13.569 -18.503)" fill="#231f20"/>
    </g>
  </g>
</svg>
