<svg xmlns="http://www.w3.org/2000/svg" width="33.625" height="26.646" viewBox="0 0 33.625 26.646">
  <g id="chicken-_icon_black" data-name="chicken- icon black" transform="translate(-68.267 -153.6)">
    <path id="Trazado_4548" data-name="Trazado 4548" d="M94.278,180.245H81.589a13.252,13.252,0,0,1-13.323-13.418q0-.434.033-.869A13.331,13.331,0,0,1,91.015,157.5a13.15,13.15,0,0,1,3.4,5.619h3.069a.634.634,0,0,1,.634.634v3.674a7.055,7.055,0,0,1,3.141,5.842,7.025,7.025,0,0,1-6.979,6.979ZM81.589,154.869a11.67,11.67,0,0,0-8.528,3.525,11.548,11.548,0,0,0-3.495,7.647v.009q-.03.388-.03.777a11.983,11.983,0,0,0,12.054,12.149H94.278a5.756,5.756,0,0,0,5.71-5.71,5.479,5.479,0,0,0-1.686-4.056c-.062-.062-.123-.121-.186-.179v1.063a7.025,7.025,0,0,1-6.979,6.979,6.979,6.979,0,1,1-.032-13.957h1.978a11.983,11.983,0,0,0-2.966-4.722A11.67,11.67,0,0,0,81.589,154.869Zm9.516,9.516a5.648,5.648,0,0,0-5.678,5.71,5.7,5.7,0,0,0,5.71,5.71,5.757,5.757,0,0,0,5.71-5.71v-5.71Z" fill="#141414"/>
    <path id="Trazado_4549" data-name="Trazado 4549" d="M823.658,312.91a1.264,1.264,0,0,1-.9-.372l-.728-.728a1.27,1.27,0,0,1-1.684-1.684l-.759-.76a1.269,1.269,0,1,1,1.794-1.794l3.172,3.172a1.269,1.269,0,0,1-.9,2.166Z" transform="translate(-723.036 -147.89)" fill="#141414"/>
    <path id="Trazado_4550" data-name="Trazado 4550" d="M815,365.824l1.794,1.795-2,2-1.794-1.8Z" transform="translate(-717.054 -204.335)" fill="#141414"/>
  </g>
</svg>
