<svg id="Combo_black_1" data-name="Combo black 1" xmlns="http://www.w3.org/2000/svg" width="32" height="22.284" viewBox="0 0 32 22.284">
  <path id="Trazado_4574" data-name="Trazado 4574" d="M1.47,21.01V22H3.108a2.454,2.454,0,0,0,2.44,2.291H29.391A2.446,2.446,0,0,0,31.832,22H33.47V21.01ZM29.391,23.3H5.549A1.465,1.465,0,0,1,4.094,22H30.846A1.473,1.473,0,0,1,29.391,23.3Z" transform="translate(-1.47 -2.002)" fill="#231f20"/>
  <path id="Trazado_4575" data-name="Trazado 4575" d="M31.885,14.878a1.844,1.844,0,0,0-2.223-.286l-.642-.642a1.832,1.832,0,1,0-2.876.367,1.733,1.733,0,0,0,.745.447L24.553,17.1a4.362,4.362,0,0,0-.676-.057A10.544,10.544,0,0,0,8.249,14.913a10.638,10.638,0,0,0-3.506,6.061,1.664,1.664,0,0,1-.733.149v.985a2.845,2.845,0,0,0,1.936-.756,1.849,1.849,0,0,1,1.329-.55,1.642,1.642,0,0,1,1.077.355,3.072,3.072,0,0,0,4.606-.183,3.071,3.071,0,1,0-.057-3.941,3.075,3.075,0,0,0-5.293,2.807c-.1,0-.218-.023-.332-.023a2.624,2.624,0,0,0-1.318.321,9.574,9.574,0,0,1,9.166-6.794,9.518,9.518,0,0,1,7.608,3.769,5.926,5.926,0,0,0-3.082,1.535l.676.71a4.891,4.891,0,0,1,7.23.527,3.061,3.061,0,0,0-.687-.08,2.845,2.845,0,0,0-1.936.756,1.881,1.881,0,0,1-2.658,0,2.792,2.792,0,0,0-1.936-.756,2.845,2.845,0,0,0-1.936.756c-.057.046-.115.092-.183.137l.6.779c.069-.046.126-.1.195-.149a1.849,1.849,0,0,1,1.329-.55,1.87,1.87,0,0,1,1.329.55,2.792,2.792,0,0,0,1.936.756,2.845,2.845,0,0,0,1.936-.756,1.881,1.881,0,0,1,2.658,0,2.792,2.792,0,0,0,1.936.756V21.1a1.528,1.528,0,0,1-.917-.252,5.868,5.868,0,0,0-1.936-2.624l1.547-1.547a1.853,1.853,0,0,0,.447.745,1.831,1.831,0,1,0,2.589-2.589ZM15.307,16.884a2.085,2.085,0,1,1-1.8,3.139,3.136,3.136,0,0,0,.172-1,3.045,3.045,0,0,0-.195-1.077,2.087,2.087,0,0,1,1.833-1.077Zm-4.7.069a2.085,2.085,0,1,1-2.085,2.085A2.085,2.085,0,0,1,10.609,16.952ZM26.856,13.63a.854.854,0,0,1,.6-1.455.806.806,0,0,1,.6.252.851.851,0,1,1-1.2,1.2Zm-.39,4.09a6.469,6.469,0,0,0-.768-.332L28.391,14.7l.55.55L26.466,17.72Zm4.732-.951a.851.851,0,0,1-1.2,0,.837.837,0,0,1,0-1.192h0a.83.83,0,0,1,1.192,0,.851.851,0,0,1,0,1.2Z" transform="translate(-1.1 -3.433)" fill="#231f20"/>
  <path id="Trazado_4576" data-name="Trazado 4576" d="M14.061,16.68a1.5,1.5,0,1,0,1.5,1.5,1.506,1.506,0,0,0-1.5-1.5Zm0,2.028a.526.526,0,0,1-.527-.527.527.527,0,1,1,.527.527Z" transform="translate(0.146 -2.633)" fill="#231f20"/>
  <path id="Trazado_4577" data-name="Trazado 4577" d="M9.951,16.74a1.5,1.5,0,1,0,1.5,1.5A1.506,1.506,0,0,0,9.951,16.74Zm0,2.028a.526.526,0,0,1-.527-.527.527.527,0,1,1,.527.527Z" transform="translate(-0.453 -2.625)" fill="#231f20"/>
  <path id="Trazado_4578" data-name="Trazado 4578" d="M23.629,4.454a1.662,1.662,0,0,1-1.661,1.661H11.8a1.5,1.5,0,1,0,0,3h4.7a1.043,1.043,0,0,1,0,2.085H9.743A2.775,2.775,0,0,0,6.97,13.975h.985a1.8,1.8,0,0,1,1.8-1.8h6.76a2.028,2.028,0,0,0,0-4.056h-4.7a.526.526,0,0,1-.527-.527.519.519,0,0,1,.527-.527H21.967A2.655,2.655,0,0,0,24.614,4.42h-.985Z" transform="translate(-0.669 -4.42)" fill="#231f20"/>
</svg>
