<svg xmlns="http://www.w3.org/2000/svg" width="32" height="26.504" viewBox="0 0 32 26.504">
  <g id="Daily_Special_Dinner" data-name="Daily Special Dinner" transform="translate(-7337.227 -1629.133)">
    <g id="Grupo_2298" data-name="Grupo 2298" transform="translate(7339.216 1629.133)">
      <path id="Trazado_4568" data-name="Trazado 4568" d="M46.571,152.384h-.612a8.99,8.99,0,0,0,.134-1.551c0-4.756-3.593-8.633-8.014-8.633H33.665a8.3,8.3,0,0,0-7.995,8.119l-1.255.007-.956-1.023a1.972,1.972,0,0,0-2.93,0,2.369,2.369,0,0,0-.07,3.081H19.433a1.556,1.556,0,0,0,.006,3.1h.612l.35,1.126a3.333,3.333,0,0,0,2.975,2.313H42.634a3.333,3.333,0,0,0,2.975-2.313l.35-1.126h.612a1.555,1.555,0,0,0,0-3.1Zm-1.44-1.544a8.408,8.408,0,0,1-.147,1.551H44a7,7,0,0,0,.172-1.551,6.35,6.35,0,0,0-6.1-6.568,5.771,5.771,0,0,0-3.51,1.2.543.543,0,0,0-.115.721.458.458,0,0,0,.669.124,4.841,4.841,0,0,1,2.962-1.016,5.357,5.357,0,0,1,5.141,5.538,6.014,6.014,0,0,1-.2,1.551h-9.88a6.014,6.014,0,0,1-.2-1.551,5.792,5.792,0,0,1,.943-3.191.543.543,0,0,0-.115-.721.458.458,0,0,0-.669.124,6.851,6.851,0,0,0-1.115,3.781,7.005,7.005,0,0,0,.172,1.551h-.981a8.353,8.353,0,0,1-.147-1.551,7.347,7.347,0,0,1,7.052-7.6,7.349,7.349,0,0,1,7.052,7.6Zm-18.518,0a7.347,7.347,0,0,1,7.052-7.6h.618a8.748,8.748,0,0,0-4.217,7.6,9.048,9.048,0,0,0,.134,1.551H26.613V150.84Zm-5.415-.8a1.069,1.069,0,0,1,.79-.35,1.051,1.051,0,0,1,.79.357l1.1,1.174a.461.461,0,0,0,.338.151l1.433-.007v1.029H21.8l-.605-.652a1.277,1.277,0,0,1,0-1.7Zm25.373,4.413H24.224a.516.516,0,0,0,0,1.029H44.946l-.248.8a2.379,2.379,0,0,1-2.064,1.606H23.37a2.371,2.371,0,0,1-2.064-1.606l-.248-.8h1.249a.516.516,0,0,0,0-1.029H19.433a.516.516,0,0,1,0-1.029H46.571a.516.516,0,0,1,0,1.029Z" transform="translate(-18 -134.493)" fill="#141414"/>
      <path id="Trazado_4569" data-name="Trazado 4569" d="M298.18,230.5a2.586,2.586,0,0,0-2.58,2.58.515.515,0,1,0,1.029,0,1.551,1.551,0,1,1,3.1,0,.515.515,0,1,0,1.029,0,2.586,2.586,0,0,0-2.58-2.58Z" transform="translate(-278.176 -216.108)" fill="#141414"/>
      <path id="Trazado_4570" data-name="Trazado 4570" d="M214.529,8.19a2.963,2.963,0,0,1,.453-1.647,3.926,3.926,0,0,0,.576-2.141,3.912,3.912,0,0,0-.576-2.127.513.513,0,0,0-.968.24.508.508,0,0,0,.062.247,2.956,2.956,0,0,1,.453,1.64,2.981,2.981,0,0,1-.453,1.647A3.926,3.926,0,0,0,213.5,8.19a3.986,3.986,0,0,0,.576,2.141.514.514,0,0,0,.453.268.548.548,0,0,0,.247-.062.513.513,0,0,0,.206-.7,2.855,2.855,0,0,1-.453-1.647Z" transform="translate(-201.112 -1.993)" fill="#141414"/>
      <path id="Trazado_4571" data-name="Trazado 4571" d="M264.629,8.1a2.964,2.964,0,0,1,.453-1.647,3.926,3.926,0,0,0,.577-2.141,3.939,3.939,0,0,0-.577-2.134.513.513,0,0,0-.968.24.508.508,0,0,0,.062.247,2.956,2.956,0,0,1,.453,1.64,2.982,2.982,0,0,1-.453,1.647A3.926,3.926,0,0,0,263.6,8.09a3.985,3.985,0,0,0,.576,2.141.514.514,0,0,0,.453.268.548.548,0,0,0,.247-.062.513.513,0,0,0,.206-.7,2.867,2.867,0,0,1-.453-1.64Z" transform="translate(-248.037 -1.9)" fill="#141414"/>
    </g>
    <g id="Capa_2_00000144328027889718625170000010645227286249276337_" transform="translate(7339.216 1629.133)">
      <g id="Outline">
        <path id="Soda" d="M641.278,143.917h-.284v-.492a.2.2,0,0,0-.2-.2h-2.4v-1.491l.895-.862a.082.082,0,0,0,0-.114h0l-.322-.336a.08.08,0,0,0-.114,0l-.918.885a.1.1,0,0,0-.019.028l-.142.336a.071.071,0,0,0,0,.033v1.524h-3.5a.2.2,0,0,0-.2.2v.492H633.8a.2.2,0,0,0-.2.2V145.4a.2.2,0,0,0,.2.2h.275l.828,8.895a.2.2,0,0,0,.2.18h4.88a.2.2,0,0,0,.2-.18l.824-8.9h.275a.2.2,0,0,0,.2-.2v-1.278a.2.2,0,0,0-.2-.2Zm-3.347-2.2.128-.3.852-.819.208.218-.862.828a.088.088,0,0,0-.024.057v1.524h-.3v-1.505Zm-3.451,1.9H640.6v.3h-6.121Zm5.742,6.13a3.258,3.258,0,0,0-2.57,1.78,3.107,3.107,0,0,1-2.466,1.723l-.256-2.736a3.993,3.993,0,0,0,2.85-1.785,3.784,3.784,0,0,1,2.693-1.718l-.251,2.736Zm-.421,4.521H635.28l-.081-.852a3.294,3.294,0,0,0,2.585-1.789,3.082,3.082,0,0,1,2.424-1.709l-.407,4.35Zm.691-7.418a3.959,3.959,0,0,0-2.836,1.775,3.792,3.792,0,0,1-2.741,1.728l-.445-4.762h6.135Zm.587-1.657H634v-.885h7.082v.885Z" transform="translate(-633.6 -140.4)" fill="#141414"/>
      </g>
    </g>
    <g id="Grupo_2299" data-name="Grupo 2299" transform="translate(7337.227 1642.737)">
      <path id="Trazado_4572" data-name="Trazado 4572" d="M376.091,212.847h-.633a1.985,1.985,0,0,0-1.325-1.691,1.756,1.756,0,0,0-1.749-1.621,1.8,1.8,0,0,0-.471.064,7.372,7.372,0,0,1-4.3-1.1,1.751,1.751,0,0,1-2.272,1.034,12.507,12.507,0,0,0-2.993,3.312h-.593a.258.258,0,0,0-.256.256,9.754,9.754,0,0,0,.657,4.381,6.2,6.2,0,0,0,3.173,2.673,1.469,1.469,0,0,0-.32.988.258.258,0,0,0,.256.256h6.822a.258.258,0,0,0,.256-.256,1.564,1.564,0,0,0-.262-.918,6.766,6.766,0,0,0,3.556-3.027,8.739,8.739,0,0,0,.686-4.05c0-.139-.093-.3-.232-.3Z" transform="translate(-361.5 -208.5)" fill="#141414"/>
      <path id="Trazado_4573" data-name="Trazado 4573" d="M386.016,219.821a.252.252,0,0,0,.209-.262v-.076a1.25,1.25,0,0,1,1.906-1.063.251.251,0,0,0,.384-.174,1.243,1.243,0,0,1,1.232-1.046,1.262,1.262,0,0,1,1.139.732.266.266,0,0,0,.227.151.26.26,0,0,0,.232-.139,1.246,1.246,0,0,1,2.313.238.266.266,0,0,0,.134.163.253.253,0,0,0,.215,0,1.217,1.217,0,0,1,.517-.11,1.247,1.247,0,0,1,1.249,1.249v.064a.25.25,0,0,0,.227.261,1.436,1.436,0,0,1,1.092,1.232H385a1.225,1.225,0,0,1,1.017-1.22Z" transform="translate(-383.634 -216.694)" fill="#fff"/>
    </g>
    <path id="banana" d="M.774,335.83l.46-.974a.309.309,0,0,1,.558.264l-.411.871.088.245A4.331,4.331,0,0,0,3.7,338.685a4.239,4.239,0,0,0,1.64.406,4.337,4.337,0,0,0,3.114-1.126.3.3,0,0,1,.352-.044.309.309,0,0,1,.162.318l-.147.989a.416.416,0,0,1-.024.083,3.831,3.831,0,0,1-.431.7l-.054.46v.015l-.1.852a.3.3,0,0,1-.029.093,2.508,2.508,0,0,1-1.366,1.41,4.981,4.981,0,0,1-1.909.289,4.948,4.948,0,0,1-3.422-1.611,4.836,4.836,0,0,1-.994-1.655A4.98,4.98,0,0,1,.2,337.96a6.859,6.859,0,0,1,.573-2.13ZM8.24,338.91a5.115,5.115,0,0,1-1.023.509,4.98,4.98,0,0,1-1.909.289,4.9,4.9,0,0,1-1.875-.465,5.141,5.141,0,0,1-.641-.362s.01.015.02.02a4.646,4.646,0,0,0,1.478,1.092,4.686,4.686,0,0,0,2.776.387A3.14,3.14,0,0,0,8.21,339.1l.029-.186Zm-7.177.759a4.344,4.344,0,0,0,2.228,2.448,4.313,4.313,0,0,0,3.309.152,1.918,1.918,0,0,0,.994-1.048l.039-.333c-.117.029-.24.059-.357.078h0a.278.278,0,0,1-.108.02,5.352,5.352,0,0,1-1.121.069,5.258,5.258,0,0,1-2.017-.5,5.329,5.329,0,0,1-1.674-1.234,5.256,5.256,0,0,1-1.072-1.782l-.235-.656A5.543,5.543,0,0,0,.813,338a4.238,4.238,0,0,0,.25,1.669Z" transform="translate(7358.902 1294.454)"/>
  </g>
</svg>
