<svg xmlns="http://www.w3.org/2000/svg" width="30.619" height="21.646" viewBox="0 0 30.619 21.646">
  <g id="desserts_icon_black" data-name="desserts icon black" transform="translate(-97.971 -219.8)">
    <path id="Trazado_4544" data-name="Trazado 4544" d="M227.557,597.014a3.449,3.449,0,0,1-2.21-.756,1.811,1.811,0,0,0-1.221-.45,1.886,1.886,0,0,0-1.287.465,3.36,3.36,0,0,1-2.143.741,3.429,3.429,0,0,1-2.21-.756,1.811,1.811,0,0,0-1.221-.45,1.886,1.886,0,0,0-1.287.465,3.36,3.36,0,0,1-2.143.741,3.429,3.429,0,0,1-2.21-.756,1.811,1.811,0,0,0-1.221-.45.8.8,0,0,1,0-1.608,3.339,3.339,0,0,1,2.143.741,1.886,1.886,0,0,0,1.287.465,1.8,1.8,0,0,0,1.221-.45,3.449,3.449,0,0,1,2.21-.756,3.339,3.339,0,0,1,2.143.741,1.886,1.886,0,0,0,1.287.465,1.8,1.8,0,0,0,1.221-.45,3.449,3.449,0,0,1,2.21-.756,3.339,3.339,0,0,1,2.143.741,1.886,1.886,0,0,0,1.287.465,1.811,1.811,0,0,0,1.251-.454,3.341,3.341,0,0,1,2.18-.753.8.8,0,1,1,0,1.608,1.811,1.811,0,0,0-1.251.454A3.332,3.332,0,0,1,227.557,597.014Z" transform="translate(-107.512 -360.589)" fill="#141414"/>
    <path id="Trazado_4545" data-name="Trazado 4545" d="M227.557,597.014a3.449,3.449,0,0,1-2.21-.756,1.811,1.811,0,0,0-1.221-.45,1.886,1.886,0,0,0-1.287.465,3.36,3.36,0,0,1-2.143.741,3.429,3.429,0,0,1-2.21-.756,1.811,1.811,0,0,0-1.221-.45,1.886,1.886,0,0,0-1.287.465,3.36,3.36,0,0,1-2.143.741,3.429,3.429,0,0,1-2.21-.756,1.811,1.811,0,0,0-1.221-.45.8.8,0,0,1,0-1.608,3.339,3.339,0,0,1,2.143.741,1.886,1.886,0,0,0,1.287.465,1.8,1.8,0,0,0,1.221-.45,3.449,3.449,0,0,1,2.21-.756,3.339,3.339,0,0,1,2.143.741,1.886,1.886,0,0,0,1.287.465,1.8,1.8,0,0,0,1.221-.45,3.449,3.449,0,0,1,2.21-.756,3.339,3.339,0,0,1,2.143.741,1.886,1.886,0,0,0,1.287.465,1.811,1.811,0,0,0,1.251-.454,3.341,3.341,0,0,1,2.18-.753.8.8,0,1,1,0,1.608,1.811,1.811,0,0,0-1.251.454A3.332,3.332,0,0,1,227.557,597.014Z" transform="translate(-107.512 -360.589)" fill="#141414"/>
    <path id="Trazado_4546" data-name="Trazado 4546" d="M118.19,221.4a.153.153,0,0,1,.059.011,22.939,22.939,0,0,1,5.784,3.453,8.8,8.8,0,0,1,2.748,3.685H102.2l15.91-7.13a.219.219,0,0,1,.085-.018m0-1.6a1.77,1.77,0,0,0-.738.159L98.5,228.45a.893.893,0,0,0,.365,1.708h28.824a.888.888,0,0,0,.889-1.014,9.46,9.46,0,0,0-3.5-5.493,24.579,24.579,0,0,0-6.19-3.707A1.761,1.761,0,0,0,118.19,219.8Z" fill="#141414"/>
    <path id="Trazado_4547" data-name="Trazado 4547" d="M127.012,459.8v9.643H99.6V459.8h27.408m.848-1.6H98.682a.683.683,0,0,0-.682.682v10.69a1.479,1.479,0,0,0,1.479,1.479h27.659a1.479,1.479,0,0,0,1.479-1.479V458.956A.757.757,0,0,0,127.861,458.2Z" transform="translate(-0.028 -229.606)" fill="#141414"/>
  </g>
</svg>
