<svg xmlns="http://www.w3.org/2000/svg" width="33.06" height="28.142" viewBox="0 0 33.06 28.142">
  <g id="Seafood_icon_black" data-name="Seafood icon black" transform="translate(-9.099 -13.282)">
    <g id="Grupo_1425" data-name="Grupo 1425" transform="translate(9.099 20.601)">
      <path id="Trazado_4404" data-name="Trazado 4404" d="M17.643,35a2.819,2.819,0,0,0-.5-.256c-.43-.181-.868-.347-1.29-.543a3.826,3.826,0,0,1-1.23-.905,6.392,6.392,0,0,1-1.7-3.983,3.9,3.9,0,0,1,0-.785c.015-.2.053-.385.075-.581v-.015c.143.1.234.053.309-.143a3.1,3.1,0,0,0,.151-1.614,1.631,1.631,0,0,0-.566-.981,1.345,1.345,0,0,0-.249-.174,5.737,5.737,0,0,1,.468-.573,4.3,4.3,0,0,1,.664-.619c.219-.143.219-.234.03-.422a.378.378,0,0,0-.06-.053c-.174-.151-.234-.158-.422-.015a2.739,2.739,0,0,0-.37.355,5.568,5.568,0,0,0-.438.581,5.908,5.908,0,0,0-.309.566,1.331,1.331,0,0,0-.724.038,2.988,2.988,0,0,0-1.863,1.78c-.008.023-.015.053-.023.075-.045.166-.03.264.06.294a.16.16,0,0,1-.023.053,2.948,2.948,0,0,0-.264,1.011,7.087,7.087,0,0,0,.445,3.018,7.337,7.337,0,0,0,.792,1.479c.158.241.332.475.513.7a7.332,7.332,0,0,0,.513.573c.023.03.053.053.075.083a6.68,6.68,0,0,0,2.67,1.811,6.176,6.176,0,0,0,.905.249,3.34,3.34,0,0,0,1.826-.151,2.27,2.27,0,0,0,.558-.317.309.309,0,0,0-.015-.543ZM12.807,24.234a5.479,5.479,0,0,1,.37-.46,2.79,2.79,0,0,1,.211-.211c.068-.06.121-.053.181.015a.065.065,0,0,1,.023.045c0,.015-.015.023-.023.03a9.888,9.888,0,0,0-1.094,1.222,1.907,1.907,0,0,1,.324-.641Zm-1.9,1.192a2.561,2.561,0,0,1,.422-.241,1.256,1.256,0,0,1,1.629.475,2.1,2.1,0,0,1,.091,1.961c-.106-.113-.211-.219-.309-.332-.166-.174-.2-.189-.415-.083-.151.075-.294.151-.445.226-.053-.121-.106-.234-.158-.355a1.071,1.071,0,0,0-.128-.264c-.091-.121-.241-.03-.347.03-.136.075-.279.143-.438.226-.06-.113-.106-.234-.158-.347-.038-.083-.083-.136-.189-.121-.083.008-.166.038-.249.053-.113.023-.219.045-.332.075a3.144,3.144,0,0,1,1.033-1.305Zm6.382,10.063a2.788,2.788,0,0,1-1.516.3,5.471,5.471,0,0,1-2.678-.973,8.989,8.989,0,0,1-2.323-2.452A6.911,6.911,0,0,1,9.6,28.557a3.28,3.28,0,0,1,.272-1.418A.817.817,0,0,0,9.933,27c.091-.023.181-.045.264-.068a1.929,1.929,0,0,1,.2-.038c.038.083.068.143.1.211.128.279.166.3.445.189.143-.06.287-.128.445-.2.06.136.113.249.166.362.143.287.226.317.505.174.136-.068.272-.136.422-.219.091.1.151.166.219.241a.348.348,0,0,0,.053.053c-.015.091-.03.181-.038.272a7.334,7.334,0,0,0-.091.913,7.089,7.089,0,0,0,.664,2.919A5.16,5.16,0,0,0,16,34.569c.407.181.837.332,1.252.49.106.038.264.06.249.2-.008.083-.128.166-.211.211Z" transform="translate(-9.163 -23.046)" fill="#231f20"/>
      <path id="Trazado_4405" data-name="Trazado 4405" d="M15.867,36.2a3.665,3.665,0,0,1-.694-.068,6.959,6.959,0,0,1-.928-.249A6.857,6.857,0,0,1,11.5,34.018l-.174-.189c-.143-.158-.287-.309-.422-.475-.181-.234-.355-.468-.521-.717a8.036,8.036,0,0,1-.807-1.516,7.2,7.2,0,0,1-.46-3.093,3.156,3.156,0,0,1,.249-1,.46.46,0,0,1-.015-.4.82.82,0,0,1,.038-.106,3.152,3.152,0,0,1,1.976-1.878,1.5,1.5,0,0,1,.679-.068,3.417,3.417,0,0,1,.256-.46,5.233,5.233,0,0,1,.453-.6,3.049,3.049,0,0,1,.392-.377.427.427,0,0,1,.664.023.488.488,0,0,1,.068.06.4.4,0,0,1-.06.717,3.838,3.838,0,0,0-.626.588c-.121.128-.234.264-.339.4l.1.075a1.878,1.878,0,0,1,.634,1.094,3.209,3.209,0,0,1-.158,1.712.5.5,0,0,1-.256.309c-.023,0-.045.015-.068.015a.209.209,0,0,1-.008.068c-.015.1-.03.2-.038.3a5.035,5.035,0,0,0,0,.754A6.176,6.176,0,0,0,14.7,33.12a3.76,3.76,0,0,0,1.169.86c.249.113.5.211.747.317.181.075.362.143.543.226a2.556,2.556,0,0,1,.536.279.55.55,0,0,1,.249.415.524.524,0,0,1-.226.422,2.158,2.158,0,0,1-.611.347,3.548,3.548,0,0,1-1.237.226Zm-5.846-9.09-.03.06A2.934,2.934,0,0,0,9.733,28.5a6.718,6.718,0,0,0,1.132,3.7,8.919,8.919,0,0,0,2.271,2.4,5.271,5.271,0,0,0,2.588.935,2.549,2.549,0,0,0,1.411-.287h0a.435.435,0,0,1,.068-.038h-.015l-.068-.023c-.151-.06-.294-.113-.445-.174-.272-.106-.551-.211-.815-.324a5.378,5.378,0,0,1-2.8-2.859,7.333,7.333,0,0,1-.679-3,4.938,4.938,0,0,1,.06-.679l.03-.249a1.607,1.607,0,0,1,.023-.189l-.113-.121h0l-.294.151a.585.585,0,0,1-.445.083.587.587,0,0,1-.309-.347c-.03-.06-.06-.128-.091-.2-.091.045-.189.083-.279.121-.37.151-.521.091-.686-.287l-.03-.075a.307.307,0,0,0-.053.015l-.174.045Zm2.444-.2c.121,0,.219.068.355.211.038.038.075.075.113.121a1.937,1.937,0,0,0-.174-1.509,1.5,1.5,0,0,0-.46-.422l-.279.355.113-.422a1.089,1.089,0,0,0-.777.068,2.412,2.412,0,0,0-.385.219h0a2.72,2.72,0,0,0-.792.883H10.2a.8.8,0,0,1,.181-.045.352.352,0,0,1,.385.234l.023.045c.015.038.038.083.053.121.091-.045.174-.091.256-.136.113-.068.392-.226.588.015a1.406,1.406,0,0,1,.136.256l.045.113.045.113.136-.068.128-.068a.622.622,0,0,1,.287-.091Z" transform="translate(-9.099 -22.985)" fill="#231f20"/>
    </g>
    <g id="Grupo_1426" data-name="Grupo 1426" transform="translate(13.85 22.307)">
      <path id="Trazado_4406" data-name="Trazado 4406" d="M21.4,33.615a1.494,1.494,0,0,0-.347-.174c-.294-.128-.6-.241-.89-.377a2.9,2.9,0,0,1-.852-.626,4.425,4.425,0,0,1-1.177-2.761,3.264,3.264,0,0,1,0-.543c.008-.136.038-.264.053-.4v-.015c.1.068.166.038.211-.1A2.168,2.168,0,0,0,18.5,27.5a1.157,1.157,0,0,0-.392-.679.9.9,0,0,0-.174-.121c.1-.136.211-.272.324-.4a3.108,3.108,0,0,1,.46-.43c.151-.1.151-.158.023-.294-.015-.015-.03-.023-.038-.038-.121-.106-.166-.113-.287-.008a2,2,0,0,0-.256.249,3.7,3.7,0,0,0-.3.4,3.241,3.241,0,0,0-.211.392.9.9,0,0,0-.505.03,2.047,2.047,0,0,0-1.29,1.23c0,.015-.015.038-.015.053-.03.113-.023.181.045.2,0,.015-.008.023-.015.038a2.051,2.051,0,0,0-.181.7A4.932,4.932,0,0,0,16,30.922a5.8,5.8,0,0,0,.543,1.026c.113.166.234.332.355.49.106.136.234.264.355.4l.053.053a4.469,4.469,0,0,0,2.474,1.426,2.339,2.339,0,0,0,1.267-.106,1.493,1.493,0,0,0,.385-.219.216.216,0,0,0-.008-.377Zm-3.342-7.446c.083-.106.166-.219.256-.317a1.356,1.356,0,0,1,.151-.143c.045-.045.083-.038.128.015a.057.057,0,0,1,.015.03c0,.008-.008.015-.015.023a6.7,6.7,0,0,0-.754.845,1.46,1.46,0,0,1,.226-.445Zm-1.313.822a1.407,1.407,0,0,1,.294-.166.87.87,0,0,1,1.132.332,1.44,1.44,0,0,1,.06,1.358c-.075-.083-.143-.151-.219-.226-.113-.121-.143-.128-.287-.053-.106.053-.2.106-.309.158-.038-.083-.075-.166-.106-.249a.583.583,0,0,0-.091-.181c-.068-.083-.166-.023-.241.023-.1.053-.2.1-.3.158a2.363,2.363,0,0,1-.113-.241.111.111,0,0,0-.128-.083.715.715,0,0,0-.174.038c-.075.015-.151.03-.226.053a2.147,2.147,0,0,1,.717-.905Zm4.413,6.963a1.961,1.961,0,0,1-1.049.211,3.768,3.768,0,0,1-1.856-.671,6.154,6.154,0,0,1-1.607-1.7,4.748,4.748,0,0,1-.807-2.633,2.3,2.3,0,0,1,.189-.981c.015-.03.03-.068.045-.1l.181-.045a1.225,1.225,0,0,0,.143-.03c.023.053.045.1.068.143.083.2.113.211.309.128.1-.038.2-.091.309-.136.045.1.075.174.113.249.1.2.151.219.347.121.091-.045.189-.1.294-.151.06.068.106.121.151.166l.038.038a1.607,1.607,0,0,0-.023.189,6.052,6.052,0,0,0-.06.626A4.92,4.92,0,0,0,18.4,31.4a3.564,3.564,0,0,0,1.871,1.909c.287.128.581.226.868.339.075.03.181.045.174.143,0,.053-.091.113-.151.143Z" transform="translate(-15.465 -25.298)" fill="#231f20"/>
      <path id="Trazado_4407" data-name="Trazado 4407" d="M20.137,34.49a2.7,2.7,0,0,1-.49-.045A6.318,6.318,0,0,1,19,34.271a4.731,4.731,0,0,1-1.924-1.305l-.121-.128c-.1-.106-.2-.219-.294-.332-.128-.166-.249-.324-.362-.5a5.4,5.4,0,0,1-.566-1.064,5.08,5.08,0,0,1-.324-2.165,2.121,2.121,0,0,1,.166-.686.386.386,0,0,1,0-.294.287.287,0,0,1,.023-.075,2.259,2.259,0,0,1,1.411-1.335,1.182,1.182,0,0,1,.453-.053,2.6,2.6,0,0,1,.166-.287,3.244,3.244,0,0,1,.317-.422,1.84,1.84,0,0,1,.279-.264.351.351,0,0,1,.536.015h0l.045.045a.409.409,0,0,1,.151.309.415.415,0,0,1-.2.272,2.852,2.852,0,0,0-.415.385,2.884,2.884,0,0,0-.2.241c.008,0,.015.015.023.015a1.329,1.329,0,0,1,.46.792,2.262,2.262,0,0,1-.113,1.215.351.351,0,0,1-.219.249h-.015v.008a1.869,1.869,0,0,0-.023.2,2.912,2.912,0,0,0,0,.513,4.2,4.2,0,0,0,1.124,2.648,2.479,2.479,0,0,0,.792.581c.166.075.339.143.513.219.128.053.249.106.377.158a1.841,1.841,0,0,1,.385.2h0a.446.446,0,0,1,.2.332.411.411,0,0,1-.174.339,1.593,1.593,0,0,1-.438.249,2.524,2.524,0,0,1-.875.158Zm-4.006-6.3v.015a1.968,1.968,0,0,0-.181.9,4.545,4.545,0,0,0,.777,2.535,5.957,5.957,0,0,0,1.562,1.645,3.652,3.652,0,0,0,1.765.641,1.631,1.631,0,0,0,.875-.158l-.234-.091c-.2-.075-.385-.143-.573-.234a3.794,3.794,0,0,1-1.969-2.007,5.039,5.039,0,0,1-.475-2.1,3.376,3.376,0,0,1,.045-.475l.038-.279-.03-.03-.166.083a.448.448,0,0,1-.355.06.474.474,0,0,1-.249-.264c-.015-.03-.023-.053-.038-.083a.817.817,0,0,1-.143.06c-.287.113-.422.053-.551-.226h0l-.083.015Zm1.8.309-.038.03.038-.03Zm-.143-.558a.386.386,0,0,1,.287.166h0a1.254,1.254,0,0,0-.136-.89,1.132,1.132,0,0,0-.256-.249l-.332.43.136-.513a.7.7,0,0,0-.438.06,1.405,1.405,0,0,0-.256.143,1.84,1.84,0,0,0-.46.475h.015a.3.3,0,0,1,.324.2l.023.053v.008a.9.9,0,0,1,.121-.06c.211-.121.377-.113.483.03a.753.753,0,0,1,.1.189l-.151.128.174-.075a.5.5,0,0,1,.023.053.064.064,0,0,0,.038-.023l.091-.045a.506.506,0,0,1,.226-.068Z" transform="translate(-15.397 -25.245)" fill="#231f20"/>
    </g>
    <g id="Grupo_1427" data-name="Grupo 1427" transform="translate(15.305 13.282)">
      <path id="Trazado_4408" data-name="Trazado 4408" d="M44.109,25.019c-.43-3.893-2.263-6.986-6.2-8.072-4.549-1.26-9.943-.588-14.6.053-.015,0-.023-.008-.038-.008-.543-.045-1.441-.332-.7-.868a7.57,7.57,0,0,1,1.569-.769c.475-.2,1.26-.438,1.207-1.094-.121-1.471-3.636-.822-4.526-.913-.468-.045-.468.686,0,.732a12.734,12.734,0,0,0,1.7.015c.317-.015,1.7-.166,1.878.121.2.339-.769.566-1.064.694a5.78,5.78,0,0,0-1.358.739,1,1,0,0,0-.355,1.373.875.875,0,0,0,.151.181l-.664.045c-.241.015-1.456.226-1.652.023-.475-.49.619-.747.868-.89a1.556,1.556,0,0,0,.619-.505c.852-1.433-2.776-.981-3.266-1a.366.366,0,0,0,0,.732c.641.015,1.29.008,1.931.008h.558c0,.068-.513.256-.558.279-.505.241-1.275.513-1.215,1.222.121,1.433,3.01.9,4.134.754A6.582,6.582,0,0,0,25,22.144c1.743,1.365,4.089,1.494,6.209,1.743,1.373.158,3.3.234,4.33,1.343,1.215,1.313,1.222,4.149.868,5.7-.86,3.727-4.27,4.33-7.544,3.983a.083.083,0,0,0-.023-.068,5.3,5.3,0,0,0-3.191-2.867c-.988-.279-2.738-.385-3.538.422-.777.785-.2,1.773.551,2.293a7.5,7.5,0,0,0,3.727,1.169,7.949,7.949,0,0,0-2.806,2.24c-.453.611-1.448,2.263-.754,3.01.9.958,2.836-.588,3.485-1.079A6.963,6.963,0,0,0,29.052,35.9c2.987,1.78,7.763.611,10.652-.724,3.53-1.637,4.805-6.586,4.406-10.154ZM43.03,29.484a8.509,8.509,0,0,1-5.922,1.637,8.532,8.532,0,0,0,.2-1.811,8.984,8.984,0,0,0,6.027-4.579,13.53,13.53,0,0,1-.3,4.76ZM23.243,17.739a59.215,59.215,0,0,1,10.78-.573,7.85,7.85,0,0,1-.558,6.276.482.482,0,0,0-.015.053c-.4-.091-.822-.158-1.252-.219-3.727-.49-8.426-.943-8.962-5.537Zm10.923,5.944a8.678,8.678,0,0,0,.664-6.473c4.126.317,7.257,2.059,8.26,6.193,0,.015-.015.023-.015.038a8.244,8.244,0,0,1-5.794,5.13,11.137,11.137,0,0,0-.37-2.15c-.045-.151-.091-.294-.143-.43a9.067,9.067,0,0,0,3.3-3.9c.2-.422-.43-.792-.634-.37a8.429,8.429,0,0,1-2.995,3.613,4,4,0,0,0-2.271-1.645ZM23.024,33.52c-.332-.958.053-.92,1-.973a4.351,4.351,0,0,1,4.081,2.5,6.981,6.981,0,0,1-3.6-.355c-.845-.272-1.177-.287-1.486-1.169Zm3.727,5.167c-.272.279-2.746,2.6-3.334,1.418-.121-.249.468-1.162.626-1.411a6.035,6.035,0,0,1,1.66-1.584,15.946,15.946,0,0,1,2.64-1.373,5.978,5.978,0,0,1-1.6,2.957ZM30.6,35.753a6.643,6.643,0,0,0,4.971-1.7,5.345,5.345,0,0,0,.392-.445,4.91,4.91,0,0,0,2.15,1.448c-2.278.852-5.235,1.373-7.506.7Zm8.985-1.335c-.128.068-.264.128-.4.189a.31.31,0,0,0-.151-.068,4.253,4.253,0,0,1-2.648-1.554,5.973,5.973,0,0,0,.528-1.162.057.057,0,0,1,.03.008A9.253,9.253,0,0,0,42.7,30.586a6.733,6.733,0,0,1-3.108,3.832Z" transform="translate(-17.325 -13.282)" fill="#231f20"/>
      <path id="Trazado_4409" data-name="Trazado 4409" d="M30.686,19.57a.366.366,0,0,0,0,.732A.366.366,0,0,0,30.686,19.57Z" transform="translate(-20.521 -14.826)" fill="#231f20"/>
      <path id="Trazado_4410" data-name="Trazado 4410" d="M44.551,21.043a6.242,6.242,0,0,1,2.995,1.931c.279.37.92,0,.634-.37a6.979,6.979,0,0,0-1.388-1.32,8.389,8.389,0,0,0-2.044-.943c-.438-.166-.626.536-.2.7Z" transform="translate(-23.953 -15.01)" fill="#231f20"/>
      <path id="Trazado_4411" data-name="Trazado 4411" d="M49.576,25.2a.366.366,0,0,0,0-.732A.366.366,0,0,0,49.576,25.2Z" transform="translate(-25.16 -16.03)" fill="#231f20"/>
    </g>
  </g>
</svg>
