<svg xmlns="http://www.w3.org/2000/svg" width="31.942" height="29.792" viewBox="0 0 31.942 29.792">
  <path id="House_Specialties_icon_black" data-name="House Specialties icon black" d="M31.389,15.633,26.6,18.042c.059.234.115.468.158.709h2.687a2.5,2.5,0,0,1,2.5,2.509,2.02,2.02,0,0,1-.5,1.334l-3.489,3.947v.742a2.5,2.5,0,0,1-2.5,2.51H6.488a2.506,2.506,0,0,1-2.5-2.51v-.742L.5,22.594A2.012,2.012,0,0,1,0,21.26a2.505,2.505,0,0,1,2.5-2.509H5.181a10.949,10.949,0,0,1,20.748-2.617l4.569-2.3a.994.994,0,0,1,1.338.449,1,1,0,0,1-.447,1.346ZM15.971,10.72A10.014,10.014,0,0,0,6.19,18.751H7.218a8.959,8.959,0,0,1,16.93-1.721l.889-.447a9.985,9.985,0,0,0-9.065-5.863Zm0,5.019a4.994,4.994,0,0,1,4.568,3.012h.186l.745-.374a5.971,5.971,0,0,0-11.139.374H11.4a4.993,4.993,0,0,1,4.568-3.012ZM12.533,18.75h1.222a2.946,2.946,0,0,1,4.431,0h1.222a3.947,3.947,0,0,0-6.875,0Zm3.438-5.02a7,7,0,0,1,6.392,4.2l.891-.448A7.96,7.96,0,0,0,8.248,18.75h1.03a7,7,0,0,1,6.693-5.02ZM25.689,18.5l-.5.251h.559c-.016-.086-.043-.167-.062-.251Zm-.735,2.258H2.5a.5.5,0,0,0-.5.5l3.992,4.518v1.506a.5.5,0,0,0,.5.5H25.454a.5.5,0,0,0,.5-.5V25.777l3.992-4.518a.5.5,0,0,0-.5-.5H24.954ZM8.651,7.851a3.537,3.537,0,0,0-.389,2.7.033.033,0,0,1,0,.018.508.508,0,0,1,.016.117.467.467,0,0,1-.466.469A.463.463,0,0,1,7.4,10.9h0a.1.1,0,0,1-.008-.017.26.26,0,0,1-.015-.039,4.281,4.281,0,0,1,.429-3.348,3.409,3.409,0,0,0,.4-2.7l0-.01a.027.027,0,0,1,0-.009.009.009,0,0,1,0-.006.431.431,0,0,1-.03-.157.454.454,0,0,1,.878-.166,4.227,4.227,0,0,1-.391,3.4Zm11.288-.136a3.535,3.535,0,0,0-.388,2.7.021.021,0,0,1,0,.018.431.431,0,0,1,.017.117.467.467,0,0,1-.466.469.462.462,0,0,1-.411-.252h0l-.006-.017a.255.255,0,0,1-.017-.039,4.288,4.288,0,0,1,.429-3.348,3.4,3.4,0,0,0,.4-2.7.047.047,0,0,0,0-.01l0-.009a.007.007,0,0,1,0-.006.477.477,0,0,1-.029-.157.457.457,0,0,1,.455-.458.452.452,0,0,1,.422.292,4.222,4.222,0,0,1-.39,3.4ZM15.178,3.693a3.531,3.531,0,0,0-.387,2.7.03.03,0,0,1,0,.018.507.507,0,0,1,.016.117.467.467,0,0,1-.466.469.462.462,0,0,1-.41-.252h0l-.007-.016a.357.357,0,0,1-.017-.039,4.286,4.286,0,0,1,.429-3.348,3.408,3.408,0,0,0,.4-2.7.046.046,0,0,1,0-.011l0-.008a.012.012,0,0,1,0-.006.454.454,0,0,1,.848-.322,4.226,4.226,0,0,1-.391,3.4Zm0,0" transform="translate(0 -0.001)" fill="#231f20"/>
</svg>
