<svg xmlns="http://www.w3.org/2000/svg" width="22.792" height="33.37" viewBox="0 0 22.792 33.37">
  <g id="Beverages_icon_black" data-name="Beverages_icon black" transform="translate(-20.798 -11.516)">
    <path id="Trazado_4437" data-name="Trazado 4437" d="M31.377,34.883c.476-.6,1.238-1.435,1.2-2.261a4.42,4.42,0,0,0-1.552-2.53c-1.489-1.418-4.037-.664-5.392.592a2.749,2.749,0,0,0-1.077,2.279,5.726,5.726,0,0,0,1.5,3.14,5.956,5.956,0,0,0,2.9.341,3.225,3.225,0,0,0,2.422-1.57Zm-1.714-4.629c-.278.35-.556.709-.843,1.05-.3.359-.655.655-.951,1a3.765,3.765,0,0,0-.772.018c-.529.036-1.05.054-1.579.108A2.5,2.5,0,0,1,26.2,31.24a3.959,3.959,0,0,1,3.472-.987Zm-2,5.338a2.707,2.707,0,0,1-2.207-2.378c.682-.081,2.1-.395,2.566.1a19,19,0,0,1,1.229,2.18,3.089,3.089,0,0,1-1.588.1Zm2.288-.449v-.018c-.529-.736-.79-1.723-1.391-2.4.269-.287.574-.547.825-.852.341-.413.673-.843,1.014-1.256v-.018c.027.018.063.036.09.054a4.13,4.13,0,0,1,1.292,1.857c.063.52-.431,1.113-.7,1.5a4.84,4.84,0,0,1-1.121,1.139Z" transform="translate(-0.385 -1.831)" fill="#231f20"/>
    <path id="Trazado_4438" data-name="Trazado 4438" d="M36.349,39.422c-1.471-.709-4.046-.834-5.123.655a4.945,4.945,0,0,0-.969,3.05c.153.915,1.113,1.5,1.83,1.992a3.217,3.217,0,0,0,2.781.79,5.98,5.98,0,0,0,2.665-1.175,5.575,5.575,0,0,0,.493-3.5,2.758,2.758,0,0,0-1.687-1.812Zm-.395.673a2.506,2.506,0,0,1,.96.951c-.467.1-.933.224-1.4.341a4.248,4.248,0,0,0-.825.233c-.386-.242-.816-.413-1.193-.664s-.772-.52-1.157-.772a4.072,4.072,0,0,1,3.616-.09Zm-4.926,2.9a4.023,4.023,0,0,1,.718-2.279c.009,0,.009.018.027.027.449.3.888.6,1.337.9.341.224.718.386,1.068.583-.359.834-.314,1.839-.6,2.692v.036a3.988,3.988,0,0,1-1.068-.5c-.413-.287-1.337-.852-1.462-1.453Zm5.284,1.534a3.205,3.205,0,0,1-1.983.556,24.036,24.036,0,0,1,.529-2.467c.179-.413.628-.413,1.032-.511.44-.108.888-.233,1.337-.323a2.475,2.475,0,0,1-.906,2.745Z" transform="translate(-0.97 -2.817)" fill="#231f20"/>
    <path id="Trazado_4439" data-name="Trazado 4439" d="M35.881,32.063a1.412,1.412,0,0,0,1.543-1.148,1.3,1.3,0,0,0-.942-1.507.381.381,0,0,0-.2-.018,1.512,1.512,0,0,0-1.678,1.077A1.456,1.456,0,0,0,35.881,32.063Zm-.493-1.5c.117-.368.556-.413.888-.395a.5.5,0,0,1,.377.592.622.622,0,0,1-.673.52c-.314-.045-.709-.377-.592-.727Z" transform="translate(-1.417 -1.837)" fill="#231f20"/>
    <path id="Trazado_4440" data-name="Trazado 4440" d="M38.842,34.167a.381.381,0,0,0-.2-.018,1.512,1.512,0,0,0-1.678,1.077,1.456,1.456,0,0,0,1.274,1.6,1.412,1.412,0,0,0,1.543-1.148A1.3,1.3,0,0,0,38.842,34.167Zm.179,1.355a.622.622,0,0,1-.673.52c-.314-.045-.709-.377-.592-.727.117-.368.556-.413.888-.395a.5.5,0,0,1,.377.592Z" transform="translate(-1.66 -2.326)" fill="#231f20"/>
    <path id="Trazado_4441" data-name="Trazado 4441" d="M27.572,40.517a.381.381,0,0,0-.2-.018A1.512,1.512,0,0,0,25.7,41.576a1.456,1.456,0,0,0,1.274,1.6,1.412,1.412,0,0,0,1.543-1.148A1.3,1.3,0,0,0,27.572,40.517Zm.179,1.355a.622.622,0,0,1-.673.52c-.314-.045-.709-.377-.592-.727.117-.368.556-.413.888-.395a.5.5,0,0,1,.377.592Z" transform="translate(-0.501 -2.979)" fill="#231f20"/>
    <path id="Trazado_4442" data-name="Trazado 4442" d="M41.623,17.97a.4.4,0,0,0,.556,0c.467-.547.942-1.095,1.355-1.678a.394.394,0,0,0-.063-.476C42.207,14.328,38.447,8.945,36.8,13a36.588,36.588,0,0,0-1.175,4.405c-.17.646-.341,1.292-.5,1.938-4.647-.009-9.286-.126-13.933-.135a.478.478,0,0,0-.17.036.312.312,0,0,0-.215.35c.538,5.85,1.211,11.681,2.144,17.486.242,1.516.5,3.032.79,4.54.153.79.135,2.144.7,2.772.431.476,1.193.386,1.767.4,1.552.045,3.1.09,4.656.09,1.373,0,2.736-.027,4.1-.045a6.81,6.81,0,0,0,2.763-.206c1.525-.79,1.346-3.8,1.57-5.258q1.561-9.824,3.113-19.639a.4.4,0,0,0-.377-.493c-1.292.045-2.593.063-3.885.081.323-1.265.682-2.521,1.077-3.759.807.8,1.606,1.6,2.4,2.4Zm-7.151,7.366c.386-1.75.816-3.481,1.256-5.213h1.409c-.44,1.758-.843,3.526-1.265,5.284-.467,0-.933-.027-1.4-.063Zm-.781-.081c-1.032-.117-2.064-.3-3.1-.484a17.785,17.785,0,0,0-8.469.206q-.269-2.49-.5-4.988c4.432.009,8.873.117,13.305.126-.431,1.7-.852,3.418-1.229,5.132Zm5.446,10.138-.6,3.777a20.341,20.341,0,0,1-.6,3.777c-.52,1.364-1.758,1.095-2.979,1.1-1.256.009-2.5.036-3.759.036-1.175,0-2.36,0-3.535-.027a7.785,7.785,0,0,1-1.83-.072c-1.086-.341-.978-.691-1.148-1.552q-.713-3.661-1.265-7.339c-.467-3.1-.861-6.217-1.211-9.34,3.876-1.13,7.169-.251,11.026.278a14.958,14.958,0,0,0,7.491-.718q-.794,5.033-1.6,10.066ZM41.57,20.043c-.233,1.462-.467,2.934-.7,4.4a11.319,11.319,0,0,1-4.19.951c.422-1.758.825-3.526,1.265-5.275,1.211-.009,2.413-.036,3.625-.072Zm-4.235-.709H35.926c.126-.493.26-.987.386-1.48.368-1.409.529-3.445,1.283-4.719.987-1.669,2.153-.242,3.015.655.44.458,2.09,1.857,2.046,2.413-.027.287-.646.664-.79.942-.018-.036-.036-.063-.054-.1a16.212,16.212,0,0,0-2.476-2.485.4.4,0,0,0-.655.17c-.5,1.516-.933,3.059-1.337,4.612Z" transform="translate(0 0)" fill="#231f20"/>
    <path id="Trazado_4443" data-name="Trazado 4443" d="M22.7,23.605c.108.476.188.96.269,1.435.081.493.834.287.754-.206-.09-.538-.179-1.086-.314-1.615-.018-.081-.117-.278-.09-.35-.018-.018-.027-.036-.045-.054a1.742,1.742,0,0,0,.215-.018,4.355,4.355,0,0,1,.906.045c.5.063.493-.727,0-.781-.547-.072-1.732-.242-1.875.538a2.66,2.66,0,0,0,.179,1.014Z" transform="translate(-0.176 -1.077)" fill="#231f20"/>
    <path id="Trazado_4444" data-name="Trazado 4444" d="M25.927,22.961a.391.391,0,0,0,0-.781A.391.391,0,0,0,25.927,22.961Z" transform="translate(-0.489 -1.096)" fill="#231f20"/>
  </g>
</svg>
