<svg xmlns="http://www.w3.org/2000/svg" width="34.767" height="37.734" viewBox="0 0 34.767 37.734">
  <g id="Lulas_Combo_icon_black" data-name="Lulas Combo_icon black" transform="translate(-13.699 -12.043)">
    <g id="Grupo_1428" data-name="Grupo 1428" transform="translate(18.769 34.213)">
      <path id="Trazado_4412" data-name="Trazado 4412" d="M29.785,46.812a29.124,29.124,0,0,1,2.086-2.086c-.169.066-.329.141-.5.207,2.067-.16,4.134-.7,6.145-.9a10.22,10.22,0,0,0,3.138-.564,5.839,5.839,0,0,0,2.189-1.926,7.052,7.052,0,0,0,1.409-2.575,2.946,2.946,0,0,0-.592-2.64,2.3,2.3,0,0,0-2.687-.451A4.842,4.842,0,0,0,38.965,37.8l-.2.31a.873.873,0,0,1-.16.207,1.07,1.07,0,0,1-.1.1s-.16.122-.085.075a.676.676,0,0,1-.263.122,10.114,10.114,0,0,1-1.626.254c-1.25.169-2.49.338-3.74.5a.712.712,0,0,0-.7.7c.019.338.31.752.7.7,1.212-.16,2.434-.329,3.646-.489.62-.085,1.25-.141,1.86-.254a2.339,2.339,0,0,0,1.438-.893,7.2,7.2,0,0,0,.423-.62c.066-.1.132-.207.2-.3a1.728,1.728,0,0,1,.16-.207,3.977,3.977,0,0,1,.526-.526c.038-.028.075-.066.113-.094-.075.056.047-.028.066-.038a3.807,3.807,0,0,1,.329-.2c.113-.066.047-.028.019-.009a1.493,1.493,0,0,1,.188-.066c.038-.009.085-.019.132-.028.2-.056-.075,0,.038,0,.094,0,.2-.009.291,0-.16-.019.056.019.066.028.028,0,.188.085.085.028a.7.7,0,0,1,.113.066c.169.085-.047-.056.038.019a1.306,1.306,0,0,1,.2.2c-.094-.113.028.047.038.056a.7.7,0,0,0,.066.113c.094.169-.019-.075.019.038a1.3,1.3,0,0,1,.056.179c.028.094.047.188.066.282-.019-.16,0,.047,0,.066V38.4c0,.132.047-.2,0,.047-.028.132-.056.263-.094.385a5.024,5.024,0,0,1-.714,1.315,5.7,5.7,0,0,1-1.964,2.02,4.375,4.375,0,0,1-1.353.357c-.545.066-1.09.085-1.635.15-1.184.141-2.358.366-3.533.564-.62.1-1.175.188-1.776.254a1.656,1.656,0,0,0-1.034.282c-.113.094-.216.2-.319.3-.592.573-1.175,1.146-1.729,1.748a.715.715,0,0,0,0,.987.7.7,0,0,0,.987,0h0Z" transform="translate(-19.67 -35.638)" fill="#231f20"/>
      <path id="Trazado_4413" data-name="Trazado 4413" d="M22.317,42.665q3.594,2.946,7.179,5.891v-.987a16.127,16.127,0,0,1-3.044,2.678.721.721,0,0,0-.254.958.712.712,0,0,0,.958.254,18.079,18.079,0,0,0,3.326-2.894.706.706,0,0,0,0-.987q-3.594-2.946-7.179-5.891a.725.725,0,0,0-.987,0,.706.706,0,0,0,0,.987h0Z" transform="translate(-19.278 -35.992)" fill="#231f20"/>
      <path id="Trazado_4414" data-name="Trazado 4414" d="M20.143,44.878a24.971,24.971,0,0,0,2.828-2.424.7.7,0,0,0-.987-.987,22.564,22.564,0,0,1-2.546,2.208.733.733,0,0,0-.254.958.706.706,0,0,0,.958.254h0Z" transform="translate(-19.095 -35.978)" fill="#231f20"/>
      <path id="Trazado_4415" data-name="Trazado 4415" d="M24.223,42.653a13.114,13.114,0,0,0,2.847-1.879A6.369,6.369,0,0,0,28.16,39.4c.15-.244.282-.489.451-.714-.056.066.047-.056.056-.066a1.805,1.805,0,0,1,.132-.141c.047-.047.1-.094.15-.141.141-.122-.094.047.075-.056.113-.066.226-.132.348-.2.019-.009.122-.056.019-.009a1.492,1.492,0,0,1,.188-.066,3.876,3.876,0,0,1,.724-.179,1.592,1.592,0,0,0,.207-.038c.226-.038-.132.009.094-.009.122-.009.235-.028.357-.038.263-.028.526-.047.78-.075a12.906,12.906,0,0,0,1.8-.3A6.905,6.905,0,0,1,35.32,37.1a1.153,1.153,0,0,1,.366.047c.066.019.122.038.179.056h0l.113.056a.7.7,0,0,1,.113.066c.028.019.226.169.122.075a3.6,3.6,0,0,1,.272.263c.132.141-.038-.066.028.028.038.056.075.122.113.179.009.028.075.2.028.047.019.056.028.113.047.169.056.16.009-.132,0,.038v.169c.009-.179-.009,0-.019.038h0a1.023,1.023,0,0,1-.056.1.706.706,0,0,0,.254.958.714.714,0,0,0,.958-.254,2.3,2.3,0,0,0-1.09-3.063c-1.278-.733-2.753-.216-4.087.056l-.479.085c.141-.019-.085.009-.094.009-.066,0-.141.019-.207.019-.282.028-.573.047-.855.075a8.487,8.487,0,0,0-1.757.3,3.543,3.543,0,0,0-1.56.958c-.432.489-.7,1.09-1.09,1.607.066-.094-.085.1-.075.094l-.2.226a3.3,3.3,0,0,1-.319.31,6.119,6.119,0,0,1-.742.583c-.564.385-1.165.7-1.766,1.034a.721.721,0,0,0-.254.958.712.712,0,0,0,.958.254h0Z" transform="translate(-19.342 -35.642)" fill="#231f20"/>
    </g>
    <g id="Grupo_1429" data-name="Grupo 1429" transform="translate(13.699 12.043)">
      <path id="Trazado_4416" data-name="Trazado 4416" d="M14.4,29.871H47.77a.7.7,0,0,0,.7-.7.712.712,0,0,0-.7-.7H14.4a.7.7,0,0,0-.7.7.712.712,0,0,0,.7.7Z" transform="translate(-13.699 -13.035)" fill="#231f20"/>
      <path id="Trazado_4417" data-name="Trazado 4417" d="M16.3,30.383a13.679,13.679,0,0,0,1.541,2.631,1.334,1.334,0,0,0,.817.648,11.618,11.618,0,0,0,1.8.179c2.2.113,4.407.113,6.615.113,2.744,0,5.5-.028,8.24-.075,2.161-.038,4.322-.085,6.483-.2a12.43,12.43,0,0,0,1.673-.15,1.658,1.658,0,0,0,.921-.677,12.578,12.578,0,0,0,1.3-2.1c.056-.113.122-.235.179-.348s.188-.235,0-.038a.715.715,0,0,0,0-.987.7.7,0,0,0-.987,0,2.547,2.547,0,0,0-.357.592c-.169.329-.338.648-.526.968-.094.16-.188.329-.291.489l-.169.254a.784.784,0,0,0-.075.113.516.516,0,0,1-.066.085c.047-.066.066-.075.028-.038-.113.122-.216.244-.329.357-.132.132.085-.038-.019.009-.066.038.216-.066.141-.056a.624.624,0,0,0-.141.028c-.169.038.169-.019.066,0a.725.725,0,0,0-.141.019c-.254.028-.517.047-.78.056-1.992.122-3.984.16-5.976.207-2.7.056-5.393.094-8.09.094-2.311,0-4.632,0-6.953-.085-.677-.028-1.353-.056-2.03-.132-.169-.019.207.038.028,0a.749.749,0,0,1-.141-.028c-.056-.009-.122-.038-.179-.047.047,0,.207.1.113.038.066.047.179.113.207.188-.028-.094-.141-.188-.2-.263a12.509,12.509,0,0,1-.742-1.1,14.363,14.363,0,0,1-.752-1.466.71.71,0,0,0-.958-.254.721.721,0,0,0-.254.958h0Z" transform="translate(-13.852 -13.078)" fill="#231f20"/>
      <path id="Trazado_4418" data-name="Trazado 4418" d="M18.088,26.8c-.009-.282,0-.564.009-.855.009-.141.028-.282.038-.423.028-.226-.028.132.009-.094.019-.094.028-.188.047-.282a9.694,9.694,0,0,1,.5-1.691c.085-.216-.056.113.038-.094l.085-.2c.056-.132.122-.254.188-.385.132-.254.272-.5.423-.742A8.125,8.125,0,0,1,20.437,20.7a11.558,11.558,0,0,1,1.3-1.24c.1-.085.15-.113.2-.16.113-.085.235-.169.348-.254.282-.188.564-.366.855-.536a13.725,13.725,0,0,1,3.486-1.391,18.121,18.121,0,0,1,3.824-.536,21.207,21.207,0,0,1,3.815.179,17.1,17.1,0,0,1,3.8.987,14.075,14.075,0,0,1,1.7.827c.244.141.479.291.714.451.122.085.235.16.348.244a2.064,2.064,0,0,1,.169.132c-.075-.056.122.094.141.113a10.17,10.17,0,0,1,2.481,2.875,7.81,7.81,0,0,1,.451.883s.094.216.038.094c.038.085.075.179.1.263.056.15.113.31.16.47a8.038,8.038,0,0,1,.366,1.823.7.7,0,0,0,1.391,0,10.521,10.521,0,0,0-3.27-6.718A14.372,14.372,0,0,0,35.6,15.593a21.97,21.97,0,0,0-8.4-.028,14.182,14.182,0,0,0-7.226,3.571,10.671,10.671,0,0,0-3.3,6.737c-.019.31-.028.611-.019.921a.7.7,0,0,0,1.391,0h0Z" transform="translate(-13.878 -12.232)" fill="#231f20"/>
      <path id="Trazado_4419" data-name="Trazado 4419" d="M29.831,15.319v-.263c0-.019.028-.216,0-.066a3.239,3.239,0,0,1,.113-.432c-.047.132.019-.038.038-.066.038-.075.085-.15.132-.226.038-.056.075-.113.113-.16-.085.1.085-.085.1-.1a1.737,1.737,0,0,1,1.221-.573,1.388,1.388,0,0,1,.2.009c-.15-.009.1.019.132.028l.188.056a.652.652,0,0,1,.122.047c-.056-.028-.066-.028-.019,0a2.777,2.777,0,0,1,.357.216c.066.047.066.047.009,0a.847.847,0,0,1,.094.085l.141.141c.019.019.179.216.094.1.038.056.075.1.113.16l.113.2c.019.028.028.056.047.085-.028-.066-.028-.066,0,.009a2.249,2.249,0,0,1,.113.432c-.019-.122,0,.028,0,.066v.263a.694.694,0,0,0,.7.7.712.712,0,0,0,.7-.7,3.222,3.222,0,0,0-2.03-3.082,3.142,3.142,0,0,0-4.162,3.073.7.7,0,0,0,1.391,0h0Z" transform="translate(-14.59 -12.043)" fill="#231f20"/>
      <path id="Trazado_4420" data-name="Trazado 4420" d="M39.807,21.1a8.977,8.977,0,0,1,2.2,2.462.723.723,0,0,0,.958.254.712.712,0,0,0,.254-.958,10.253,10.253,0,0,0-2.424-2.744.715.715,0,0,0-.987,0,.7.7,0,0,0,0,.987h0Z" transform="translate(-15.263 -12.518)" fill="#231f20"/>
    </g>
  </g>
</svg>
