<svg xmlns="http://www.w3.org/2000/svg" width="26.646" height="26.646" viewBox="0 0 26.646 26.646">
  <path id="meat-_icon_black" data-name="meat- icon black" d="M88.657,71.574a2.216,2.216,0,0,0,1.481-.678,2.331,2.331,0,0,0-.2-3.274,2.625,2.625,0,0,0-1.642-.776,2.354,2.354,0,0,0-.384,0,2.355,2.355,0,0,0,0-.384,2.625,2.625,0,0,0-.776-1.642,2.331,2.331,0,0,0-3.274-.2,2.061,2.061,0,0,0-.306,2.706l-1.612,1.609A22.638,22.638,0,0,0,79,66.795c-1.772-1.053-2.992-1.267-3.622-.636a.5.5,0,0,0-.054.062L65.977,75.53c-.616.616-.39,1.823.672,3.59a23.168,23.168,0,0,0,2.18,2.974.48.48,0,0,0-.122.086l-1.344,1.344a2.12,2.12,0,0,0-3.283,1.939,2.625,2.625,0,0,0,.776,1.642,2.741,2.741,0,0,0,1.606.809,2.242,2.242,0,0,0,.4.012,2.365,2.365,0,0,0,0,.384,2.662,2.662,0,0,0,.794,1.6,2.625,2.625,0,0,0,1.642.776c.062.006.122.006.181.006a2.028,2.028,0,0,0,1.451-.583,2.061,2.061,0,0,0,.306-2.706l1.344-1.344a.45.45,0,0,0,.074-.1,23.461,23.461,0,0,0,3.215,2.376,5.73,5.73,0,0,0,2.671.99,1.288,1.288,0,0,0,.952-.354l9.395-9.374c.616-.616.39-1.82-.672-3.587A23.64,23.64,0,0,0,85.831,72.8l1.591-1.588A2.083,2.083,0,0,0,88.657,71.574ZM72.529,69.644ZM71.91,85.379,70.26,87.03a.472.472,0,0,0,0,.672,1.137,1.137,0,0,1,0,1.728,1.109,1.109,0,0,1-.886.3,1.677,1.677,0,0,1-1.041-.5,1.311,1.311,0,0,1-.235-1.856.476.476,0,0,0-.675-.672,1.01,1.01,0,0,1-.851.268,1.8,1.8,0,0,1-1.044-.538,1.653,1.653,0,0,1-.5-1.041,1.109,1.109,0,0,1,.3-.886,1.137,1.137,0,0,1,1.728,0,.476.476,0,0,0,.675,0l1.651-1.651a.368.368,0,0,0,.054-.065q.638.709,1.344,1.416.589.589,1.184,1.13ZM80.324,87.158ZM82.34,85.477ZM87.4,76.493c.993,1.654.919,2.32.815,2.424l-4.134,4.122a.545.545,0,0,0-.048.039c-.006.006-.517.422-1.588-.41a.477.477,0,1,0-.586.752,3.458,3.458,0,0,0,1.2.639l-.943.94a1.7,1.7,0,0,1-.253-.059,5.239,5.239,0,0,1-1.725-1.065.477.477,0,0,0-.616.729,6.671,6.671,0,0,0,1.823,1.163l-.931.937,0-.012h0a7.184,7.184,0,0,1-2.68-1.576.477.477,0,1,0-.616.729,9.507,9.507,0,0,0,2.546,1.6l-.851.848c-.172.172-.97.1-2.462-.782a26.866,26.866,0,0,1-4.91-3.979,27.284,27.284,0,0,1-3.985-4.9c-.993-1.654-.919-2.32-.815-2.424l4.158-4.143.021-.018c.006-.006.517-.422,1.588.41a.472.472,0,0,0,.666-.083A.478.478,0,0,0,73,71.7a3.526,3.526,0,0,0-1.193-.639l.946-.943a1.5,1.5,0,0,1,.247.059,5.238,5.238,0,0,1,1.725,1.065.482.482,0,0,0,.306.113.464.464,0,0,0,.363-.17.476.476,0,0,0-.057-.672,6.81,6.81,0,0,0-1.817-1.163l.925-.922a7.163,7.163,0,0,1,2.677,1.576.482.482,0,0,0,.306.113.463.463,0,0,0,.363-.17.476.476,0,0,0-.056-.672,9.567,9.567,0,0,0-2.54-1.6l.848-.845.03-.03c.226-.137,1.017-.033,2.43.806a26.866,26.866,0,0,1,4.91,3.979,27.2,27.2,0,0,1,3.994,4.9Zm-.345-6.269L85.2,72.08q-.535-.584-1.112-1.163c-.473-.473-.952-.925-1.427-1.353l1.871-1.871a.472.472,0,0,0,0-.672,1.137,1.137,0,0,1,0-1.728,1.536,1.536,0,0,1,2.126,2.126.476.476,0,1,0,.675.672,1.109,1.109,0,0,1,.886-.3,1.677,1.677,0,0,1,1.041.5,1.387,1.387,0,0,1,.2,1.927,1.263,1.263,0,0,1-.839.4,1.215,1.215,0,0,1-.889-.4.478.478,0,0,0-.336-.14A.484.484,0,0,0,87.06,70.224Z" transform="translate(-64.073 -64.042)" fill="#231f20"/>
</svg>
