<svg xmlns="http://www.w3.org/2000/svg" width="26.72" height="26.72" viewBox="0 0 26.72 26.72">
  <path id="Mofongos_Icon_Black" data-name="Mofongos Icon Black" d="M86.765,94.987H76.488a.514.514,0,0,1-.08-1.022,13.4,13.4,0,0,1-4.24-2.905,13.264,13.264,0,0,1-2.827-4.079l-.009-.022a13.466,13.466,0,0,1-1.066-5.25.515.515,0,0,1,.514-.518H94.472a.512.512,0,0,1,.514.518,13.471,13.471,0,0,1-1.065,5.25c0,.01-.008.019-.012.028a13.68,13.68,0,0,1-2.85,4.074,13.3,13.3,0,0,1-4.214,2.906.513.513,0,0,1-.081,1.021Zm-5.442-1.028h.632a11.8,11.8,0,0,0,8.376-3.625,12.963,12.963,0,0,0,2.291-3.055h-22a12.562,12.562,0,0,0,2.272,3.054,11.919,11.919,0,0,0,8.429,3.626ZM70.151,86.251H93.1a12.387,12.387,0,0,0,.843-4.034H69.308a12.4,12.4,0,0,0,.843,4.034ZM86.765,77a.514.514,0,0,1-.514-.514V71.35a.514.514,0,0,1,1.028,0v5.138a.514.514,0,0,1-.514.514Zm-5.19,0a.514.514,0,0,1-.514-.514V68.78a.514.514,0,0,1,1.028,0v7.708a.514.514,0,0,1-.514.514Zm-5.087,0a.514.514,0,0,1-.514-.514V71.35a.514.514,0,1,1,1.028,0v5.138a.514.514,0,0,1-.514.514Z" transform="translate(-68.266 -68.267)" fill="#231f20"/>
</svg>
