<svg xmlns="http://www.w3.org/2000/svg" width="44.791" height="27.22" viewBox="0 0 44.791 27.22">
  <g id="Salads_Icon_Black" data-name="Salads_Icon Black" transform="translate(-10.18 -19.79)">
    <path id="Trazado_4421" data-name="Trazado 4421" d="M52.72,24.2c-2.03-1.27-4.01-1.44-5.72-.5a4.127,4.127,0,0,0-2.63-1.36,4.263,4.263,0,0,0-3.23,1.37c-.08-.01-.18-.02-.32-.04a3.8,3.8,0,0,0-1.17-2.54,4.07,4.07,0,0,0-2.83-1.09,4.171,4.171,0,0,0-4.04,3.7l-5.33-3.43a.668.668,0,0,0-.96.25,5.766,5.766,0,0,0-.27.56,4.358,4.358,0,0,0-4.75.91,3.9,3.9,0,0,0-.87,4.04h-.87a.936.936,0,0,0-.04-.16,7.552,7.552,0,0,0-3.6-4.2.283.283,0,0,0-.37.1.25.25,0,0,0,.09.35c.06.07.57.79-.45,3.59a11.585,11.585,0,0,0-1.99-.94,14.333,14.333,0,0,0-2.55-.68,1.05,1.05,0,0,0-.13-.02.263.263,0,0,0-.26.25.272.272,0,0,0,.23.28h.03c.12.03.98.41,1.46,3.85a5.95,5.95,0,0,0,2.48,3.92h-.1c-.86,0-1.53.4-1.6.95a7.337,7.337,0,0,0-.05.81c0,2.96,1.99,5.74,5.6,7.81a22.684,22.684,0,0,0,6.16,2.36v2.15a.269.269,0,0,0,.27.27H38.72a.269.269,0,0,0,.27-.27V44.34a23.015,23.015,0,0,0,6.16-2.36c3.61-2.07,5.6-4.85,5.6-7.81a7.338,7.338,0,0,0-.05-.81.921.921,0,0,0-.38-.6,6.455,6.455,0,0,0,3.87-3.46,3.978,3.978,0,0,0-1.46-5.1h0ZM36.81,20.58a3.35,3.35,0,0,1,3.47,3.06,9.708,9.708,0,0,0-1.49.04,2,2,0,0,0-3.89.65,1.748,1.748,0,0,0,.18.85.138.138,0,0,1-.04.03l-1.76-1.13a3.629,3.629,0,0,1,3.53-3.49h0Zm-1.3,4.24a1.523,1.523,0,0,1,1.39-1.98,1.5,1.5,0,0,1,1.35.91c-.12.02-.24.04-.36.07a5.92,5.92,0,0,0-2.38,1.01h0Zm-8.55-3.99a.129.129,0,0,1,.09-.07.2.2,0,0,1,.1.02l7.52,4.84a4.5,4.5,0,0,0-.75,1.34L28.87,23.7a.6.6,0,0,0-.9.34c-.56,1.93.91,5.02,4.33,6.94-.07.08-.13.16-.19.23a2.6,2.6,0,0,0-.68,1.2h-.54a11.493,11.493,0,0,1-4.21-5.52,7.466,7.466,0,0,1,.28-6.07h0Zm6.5,7.93a.5.5,0,0,0-.15-.17.409.409,0,0,0-.34-.06.451.451,0,0,0-.14.82.42.42,0,0,0,.24.07.34.34,0,0,0,.1-.01.318.318,0,0,0,.09-.03,5.71,5.71,0,0,1-.62,1.17c-3.19-1.77-4.64-4.66-4.14-6.36,0-.03.03-.04.04-.05h.05l5.18,3.34c-.03.12-.06.24-.08.37a9.362,9.362,0,0,1-.22.91h0Zm-.47.17a.274.274,0,0,1,.05-.04h.02a.09.09,0,0,1,.05.01.08.08,0,0,1,.03.11h0a.055.055,0,0,1-.05.03c-.02,0-.05,0-.06-.01a.08.08,0,0,1-.03-.11l.14.09L33,28.92h0Zm4.23,2.19a9.326,9.326,0,0,0,2.2,1.3H32.86a25.454,25.454,0,0,1,4.22-1.46.934.934,0,0,0,.13.15h0ZM23,26.09a1.99,1.99,0,0,1-.25-.96,1.877,1.877,0,0,1,2.91-1.57,8.811,8.811,0,0,0,.23,2.53H23Zm3.13.84c.02.05.03.1.05.15a11.946,11.946,0,0,0,3.83,5.34H26.12v-5.5Zm-4.27-4.51a3.8,3.8,0,0,1,4.17-.78,6.694,6.694,0,0,0-.31,1.34,2.462,2.462,0,0,0-1.12-.26,2.4,2.4,0,0,0-2.39,2.41,2.465,2.465,0,0,0,.2.96H21.18a3.376,3.376,0,0,1,.68-3.67h0Zm3.74,4.2v5.8H18.64a7.39,7.39,0,0,0,.08-1.68,6.165,6.165,0,0,0,1.1-4.12h5.77Zm-9.1-4.01a6.59,6.59,0,0,1,2.68,3.46,5.127,5.127,0,0,1-.58,3.83,5.814,5.814,0,0,0-.93-2.08,7.526,7.526,0,0,0-1.85-1.76,7.8,7.8,0,0,0,.68-3.45Zm-3.83,5.82a9.164,9.164,0,0,0-1.05-3.58c1.45.35,4.16,1.25,5.61,3.27a5.522,5.522,0,0,1,.87,4.29h-.82c-.58-3.62-2.57-4.62-2.66-4.66a.268.268,0,0,0-.24.48,3.42,3.42,0,0,1,1.01.91,7.061,7.061,0,0,1,1.34,3.27h-.77c-.95-.1-2.97-1.72-3.29-3.99h0Zm.78,5.01c.03-.23.48-.48,1.07-.48H49.07c.6,0,1.05.25,1.07.48a6.272,6.272,0,0,1,.05.74,5.14,5.14,0,0,1-.07.88H13.47a6.522,6.522,0,0,1-.07-.88,6,6,0,0,1,.05-.74h0Zm24.99,12.8H25.16V44.48a32.294,32.294,0,0,0,13.28,0v1.76ZM31.8,44.63c-9.3,0-17.01-3.94-18.23-9.03H50.04c-1.22,5.09-8.93,9.03-18.23,9.03h0ZM53.7,29.08a5.534,5.534,0,0,1-4.62,3.34H40.92a11.322,11.322,0,0,1-3.24-1.61c1.96-.49,4.07-.89,6-1.2a.669.669,0,0,0,.14.19,4.739,4.739,0,0,0,3.35,1.77h.11a.255.255,0,0,0,.25-.28.261.261,0,0,0-.28-.25,4.494,4.494,0,0,1-2.98-1.53c3.33-.52,5.96-.77,6.02-.78a.262.262,0,0,0,.24-.29.256.256,0,0,0-.29-.24c-.03,0-2.73.26-6.11.79a4.162,4.162,0,0,1,3-2.59.269.269,0,1,0-.09-.53,4.693,4.693,0,0,0-3.42,2.94.9.9,0,0,0-.07.27c-.26.04-.53.09-.8.13q-3,.51-5.32,1.1a4.577,4.577,0,0,1,2.58-3.22.269.269,0,0,0-.17-.51,5.088,5.088,0,0,0-2.93,3.61,1.153,1.153,0,0,0-.03.26,21.89,21.89,0,0,0-4.87,1.79,3.444,3.444,0,0,1,.48-.68,7,7,0,0,0,1.68-3.6,4.376,4.376,0,0,1,3.78-3.61,9.372,9.372,0,0,1,3.2-.07.278.278,0,0,0,.23-.07,3.841,3.841,0,0,1,2.91-1.31,3.72,3.72,0,0,1,2.4,1.33.265.265,0,0,0,.35.07c1.6-.97,3.4-.84,5.36.38a3.437,3.437,0,0,1,1.27,4.41Z" fill="#231f20" stroke="#231f20" stroke-miterlimit="10" stroke-width="0.5"/>
    <path id="Trazado_4422" data-name="Trazado 4422" d="M31.3,26.91a.409.409,0,0,0-.34-.06.451.451,0,0,0-.14.82.42.42,0,0,0,.24.07.34.34,0,0,0,.1-.01.447.447,0,0,0,.28-.2h0A.451.451,0,0,0,31.3,26.91Zm-.23.46s-.05,0-.06-.01a.08.08,0,0,1-.03-.11l.14.09s-.03.03-.05.03Zm.05-.04h0l-.14-.08a.1.1,0,0,1,.05-.04h.02a.09.09,0,0,1,.05.01.08.08,0,0,1,.03.11h0Z" fill="#231f20" stroke="#231f20" stroke-miterlimit="10" stroke-width="0.5"/>
    <path id="Trazado_4423" data-name="Trazado 4423" d="M28.34,41.81a13.949,13.949,0,0,1-6.05-1.51.268.268,0,1,0-.24.48,14.686,14.686,0,0,0,6.28,1.57h0a.281.281,0,0,0,.27-.26.261.261,0,0,0-.26-.27h0Z" fill="#231f20" stroke="#231f20" stroke-miterlimit="10" stroke-width="0.5"/>
    <path id="Trazado_4424" data-name="Trazado 4424" d="M20.36,39.12c-.18-.13-.35-.26-.52-.39a.271.271,0,0,0-.33.43c.18.14.36.27.54.4a.3.3,0,0,0,.16.05.279.279,0,0,0,.22-.11.259.259,0,0,0-.06-.37Z" fill="#231f20" stroke="#231f20" stroke-miterlimit="10" stroke-width="0.5"/>
  </g>
</svg>
