<svg xmlns="http://www.w3.org/2000/svg" width="29.818" height="25.148" viewBox="0 0 29.818 25.148">
  <g id="Sides_order_icon_black" data-name="Sides order icon black" transform="translate(-6080 1099)">
    <path id="Trazado_4555" data-name="Trazado 4555" d="M51.682,332.163c-5.838,0-10.882-3.271-12.074-8.177a.9.9,0,0,1,.241-.839,1.082,1.082,0,0,1,1-.294l.078.017.071.037a30.421,30.421,0,0,0,6.678,2.679,13.165,13.165,0,0,0,5.235.327c2.9-.45,5.574-2.047,8.94-5.341l.027-.027,1.663-1.256h0a1.478,1.478,0,0,1,1.517-.159,1.171,1.171,0,0,1,.69,1.03A10.516,10.516,0,0,1,62.62,327.7a14.941,14.941,0,0,1-8.176,4.225A16,16,0,0,1,51.682,332.163Zm-10.768-7.952a9.187,9.187,0,0,0,4.62,5.283,14.182,14.182,0,0,0,16.223-2.629,9.337,9.337,0,0,0,2.793-6.65.275.275,0,0,0-.287.029h0l-1.6,1.21c-3.545,3.464-6.408,5.152-9.566,5.642a14.331,14.331,0,0,1-5.706-.348A30.642,30.642,0,0,1,40.913,324.211ZM63.9,319.766h0Z" transform="translate(6041.107 -1412.04)" fill="#231f20"/>
    <path id="Trazado_4556" data-name="Trazado 4556" d="M60.917,255.824a.743.743,0,0,1,1.407-.251,14.007,14.007,0,1,1-25.74,10.981.451.451,0,0,1,.5-.594h0c10.534,4.6,15.721,3.728,21.344-2.856a10.074,10.074,0,0,0,2.324-5.582Z" transform="translate(6044.043 -1350.116)" fill="#fff"/>
    <path id="Trazado_4557" data-name="Trazado 4557" d="M30.276,256.856a14.62,14.62,0,0,1-13.672-9.5,1.028,1.028,0,0,1,.173-1.021,1.06,1.06,0,0,1,.985-.374l.075.012.069.03c4.416,1.926,7.759,2.831,10.55,2.831a11.766,11.766,0,0,0,1.64-.111,10.571,10.571,0,0,0,4.362-1.66,19.416,19.416,0,0,0,4.1-3.757,9.422,9.422,0,0,0,2.184-5.251l.165-1.7a1.342,1.342,0,0,1,2.544-.45,14.7,14.7,0,0,1,1.446,6.234,14.625,14.625,0,0,1-14.617,14.714Zm-12.412-9.566a13.413,13.413,0,0,0,21.45,4.872,13.545,13.545,0,0,0,3.257-4.55,13.3,13.3,0,0,0,1.123-5.461,13.512,13.512,0,0,0-1.33-5.73.122.122,0,0,0-.149-.074.129.129,0,0,0-.12.125l-.165,1.7a10.615,10.615,0,0,1-2.465,5.913c-3.042,3.562-5.881,5.358-9.2,5.825C27,250.367,23.166,249.559,17.865,247.291Z" transform="translate(6063.461 -1330.708)" fill="#231f20"/>
    <path id="Trazado_4558" data-name="Trazado 4558" d="M477.938,859.731q-.909.224-1.942.385" transform="translate(5617.767 -1936.583)" fill="#fff"/>
    <path id="Trazado_4559" data-name="Trazado 4559" d="M456.591,841.309a.6.6,0,0,1-.09-1.191c.654-.1,1.29-.226,1.89-.374a.6.6,0,1,1,.286,1.163c-.634.156-1.305.289-1.994.4A.608.608,0,0,1,456.591,841.309Z" transform="translate(5637.17 -1917.178)" fill="#231f20"/>
    <path id="Trazado_4560" data-name="Trazado 4560" d="M632.889,645.888a12.4,12.4,0,0,1-5.655,5.17" transform="translate(5471.059 -1729.146)" fill="#fff"/>
    <path id="Trazado_4561" data-name="Trazado 4561" d="M607.829,632.269a.6.6,0,0,1-.246-1.146,11.9,11.9,0,0,0,4.077-3.065,10.183,10.183,0,0,0,1.288-1.828.6.6,0,0,1,1.071.537,11.09,11.09,0,0,1-1.425,2.042,13.1,13.1,0,0,1-4.521,3.407A.6.6,0,0,1,607.829,632.269Z" transform="translate(5490.464 -1709.757)" fill="#231f20"/>
    <path id="Trazado_4562" data-name="Trazado 4562" d="M813.585,140.416a3.853,3.853,0,0,0,2.844.121.844.844,0,0,1,1.092.945l-.336,2.025a.84.84,0,0,1-.6.677,4.7,4.7,0,0,1-4.139-.7.819.819,0,0,1-.29-.788l.271-1.635A.841.841,0,0,1,813.585,140.416Z" transform="translate(5291.686 -1238.748)" fill="#fff"/>
    <path id="Trazado_4563" data-name="Trazado 4563" d="M795.73,125.573a4.955,4.955,0,0,1-3.059-1.021,1.41,1.41,0,0,1-.518-1.362l.271-1.635a1.448,1.448,0,0,1,.745-1.044,1.407,1.407,0,0,1,1.244-.053,3.236,3.236,0,0,0,2.411.1,1.417,1.417,0,0,1,1.382.267,1.44,1.44,0,0,1,.493,1.343l-.336,2.025a1.445,1.445,0,0,1-1.03,1.156A6.047,6.047,0,0,1,795.73,125.573Zm-1.884-4.036a.226.226,0,0,0-.107.029.259.259,0,0,0-.133.186l-.271,1.635a.229.229,0,0,0,.062.213,4.093,4.093,0,0,0,3.615.6.24.24,0,0,0,.169-.2l.336-2.025a.25.25,0,0,0-.087-.234.224.224,0,0,0-.222-.045,4.46,4.46,0,0,1-3.278-.14h0A.206.206,0,0,0,793.846,121.537Z" transform="translate(5311.099 -1219.338)" fill="#231f20"/>
    <path id="Trazado_4564" data-name="Trazado 4564" d="M930.21,277.53a3.718,3.718,0,0,0-.849,2.546" transform="translate(5177.981 -1371.822)" fill="#fff"/>
    <path id="Trazado_4565" data-name="Trazado 4565" d="M909.96,266.957a.6.6,0,0,1-.6-.6,4.317,4.317,0,0,1,1.024-2.97l.847.847,0,0a3.156,3.156,0,0,0-.678,2.127A.6.6,0,0,1,909.96,266.957Z" transform="translate(5197.382 -1358.103)" fill="#231f20"/>
    <path id="Trazado_4566" data-name="Trazado 4566" d="M816.869,251.741a3.718,3.718,0,0,1-.849-2.546" transform="translate(5287.928 -1344.335)" fill="#fff"/>
    <path id="Trazado_4567" data-name="Trazado 4567" d="M797.044,232.764a4.316,4.316,0,0,1-1.024-2.97.6.6,0,1,1,1.2,0,3.156,3.156,0,0,0,.678,2.127l0,0Z" transform="translate(5307.329 -1324.934)" fill="#231f20"/>
  </g>
</svg>
