<svg xmlns="http://www.w3.org/2000/svg" width="35.176" height="23.04" viewBox="0 0 35.176 23.04">
  <g id="Soup_icon_black" data-name="Soup icon black" transform="translate(-6146 1984.04)">
    <g id="Grupo_1418" data-name="Grupo 1418" transform="translate(6125.738 -2005.62)">
      <path id="Trazado_4390" data-name="Trazado 4390" d="M23.43,26.17a.764.764,0,0,0-.67-.14,2.656,2.656,0,0,1-1.19-.01.817.817,0,0,0-1.01.54.841.841,0,0,0,.48,1.05,2.6,2.6,0,0,0,1,.22c.12,0,.23,0,.35-.01a1.552,1.552,0,0,0,1.06-.58.773.773,0,0,0-.01-1.06Zm-.33.72a.926.926,0,0,1-.34.31,1.508,1.508,0,0,1-1.47-.01.361.361,0,0,1-.23-.47.35.35,0,0,1,.48-.21,1.61,1.61,0,0,0,.65.1.908.908,0,0,0,.33-.04.7.7,0,0,1,.47-.06.2.2,0,0,1,.12.13.334.334,0,0,1-.02.26Z" fill="#231f20"/>
      <path id="Trazado_4391" data-name="Trazado 4391" d="M22.11,28.08h-.08a2.651,2.651,0,0,1-1.1-.25,1.1,1.1,0,0,1-.61-1.36,1.074,1.074,0,0,1,1.31-.71,2.319,2.319,0,0,0,1.08.01,1.04,1.04,0,0,1,.88.19h0a1.015,1.015,0,0,1,.05,1.41,1.731,1.731,0,0,1-1.23.68c-.1,0-.2.01-.3.01Zm-.95-1.82a.536.536,0,0,0-.36.37.587.587,0,0,0,.3.72.611.611,0,0,1,.06-1.09Zm.23.46a.088.088,0,0,0-.09.08c-.02.04-.04.09.11.16a1.249,1.249,0,0,0,1.24.02.635.635,0,0,0,.24-.21h0v-.05a1.645,1.645,0,0,0-.23.07,1.1,1.1,0,0,1-.41.06,2.334,2.334,0,0,1-.78-.11.2.2,0,0,0-.07-.01Zm1.72-.44a.437.437,0,0,1,.25.28.492.492,0,0,1,.02.27.421.421,0,0,0-.11-.46h0a.88.88,0,0,0-.16-.09Zm-1.32.04a1.7,1.7,0,0,0,.4.04.684.684,0,0,0,.22-.02,3.216,3.216,0,0,1-.62-.02Z" fill="#231f20"/>
    </g>
    <g id="Grupo_1419" data-name="Grupo 1419" transform="translate(6113.689 -2005.62)">
      <path id="Trazado_4392" data-name="Trazado 4392" d="M32.86,27.87a.689.689,0,0,0,.92-.02,2.343,2.343,0,0,0,.88-1.7c-.01-.66-.28-.98-.8-1.03a.8.8,0,0,0-.89.65,3.815,3.815,0,0,1-.35,1.25.674.674,0,0,0,.24.85Zm.29-.83a2.341,2.341,0,0,0,.19-.46,2.852,2.852,0,0,0,.11-.65.31.31,0,0,1,.37-.29c.25.02.33.23.34.45v.21a1.722,1.722,0,0,1-.39.99c-.14.16-.45.36-.64.14A.3.3,0,0,1,33.15,27.04Z" fill="#231f20"/>
      <path id="Trazado_4393" data-name="Trazado 4393" d="M33.31,28.29a1.018,1.018,0,0,1-.6-.21h0a.916.916,0,0,1-.31-1.15,3.658,3.658,0,0,0,.33-1.17.886.886,0,0,1,.34-.62,1.149,1.149,0,0,1,.83-.26c.66.07,1.01.5,1.02,1.27a2.606,2.606,0,0,1-.97,1.89,1.008,1.008,0,0,1-.63.25Zm-.3-.61a.451.451,0,0,0,.39.1h-.06a.508.508,0,0,1-.39-.19.52.52,0,0,1-.12-.39.434.434,0,0,0,.18.47h0Zm.35-.51a.244.244,0,0,0-.04.1c.04.02.17-.04.26-.14a1.356,1.356,0,0,0,.33-.84v-.18c-.01-.21-.07-.22-.11-.22s-.07,0-.08.02a3.358,3.358,0,0,1-.13.74,1.862,1.862,0,0,1-.22.51ZM33.19,26a3.673,3.673,0,0,1-.23.86,1.958,1.958,0,0,0,.14-.35A2.277,2.277,0,0,0,33.19,26Zm.58-.6h.06c.16.01.53.11.57.68v.07h0c-.01-.6-.24-.75-.58-.78a.655.655,0,0,0-.46.15.414.414,0,0,0-.16.28v.01a.574.574,0,0,1,.16-.27.628.628,0,0,1,.4-.14Z" fill="#231f20"/>
    </g>
    <g id="Grupo_1420" data-name="Grupo 1420" transform="translate(6103.98 -2005.62)">
      <path id="Trazado_4394" data-name="Trazado 4394" d="M43.63,27.74h.13a1.564,1.564,0,0,0,1.29-.78.894.894,0,0,0-.02-.95.8.8,0,0,0-.64-.23c-.27,0-.42.16-.66.25-.32.12-.66-.03-.98.08a.727.727,0,0,0-.48.62c-.08.72.74.99,1.35,1Zm-.83-1.11a.259.259,0,0,1,.14-.11,2.9,2.9,0,0,1,.66-.03,1.482,1.482,0,0,0,.5-.17c.13-.07.25-.15.4-.09a.361.361,0,0,1,.21.34.758.758,0,0,1-.29.47,1.015,1.015,0,0,1-.54.2,2.613,2.613,0,0,1-.28,0,1.412,1.412,0,0,1-.66-.2.341.341,0,0,1-.15-.42Z" fill="#231f20"/>
      <path id="Trazado_4395" data-name="Trazado 4395" d="M43.65,27.99h-.03a1.942,1.942,0,0,1-1.36-.51.93.93,0,0,1-.23-.77.954.954,0,0,1,.64-.83,1.368,1.368,0,0,1,.59-.06,1.19,1.19,0,0,0,.39-.03c.07-.03.13-.06.2-.09a1.191,1.191,0,0,1,.55-.18,1.05,1.05,0,0,1,.83.32,1.147,1.147,0,0,1,.05,1.24,1.812,1.812,0,0,1-1.5.91h-.12Zm-1.12-1.13a.436.436,0,0,0,.11.29,1.074,1.074,0,0,0,.44.26,1.465,1.465,0,0,1-.28-.14.63.63,0,0,1-.28-.41Zm.49-.1a.213.213,0,0,0,.07.09,1.143,1.143,0,0,0,.54.16h.24a.876.876,0,0,0,.41-.15.529.529,0,0,0,.2-.29.094.094,0,0,0-.05-.09c-.03,0-.04,0-.15.06a1.829,1.829,0,0,1-.63.22c-.1.01-.21,0-.32,0a1.331,1.331,0,0,0-.29.01h0Zm-.22-.13.22.12h0Zm1.96-.52a.483.483,0,0,1,.15.22.424.424,0,0,0-.06-.15A.218.218,0,0,0,44.76,26.11Z" fill="#231f20"/>
    </g>
    <g id="Grupo_1421" data-name="Grupo 1421" transform="translate(6121.581 -2005.62)">
      <path id="Trazado_4396" data-name="Trazado 4396" d="M26.77,26.83a2.668,2.668,0,0,0-.57-.94,1.316,1.316,0,0,0-1.03-.45c-.37,0-.51.16-.5.58a1.907,1.907,0,0,0,.05.26,2.436,2.436,0,0,0,.7,1.06,2.274,2.274,0,0,0,1.07.57.379.379,0,0,0,.33-.02c.12-.1.08-.37.07-.51a2.571,2.571,0,0,0-.12-.55Zm-1.53-.86c.6.06,1,.52,1.14,1.33A1.374,1.374,0,0,1,25.24,25.97Z" fill="#231f20"/>
      <path id="Trazado_4397" data-name="Trazado 4397" d="M26.66,28.19a1.294,1.294,0,0,1-.24-.03,2.613,2.613,0,0,1-1.18-.64,2.481,2.481,0,0,1-.77-1.18c-.02-.09-.04-.17-.05-.24v-.08c-.02-.55.23-.82.74-.83a1.571,1.571,0,0,1,1.22.53A2.917,2.917,0,0,1,27,26.74h0a2.66,2.66,0,0,1,.13.61c.02.23.05.55-.16.73a.5.5,0,0,1-.32.11Zm-.88-.87a2.292,2.292,0,0,0,.76.35.527.527,0,0,0,.13.02v-.05l-.36-.11a2.555,2.555,0,0,1-.53-.22Zm-.24-1a1.015,1.015,0,0,0,.46.55A1.026,1.026,0,0,0,25.54,26.32Zm-.54-.6c-.06.03-.08.11-.08.3a1.416,1.416,0,0,0,.04.2,1.435,1.435,0,0,0,.13.32,1.367,1.367,0,0,1-.09-.57Zm.06-.02.22.02a1.32,1.32,0,0,1,.63.22.976.976,0,0,0-.72-.26h-.13Z" fill="#231f20"/>
    </g>
    <g id="Grupo_1422" data-name="Grupo 1422" transform="translate(6108.218 -2005.62)">
      <path id="Trazado_4398" data-name="Trazado 4398" d="M38.82,28.95a2.13,2.13,0,0,0,.27-.02,2.083,2.083,0,0,0,1.14-.58,2.434,2.434,0,0,0,.2-.25.986.986,0,0,0-.19-1.37.664.664,0,0,0-.84-.02c-.19.17-.27.43-.45.61a1.585,1.585,0,0,1-.52.33.754.754,0,0,0-.34.99.769.769,0,0,0,.72.32Zm.1-1.07a1.306,1.306,0,0,0,.67-.64c.12-.25.37-.23.47.02a.7.7,0,0,1,.02.45,1.333,1.333,0,0,1-.82.72c-.18.06-.6.17-.71-.06-.13-.25.19-.41.36-.5Z" fill="#231f20"/>
      <path id="Trazado_4399" data-name="Trazado 4399" d="M38.8,29.2a.943.943,0,0,1-.92-.45,1.03,1.03,0,0,1-.03-.81.9.9,0,0,1,.5-.53,1.231,1.231,0,0,0,.43-.28,1.6,1.6,0,0,0,.18-.25,1.474,1.474,0,0,1,.27-.36.918.918,0,0,1,1.16,0,1.229,1.229,0,0,1,.24,1.71,2.011,2.011,0,0,1-.23.28,2.328,2.328,0,0,1-1.28.66,1.482,1.482,0,0,1-.31.03h-.02Zm-.52-.94a.549.549,0,0,0,.04.26.278.278,0,0,0,.15.13.458.458,0,0,1-.13-.16A.465.465,0,0,1,38.28,28.26Zm1.56-.9a1.85,1.85,0,0,1-.81.75h0c-.21.1-.25.16-.25.17a1.825,1.825,0,0,0,.41-.08,1.087,1.087,0,0,0,.66-.56.5.5,0,0,0,0-.27Zm.47-.18a.956.956,0,0,1,.04.53A.743.743,0,0,0,40.31,27.18Zm-.52-.37a.314.314,0,0,0-.21.07l-.01.01a.581.581,0,0,1,.25-.09h-.03Z" fill="#231f20"/>
    </g>
    <g id="Grupo_1423" data-name="Grupo 1423" transform="translate(6111.377 -2005.62)">
      <path id="Trazado_4400" data-name="Trazado 4400" d="M35.79,28.58a1.06,1.06,0,0,0,.87.07.616.616,0,0,0,.42-.72.635.635,0,0,0-.06-.18.807.807,0,0,0-.33-.33,1.219,1.219,0,0,1-.43-.38c-.07-.12-.13-.26-.21-.37a.6.6,0,0,0-.76-.17.632.632,0,0,0-.4.68,1.765,1.765,0,0,0,.91,1.41Zm-.35-1.54c.04-.08.15-.15.23-.11.12.05.14.25.19.35a.855.855,0,0,0,.33.35c.13.08.35.13.43.27a.266.266,0,0,1,.03.12.09.09,0,0,1-.01.05.281.281,0,0,1-.24.13.933.933,0,0,1-.62-.23,1.259,1.259,0,0,1-.36-.62A.415.415,0,0,1,35.44,27.04Z" fill="#231f20"/>
      <path id="Trazado_4401" data-name="Trazado 4401" d="M36.3,28.97a1.4,1.4,0,0,1-.63-.16h0a2.016,2.016,0,0,1-1.04-1.6.912.912,0,0,1,1.61-.68,1.35,1.35,0,0,1,.15.26.827.827,0,0,0,.07.13.763.763,0,0,0,.28.25l.08.05a1.157,1.157,0,0,1,.42.43.754.754,0,0,1,.08.24.871.871,0,0,1-.58,1.01,1.349,1.349,0,0,1-.44.07Zm-.39-.6a.835.835,0,0,0,.6.08.375.375,0,0,0-.1.01,1.2,1.2,0,0,1-.61-.15,1.09,1.09,0,0,0,.11.06Zm-.07-.7a.911.911,0,0,0,.11.12.73.73,0,0,0,.29.15c-.06-.03-.12-.06-.17-.09a1.3,1.3,0,0,1-.23-.18Zm-.33-.98a.786.786,0,0,0-.12.04.385.385,0,0,0-.25.42.675.675,0,0,0,.02.14.632.632,0,0,1,.07-.36h0a.457.457,0,0,1,.28-.23Z" fill="#231f20"/>
    </g>
    <g id="Grupo_1424" data-name="Grupo 1424" transform="translate(6131.053 -2005.62)">
      <path id="Trazado_4402" data-name="Trazado 4402" d="M49.84,26.02a1.445,1.445,0,0,0-.27-.7,4.5,4.5,0,0,0-2.02-1.3,32.657,32.657,0,0,0-9.67-1.98c-2.06-.13-4.12-.15-6.18-.2H30.64c-1.7.03-3.4.19-5.09.32a25.7,25.7,0,0,0-6.82,1.45,12.772,12.772,0,0,0-3.03,1.5c-.65.46-.52,1.07-.49,1.77.02.45.04.9.08,1.35a20.022,20.022,0,0,0,.39,2.56,21.179,21.179,0,0,0,2.29,6.3,12.777,12.777,0,0,0,2.45,2.98,15.493,15.493,0,0,0,4.15,2.62,20.343,20.343,0,0,0,5.08,1.44,17.074,17.074,0,0,0,3.6.23,15.875,15.875,0,0,0,3.24-.4,17.276,17.276,0,0,0,4.68-1.65,12.863,12.863,0,0,0,2.82-1.97,15.471,15.471,0,0,0,2.83-3.88,31.347,31.347,0,0,0,2.91-9.04,4.954,4.954,0,0,0,.11-1.38ZM17.28,24.77a16.341,16.341,0,0,1,2.97-1.12,38.724,38.724,0,0,1,8.63-1.23c1.02-.06,2.05-.08,3.08-.09,2.44,0,4.88.12,7.3.32a28.829,28.829,0,0,1,8.28,1.91,3.549,3.549,0,0,1,1.61,1.07c.45.67-.54,1.14-1.12,1.4-.02-.04-.04-.09-.06-.14a3.865,3.865,0,0,0-2.63-2.06,13.167,13.167,0,0,0-3.36-.42v-.22c0-.19.02-.41-.2-.51s-.37.04-.52.16a2.327,2.327,0,0,0-.53.61c-.57.02-1.15.01-1.72,0a2.5,2.5,0,0,1-.47-.05,1.7,1.7,0,0,1,.01-.23,3.619,3.619,0,0,0-.04-.43c-.09-.44-.32-.54-.66-.26a3.641,3.641,0,0,0-.56.55c-.27-.11-.53-.24-.79-.37a3.019,3.019,0,0,0-.97-.29,4.609,4.609,0,0,0-1.05,0c-.58.06-1.15.16-1.73.25a6.247,6.247,0,0,1-1.14.08,6.108,6.108,0,0,0-.27-.58c-.15-.29-.39-.31-.58-.04a3.1,3.1,0,0,0-.26.47,2.186,2.186,0,0,0-.36-.03,5.968,5.968,0,0,0-.85.06,9.283,9.283,0,0,0-1.65.42,2.015,2.015,0,0,1-.23.07c-.05-.17-.09-.33-.13-.5-.03-.12-.04-.31-.18-.35h-.04c-.13,0-.36.05-.36.22a.471.471,0,0,0,.04.16c.08.2.16.39.24.59a3.451,3.451,0,0,1-1.32-.01,4.115,4.115,0,0,0-2.09.13c-.5.16-1.01.31-1.51.49a5.287,5.287,0,0,1-1.25.29c-.2.02-.41.01-.61.01a5.465,5.465,0,0,0-.7.03,2.865,2.865,0,0,0-2.46,1.75c-.03.08-.06.17-.09.25-.14-.06-.27-.12-.41-.19-.27-.14-.79-.4-.87-.72-.15-.64,1.16-1.18,1.59-1.4ZM27.6,26.52a.4.4,0,0,0,.4.17c.05.06.11.12.17.18a4.867,4.867,0,0,0,.42.35,5.083,5.083,0,0,0,2.7.99,1.379,1.379,0,0,0,.57-.07.351.351,0,0,0,.13-.63,3.629,3.629,0,0,0-.83-.49c-.29-.17-.57-.34-.86-.52-.08-.05-.78-.55-1.11-.78a.488.488,0,0,0-.03-.37,1.359,1.359,0,0,0-1.21-.79.8.8,0,0,0-.36.08.318.318,0,0,0-.03-.09c.14-.04.28-.08.42-.13a5.576,5.576,0,0,1,2.38-.39,1.682,1.682,0,0,0,.01.67,1.439,1.439,0,0,0,.54.88c.35.28.57.24.73-.17a2.45,2.45,0,0,0,.18-.81,2.024,2.024,0,0,0-.04-.43,7.957,7.957,0,0,0,1.74-.21,4.8,4.8,0,0,1,3.44.42.085.085,0,0,1,.05.03,3.182,3.182,0,0,0-.16.32,1.545,1.545,0,0,0,0,1.28c.18.44.44.53.82.27a1.989,1.989,0,0,0,.48-.48,2.192,2.192,0,0,0,.35-.95h.02q1,.075,2.01.06a2.026,2.026,0,0,0-.03.82c.08.48.35.58.73.27a1.934,1.934,0,0,0,.69-1.1,12.194,12.194,0,0,1,3.29.39,3.482,3.482,0,0,1,2.3,1.82c.02.03.03.07.05.1a23.522,23.522,0,0,1-4.81,1.27c-.92.16-1.84.35-2.76.49-1.45.21-2.92.37-4.39.45a41.839,41.839,0,0,1-5.37-.04c-1.8-.13-3.6-.19-5.38-.45-1.19-.17-2.37-.37-3.54-.63a26.3,26.3,0,0,1-3.87-1.03c.04-.1.08-.2.12-.29a2.427,2.427,0,0,1,2.06-1.39,3.5,3.5,0,0,1,.56-.03,6.556,6.556,0,0,0,2.28-.4c.36-.13.74-.24,1.11-.36a3.72,3.72,0,0,1,1.98-.17,4.085,4.085,0,0,0,1.67,0c.04.08.07.16.11.23a1.076,1.076,0,0,0-.15.54,1.813,1.813,0,0,0,.42,1.12Zm1.09-.98a5.671,5.671,0,0,1-.66.53.166.166,0,0,1-.13.05c-.03,0-.05-.02-.07-.05a.219.219,0,0,1-.03-.05,1.055,1.055,0,0,1-.1-.85c.08-.24.4-.2.59-.12a.973.973,0,0,1,.31.22C28.69,25.35,28.8,25.43,28.69,25.54Zm.21.49a2.058,2.058,0,0,0,.3.29c.43.31.86.61,1.31.89a8.294,8.294,0,0,0,.84.43,3.831,3.831,0,0,1-2.47-.84c-.16-.13-.31-.26-.46-.39.16-.13.32-.26.49-.38Zm1.89-1.66a1.813,1.813,0,0,1,.07-.52c.01-.05.19-.45.18-.46a1.734,1.734,0,0,1,.34.87,2.126,2.126,0,0,1-.13.83c-.02.06-.03.1-.03.1a1.308,1.308,0,0,1-.42-.83Zm7.2-.39a1.667,1.667,0,0,1-.63,1.84A1.656,1.656,0,0,1,37.99,23.98Zm2.91,1.3a1.036,1.036,0,0,1,.09-.43,1.538,1.538,0,0,1,.33-.47,1.8,1.8,0,0,1,.2-.19,2.308,2.308,0,0,1-.13.86,2.133,2.133,0,0,1-.46.65,1.161,1.161,0,0,1-.03-.42ZM16.6,32.31q-.195-.735-.36-1.47a41.994,41.994,0,0,0,12.31,2.49,59.776,59.776,0,0,0,10.19-.18,39.734,39.734,0,0,0,6.73-1.44c.51-.15,1.02-.3,1.51-.49s.99-.38,1.49-.57c-.14.51-.29,1.02-.46,1.52-.13.06-.26.11-.39.16a18.84,18.84,0,0,1-1.83.64c-.83.24-1.66.46-2.49.67a39.2,39.2,0,0,1-5.04.93,46.621,46.621,0,0,1-5.15.26,55.384,55.384,0,0,1-10.37-.82,39.5,39.5,0,0,1-6.13-1.7Zm30.1,3.15A12.94,12.94,0,0,1,40.61,42,17.727,17.727,0,0,1,30.3,43.67a18.712,18.712,0,0,1-7.52-2.54,13.133,13.133,0,0,1-4.63-4.85,17.861,17.861,0,0,1-1.38-3.33,42.145,42.145,0,0,0,11.78,2.3,59.776,59.776,0,0,0,10.19-.18,39.734,39.734,0,0,0,6.73-1.44c.51-.15,1.02-.3,1.51-.49.27-.1.53-.2.8-.31-.32.89-.68,1.77-1.09,2.64Zm2.55-8.34c-.16.95-.36,1.89-.59,2.81a7.243,7.243,0,0,1-1.05.5,18.84,18.84,0,0,1-1.83.64c-.83.24-1.66.46-2.49.67a39.2,39.2,0,0,1-5.04.93,46.621,46.621,0,0,1-5.15.26,55.384,55.384,0,0,1-10.37-.82,38.816,38.816,0,0,1-6.6-1.88,25.192,25.192,0,0,1-.37-2.88c0-.12,0-.24-.01-.36a10.387,10.387,0,0,0,2.82,1.17c1.15.33,2.32.6,3.5.82,1,.19,2.01.33,3.02.46,2.1.25,4.21.39,6.33.49a47.338,47.338,0,0,0,5.71-.14,52.266,52.266,0,0,0,6.23-.92,30.588,30.588,0,0,0,3.4-.82,8.3,8.3,0,0,0,2.52-1.13,1.251,1.251,0,0,1-.03.19Z" fill="#231f20"/>
      <path id="Trazado_4403" data-name="Trazado 4403" d="M32.52,44.62a16.46,16.46,0,0,1-2.91-.25,19.831,19.831,0,0,1-5.14-1.46,15.868,15.868,0,0,1-4.22-2.66,13.087,13.087,0,0,1-2.49-3.04,20.78,20.78,0,0,1-2.32-6.37,20.653,20.653,0,0,1-.39-2.59c-.04-.45-.07-.91-.08-1.36v-.27a1.645,1.645,0,0,1,.6-1.72,12.993,12.993,0,0,1,3.08-1.54,26.4,26.4,0,0,1,6.89-1.46l.91-.07c1.38-.11,2.8-.23,4.2-.25h1.07l1.22.03c1.63.03,3.31.07,4.97.17a32.691,32.691,0,0,1,9.74,1.99,4.485,4.485,0,0,1,2.13,1.39,1.866,1.866,0,0,1,.32.81h0a4.5,4.5,0,0,1-.08,1.32l-.02.13a31.309,31.309,0,0,1-2.94,9.12,15.637,15.637,0,0,1-2.88,3.95,12.863,12.863,0,0,1-2.87,2.01,17.372,17.372,0,0,1-4.75,1.68,17.2,17.2,0,0,1-3.3.41c-.26,0-.5.01-.73.01ZM15.43,26.14c0,.14,0,.29.01.46v.28c.03.44.05.89.1,1.33a21.637,21.637,0,0,0,.38,2.53,20.318,20.318,0,0,0,2.27,6.22,12.77,12.77,0,0,0,2.4,2.92,15.308,15.308,0,0,0,4.09,2.58,19.834,19.834,0,0,0,5.02,1.42,16.157,16.157,0,0,0,3.55.23,15.651,15.651,0,0,0,3.15-.38,17.546,17.546,0,0,1-6.13.21,18.713,18.713,0,0,1-7.62-2.58,13.313,13.313,0,0,1-4.71-4.94,17.576,17.576,0,0,1-1.4-3.38l-.15-.48.47.17a42.185,42.185,0,0,0,11.71,2.29,59.764,59.764,0,0,0,10.15-.18,40.041,40.041,0,0,0,6.68-1.43c.54-.16,1.02-.3,1.49-.48l1.3-.5-.18.51a27.889,27.889,0,0,1-1.1,2.66h0a13.924,13.924,0,0,1-4.92,5.95,9.27,9.27,0,0,0,1.81-1.37,15.011,15.011,0,0,0,2.78-3.82,31.285,31.285,0,0,0,2.89-8.97l.02-.14a3.937,3.937,0,0,0,.08-1.17h0a1.284,1.284,0,0,0-.23-.59,2.209,2.209,0,0,0-.51-.5,2.241,2.241,0,0,1,.5.52.823.823,0,0,1,.13.69c-.14.5-.77.83-1.36,1.08l-.47.2a20.342,20.342,0,0,1-3.24.97c.74-.16,1.52-.34,2.26-.58l.16-.05a7.672,7.672,0,0,0,2.28-1.03l.49-.4-.08.62a1.2,1.2,0,0,1-.03.2c-.17.97-.37,1.92-.59,2.83l-.03.1-.09.05a8.027,8.027,0,0,1-1.09.52c-.62.24-1.22.47-1.85.65-.92.26-1.74.48-2.5.67a38.429,38.429,0,0,1-5.07.93,46.987,46.987,0,0,1-5.18.26,56.492,56.492,0,0,1-10.42-.82,40.092,40.092,0,0,1-6.64-1.89l-.13-.05-.03-.14a26.006,26.006,0,0,1-.37-2.91c0-.12-.01-.25-.01-.38v-.47l.39.25a8.838,8.838,0,0,0,2.27.99c-.27-.08-.54-.18-.8-.28l-.22-.09h0l-.25-.11c-.14-.06-.28-.13-.42-.2-.46-.23-.91-.5-1-.89a.292.292,0,0,0-.02-.09Zm1.74,7.21a16.741,16.741,0,0,0,1.21,2.81,12.828,12.828,0,0,0,4.54,4.76,18.235,18.235,0,0,0,7.42,2.51A17.489,17.489,0,0,0,40.5,41.78a12.728,12.728,0,0,0,5.97-6.42h0c.32-.67.62-1.37.89-2.1l-.28.11c-.49.19-.99.34-1.53.5a41.015,41.015,0,0,1-6.77,1.44,59.729,59.729,0,0,1-10.24.19,43.1,43.1,0,0,1-11.37-2.15Zm23.99,8.67c-.15.08-.29.15-.44.22a19.5,19.5,0,0,1-3.15,1.19,13.923,13.923,0,0,0,3.48-1.35C41.09,42.06,41.12,42.04,41.16,42.02ZM16.33,30.07a38.35,38.35,0,0,0,6.42,1.81,55.371,55.371,0,0,0,10.33.81,46,46,0,0,0,5.12-.26,37.535,37.535,0,0,0,5.01-.92c.76-.19,1.57-.41,2.48-.67a18.627,18.627,0,0,0,1.81-.64,6.914,6.914,0,0,0,.93-.43c.18-.75.35-1.52.49-2.32a10.189,10.189,0,0,1-1.94.78l-.16.05a30.633,30.633,0,0,1-3.42.82,52.668,52.668,0,0,1-6.26.92,47.356,47.356,0,0,1-5.75.14c-1.87-.09-4.09-.22-6.35-.5-1.08-.13-2.07-.28-3.04-.46-1.24-.23-2.42-.51-3.52-.83a11.731,11.731,0,0,1-2.49-.95,22.809,22.809,0,0,0,.33,2.6Zm12.01-.55c.67.05,1.33.09,1.95.13H30.2l-1.36-.09-.5-.03Zm11.7-.3h-.02c-.6.09-1.19.16-1.78.23C38.85,29.38,39.46,29.3,40.04,29.22ZM17.76,27.14a26.507,26.507,0,0,0,3.29.86l.3.07c1.05.23,2.17.43,3.53.63,1.32.19,2.68.28,4,.36l1.37.09a41.333,41.333,0,0,0,5.34.04c1.41-.08,2.88-.23,4.36-.45.64-.09,1.28-.21,1.92-.33l.83-.15a24.129,24.129,0,0,0,4.51-1.16,3.215,3.215,0,0,0-2.07-1.54,11.287,11.287,0,0,0-3.03-.38,2.14,2.14,0,0,1-.72,1.04.712.712,0,0,1-.73.2.7.7,0,0,1-.4-.62,2.51,2.51,0,0,1-.02-.61c-.59,0-1.07-.02-1.53-.05a2.216,2.216,0,0,1-.35.83,1.981,1.981,0,0,1-.54.54.812.812,0,0,1-.69.16.8.8,0,0,1-.5-.54,1.858,1.858,0,0,1,0-1.48c.02-.04.03-.07.05-.11a4.586,4.586,0,0,0-3.1-.31,8.8,8.8,0,0,1-1.51.21v.19a2.406,2.406,0,0,1-.2.89.763.763,0,0,1-.45.49.79.79,0,0,1-.67-.22,1.77,1.77,0,0,1-.63-1.03,2.028,2.028,0,0,1-.04-.49,5.381,5.381,0,0,0-1.44.21,1.6,1.6,0,0,1,.76.78.91.91,0,0,1,.07.35l.4.28c.27.19.52.37.57.4.28.18.56.35.85.52a1.965,1.965,0,0,0,.25.13,2.269,2.269,0,0,1,.62.4.638.638,0,0,1,.22.56l.04.02h-.04a.639.639,0,0,1-.43.46,1.844,1.844,0,0,1-.67.09,5.361,5.361,0,0,1-2.83-1.04,4.943,4.943,0,0,1-.44-.36,1.141,1.141,0,0,1-.11-.11.664.664,0,0,1-.48-.26h0a2.028,2.028,0,0,1-.49-1.27,1.542,1.542,0,0,1,.08-.5,4.07,4.07,0,0,1-1.52-.04,3.441,3.441,0,0,0-1.85.16l-.48.15a6.452,6.452,0,0,0-.62.21,6.3,6.3,0,0,1-2.37.41,3.671,3.671,0,0,0-.46.03h-.07a2.189,2.189,0,0,0-1.85,1.24l-.02.05ZM43.53,28.6c-.25.05-.5.09-.74.14l-.83.15c-.58.11-1.16.22-1.75.31,1.13-.17,2.19-.37,3.09-.55a1.846,1.846,0,0,1,.23-.04Zm-24.95-.68h.05a32.69,32.69,0,0,0,3.47.83c.64.12,1.29.22,1.98.32-1.05-.17-1.97-.33-2.83-.52l-.3-.06c-.78-.17-1.58-.34-2.36-.56Zm11.38-.25a5.5,5.5,0,0,0,1.35.29,1.053,1.053,0,0,0,.47-.06h-.44a4.436,4.436,0,0,1-1.38-.23ZM20.04,25.3a2.581,2.581,0,0,0-.49.03,2.634,2.634,0,0,0-2.27,1.6,2.094,2.094,0,0,0-.08.23l-.02.06.14-.34a2.676,2.676,0,0,1,2.27-1.54h.07a4.405,4.405,0,0,1,.52-.03h-.14Zm25.81-.05A3.653,3.653,0,0,1,47.75,27a.37.37,0,0,1,.05.11l.03.07-.03-.07s-.03-.08-.05-.12A3.561,3.561,0,0,0,45.85,25.25Zm-16.56.82a.381.381,0,0,0,.06.05c.4.29.84.59,1.3.88a2.694,2.694,0,0,0,.29.16c-.25-.15-.5-.3-.75-.46-.05-.03-.31-.22-.59-.41Zm-.48.35c.07.06.15.12.23.18a3.255,3.255,0,0,0,.88.51c-.3-.2-.58-.4-.86-.59a.935.935,0,0,1-.18-.16.3.3,0,0,1-.07.05ZM17.4,24.98l-.18.09c-.37.18-1.37.66-1.28,1.03.03.14.28.33.74.56.05.02.1.05.15.07h0a3.088,3.088,0,0,1,2.66-1.9,4.813,4.813,0,0,1,.74-.03h.58A5.336,5.336,0,0,0,22,24.53c.33-.11.66-.22.99-.32l.52-.17a4.272,4.272,0,0,1,2.21-.14,3.079,3.079,0,0,0,.91.05c-.04-.1-.08-.2-.12-.29a1.042,1.042,0,0,1-.06-.24.416.416,0,0,1,.13-.31.7.7,0,0,1,.5-.16l.1.02a.526.526,0,0,1,.34.47v.06a1.435,1.435,0,0,1,.08.25,9.153,9.153,0,0,1,1.67-.43,5.975,5.975,0,0,1,.89-.07,1.477,1.477,0,0,1,.21.01,3.13,3.13,0,0,1,.21-.34.542.542,0,0,1,1,.07,4.538,4.538,0,0,1,.21.45,6.623,6.623,0,0,0,.94-.08l.46-.07c.43-.07.85-.13,1.28-.18a5.057,5.057,0,0,1,1.1,0,3.374,3.374,0,0,1,1.05.31c.2.1.41.2.62.29a3.942,3.942,0,0,1,.47-.44.686.686,0,0,1,.66-.18.714.714,0,0,1,.4.59c.02.12.03.24.04.35v.15c.07,0,.14.01.21.01.5.01,1.04.02,1.57,0a2.384,2.384,0,0,1,.51-.55.72.72,0,0,1,.79-.2.672.672,0,0,1,.34.69h0a14.685,14.685,0,0,1,3.16.44,4.164,4.164,0,0,1,2.75,2.11c.32-.15.78-.4.86-.66a.281.281,0,0,0-.06-.27,3.249,3.249,0,0,0-1.49-.98,28.848,28.848,0,0,0-8.21-1.89c-2.65-.22-5.03-.33-7.28-.32-1.04,0-2.08.03-3.06.09a38.679,38.679,0,0,0-8.58,1.23,15.719,15.719,0,0,0-2.92,1.11h0Zm10.39,1.36s.12.11.16.1l.1-.02-.02-.02.32-.25.06-.04a.592.592,0,0,1-.06.04l-.16.12a.435.435,0,0,1-.32.1.309.309,0,0,1-.08-.02h0Zm9.51-.18a.424.424,0,0,0,.24-.1,1.5,1.5,0,0,0,.41-.42,1.479,1.479,0,0,0,.23-.49,1.765,1.765,0,0,1-.69.87l-.2.13Zm-.14-1.48s-.04.09-.06.13a1.3,1.3,0,0,0,0,1.09,1.093,1.093,0,0,0,.1.19l-.07-.18a1.615,1.615,0,0,1,.03-1.22Zm-8.18.83a.391.391,0,0,1-.1.19h0a1.288,1.288,0,0,1-.17.16.176.176,0,0,0,.05-.04l.18-.14h.01l.03-.07A.148.148,0,0,0,28.98,25.51Zm-13.02-.29-.11.08a.879.879,0,0,0-.37.52A1.486,1.486,0,0,1,15.96,25.22Zm12.05.01s-.06,0-.07.01a.87.87,0,0,0,.03.55l.08-.06c.13-.1.26-.19.38-.3a.9.9,0,0,0-.24-.17.421.421,0,0,0-.18-.04Zm.69.3-.18-.17h0l.18.17-.18-.17Zm2.49-.09a.347.347,0,0,0,.13.06h0s.04-.02.09-.15A.22.22,0,0,1,31.19,25.44Zm6.64-.92a1.33,1.33,0,0,0-.3.8A1.6,1.6,0,0,0,37.83,24.52Zm2.91.75v.04l.17-.03h-.17ZM24.9,24.29a4.057,4.057,0,0,0-1.23.2l-.53.17c-.33.1-.66.21-.98.32-.21.07-.41.13-.59.18a6.209,6.209,0,0,0,.81-.24c.21-.08.43-.15.64-.21.16-.05.31-.1.47-.15a3.83,3.83,0,0,1,2.12-.17,3.726,3.726,0,0,0,1.56,0l.19-.04.02.05.13-.09c.13-.04.27-.08.4-.13a6.091,6.091,0,0,1,2.48-.41l.22.02h0l-.13-.02a1.761,1.761,0,0,0-.33-.03,6.586,6.586,0,0,0-.82.06,9.514,9.514,0,0,0-1.61.41c-.08.03-.16.05-.24.08l-.15.04h0l-.09.03h0l-.22.04a3.929,3.929,0,0,1-1.41-.01,3.709,3.709,0,0,0-.74-.07Zm.96-1.93-.28.02a26.238,26.238,0,0,0-6.75,1.43,13.887,13.887,0,0,0-2.17.97q.195-.1.36-.18l.17-.09a16.721,16.721,0,0,1,3.01-1.14,31.288,31.288,0,0,1,5.67-1.02Zm15.9,2.28h.18c.42,0,.81.01,1.19.04-.37-.03-.75-.05-1.13-.05h-.23ZM31.09,24a2.2,2.2,0,0,0-.04.36h0a.676.676,0,0,0,.07.26,1.347,1.347,0,0,0,.02-.35,1.261,1.261,0,0,0-.05-.28Zm6.16.23.09.05-.06.2c.04-.06.08-.12.12-.19l-.15-.06Zm.86-.64.13.3a1.887,1.887,0,0,1,.09.34v-.18a.892.892,0,0,0-.03-.28.516.516,0,0,0-.08-.22.244.244,0,0,0-.1.04Zm-6.53.33h.22a6.188,6.188,0,0,0,1.44-.15l-.42.06a6.364,6.364,0,0,1-1.19.08h-.06Zm3.23-.35a4.751,4.751,0,0,1,1.59.28,2.771,2.771,0,0,0-.87-.26,5.879,5.879,0,0,0-.73-.02Zm-7.82-.13v.02c.03.09.07.17.1.26a.292.292,0,0,0-.02-.09l-.03-.13a.45.45,0,0,0-.02-.08h-.04Zm3.91-.08.14.05.16-.12a.556.556,0,0,1-.04-.08c-.04-.07-.07-.09-.07-.1a.3.3,0,0,0-.07.08c-.04.06-.08.12-.11.17Zm.05-1.29h-.29c-.76.01-1.52.05-2.28.1l.51-.03c.67-.04,1.36-.06,2.06-.08Zm2.33,13.02h-.16a56.492,56.492,0,0,1-10.42-.82,40.969,40.969,0,0,1-6.17-1.71l-.12-.04-.03-.12c-.14-.49-.26-.99-.36-1.48l-.09-.44.43.16a42.318,42.318,0,0,0,12.23,2.48,59.764,59.764,0,0,0,10.15-.18,40.041,40.041,0,0,0,6.68-1.43c.53-.15,1.01-.3,1.49-.48l1.95-.75-.13.48c-.14.51-.29,1.03-.46,1.53l-.04.11-.1.04c-.13.06-.26.11-.4.17-.62.24-1.22.47-1.85.65-.91.26-1.73.48-2.5.67a39.029,39.029,0,0,1-5.07.93,44.306,44.306,0,0,1-5.02.26ZM16.82,32.13a39.478,39.478,0,0,0,5.97,1.65,55.371,55.371,0,0,0,10.33.81,46,46,0,0,0,5.12-.26,37.536,37.536,0,0,0,5.01-.92c.76-.19,1.58-.41,2.48-.67.61-.18,1.2-.4,1.81-.64.09-.04.19-.07.28-.11.1-.31.19-.61.28-.92l-1.03.4c-.5.19-1.01.34-1.53.5a41.015,41.015,0,0,1-6.77,1.44,59.705,59.705,0,0,1-10.24.19,43.186,43.186,0,0,1-11.95-2.35c.07.3.14.59.22.89Z" fill="#231f20"/>
    </g>
  </g>
</svg>
