<svg id="AMERICAN_EXPRESS" data-name="AMERICAN EXPRESS" xmlns="http://www.w3.org/2000/svg" width="89.289" height="61.577" viewBox="0 0 89.289 61.577">
  <path id="Trazado_4477" data-name="Trazado 4477" d="M89.289,135.75a5.278,5.278,0,0,1-5.278,5.278H5.278A5.278,5.278,0,0,1,0,135.75V84.729a5.278,5.278,0,0,1,5.278-5.278H84.011a5.278,5.278,0,0,1,5.278,5.278V135.75Z" transform="translate(0 -79.451)" fill="#306fc5"/>
  <path id="Trazado_4478" data-name="Trazado 4478" d="M3.752,135.75V84.729a5.278,5.278,0,0,1,5.278-5.278H5.278A5.278,5.278,0,0,0,0,84.729V135.75a5.278,5.278,0,0,0,5.278,5.278H9.031A5.279,5.279,0,0,1,3.752,135.75Z" transform="translate(0 -79.451)" fill="#202121" opacity="0.15"/>
  <g id="Grupo_2131" data-name="Grupo 2131" transform="translate(6.409 18.093)">
    <path id="Trazado_4479" data-name="Trazado 4479" d="M74.59,204.673h2.668l-1.334-3.4Z" transform="translate(-67.991 -198.125)" fill="#fff"/>
    <path id="Trazado_4480" data-name="Trazado 4480" d="M155.946,286.107v1.577h4.487v1.7h-4.487V291.2h4.972l2.3-2.547-2.183-2.547Z" transform="translate(-135.159 -268.16)" fill="#fff"/>
    <path id="Trazado_4481" data-name="Trazado 4481" d="M350.008,201.278l-1.455,3.4h2.789Z" transform="translate(-294.177 -198.125)" fill="#fff"/>
    <path id="Trazado_4482" data-name="Trazado 4482" d="M215.421,288.153v-6.912l-3.153,3.4Z" transform="translate(-181.659 -264.143)" fill="#fff"/>
    <path id="Trazado_4483" data-name="Trazado 4483" d="M246.048,287.2a1.224,1.224,0,0,0-1.335-1.092h-2.546v2.183h2.668C245.562,288.29,246.048,287.926,246.048,287.2Z" transform="translate(-206.344 -268.161)" fill="#fff"/>
    <path id="Trazado_4484" data-name="Trazado 4484" d="M297.016,288.624a.945.945,0,0,0,.364-.849.675.675,0,0,0-.364-.849,2.358,2.358,0,0,0-.969-.121h-2.426v1.94h2.426A2.359,2.359,0,0,0,297.016,288.624Z" transform="translate(-248.824 -268.737)" fill="#fff"/>
    <path id="Trazado_4485" data-name="Trazado 4485" d="M102.4,183.2v1.455l-.727-1.455h-5.7v1.455l-.728-1.455H87.487a7.382,7.382,0,0,0-3.4.728V183.2H78.635v.728a3.5,3.5,0,0,0-2.3-.728H56.808l-1.334,3.032L54.14,183.2H47.955v1.455l-.606-1.455H42.014l-2.426,5.7L36.8,195.081l-.051.122h6.313l.044-.122.728-1.819h1.576l.728,1.94h7.033v-1.455l.607,1.455h3.516l.606-1.455V195.2H74.754V192.05H75c.242,0,.242,0,.242.364v2.668H83.97v-.728a7.254,7.254,0,0,0,3.274.728h3.638l.728-1.94h1.7l.728,1.94h7.033v-1.819l1.092,1.819h5.7V183.2H102.4ZM61.294,193.384h-1.94v-6.67l-.121.278v0l-2.821,6.395H54.624l-2.91-6.67v6.67H47.592l-.849-1.819H42.62l-.849,1.819H39.639l3.587-8.489h3.031l3.4,8.124V184.9h3.213l.057.122h0l1.53,3.33,1.1,2.495.039-.126,2.425-5.82h3.275v8.488Zm8.367-6.67H64.932v1.576H69.54v1.7H64.932v1.7h4.729v1.818H62.871V184.9h6.791v1.819Zm8.649,3.127.011.007a1.388,1.388,0,0,1,.119.144,2.332,2.332,0,0,1,.43,1.421l0,.034c0,.007,0,.012,0,.019s0,.007,0,.01c0,.067,0,.135,0,.209v1.7H77.058v-.97a2.885,2.885,0,0,0-.364-1.7,1.1,1.1,0,0,0-.357-.244,2.421,2.421,0,0,0-1.1-.12H73.056v3.032H71V184.9H75.6a4.65,4.65,0,0,1,2.425.364A2.049,2.049,0,0,1,79,187.145a2.409,2.409,0,0,1-1.452,2.237A1.624,1.624,0,0,1,78.31,189.842Zm4.083,3.543H80.332V184.9h2.062Zm23.646,0h-2.668l-3.88-6.427v5.336l-.013-.013v1.109H97.43v-.005H95.369l-.728-1.819H90.4l-.728,1.94h-2.3a3.645,3.645,0,0,1-4-4.244,4.971,4.971,0,0,1,1.091-3.4,3.819,3.819,0,0,1,3.031-.97h1.941v1.819H87.486a2.235,2.235,0,0,0-1.577.485,2.85,2.85,0,0,0-.606,1.94,2.64,2.64,0,0,0,.606,2.061,1.933,1.933,0,0,0,1.455.486h.849L91,185.018h3.032l3.4,8.124v-8.124h3.031l3.516,5.942v-5.942h2.062v8.367h0Z" transform="translate(-36.748 -183.198)" fill="#fff"/>
    <path id="Trazado_4486" data-name="Trazado 4486" d="M248.471,205.081a.651.651,0,0,0,.095-.13,1.31,1.31,0,0,0,.168-.915.681.681,0,0,0-.018-.111c0-.01,0-.018,0-.028h0a.68.68,0,0,0-.368-.413,2.375,2.375,0,0,0-.97-.121h-2.426v1.94h2.426a2.362,2.362,0,0,0,.97-.122.459.459,0,0,0,.1-.072v0Z" transform="translate(-208.637 -199.847)" fill="#fff"/>
    <path id="Trazado_4487" data-name="Trazado 4487" d="M193.234,272.677a4.646,4.646,0,0,0-.606-2.3v-5.457h-.006v-.364h-5.839a3.451,3.451,0,0,0-1.674.727v-.727h-5.578a3.852,3.852,0,0,0-2.426.727v-.727h-9.943v.727a4.691,4.691,0,0,0-2.668-.727h-6.548v.727a4.607,4.607,0,0,0-2.79-.727h-7.275l-1.7,1.819-1.576-1.819H133.7V276.8h10.671l1.753-1.754,1.52,1.754h6.791v-2.789h.607a7.367,7.367,0,0,0,2.789-.364v3.274h5.457v-3.153h.242c.364,0,.364,0,.364.364v2.789H180.38a4.753,4.753,0,0,0,2.789-.728v.728h5.215a5.446,5.446,0,0,0,2.91-.607,4.072,4.072,0,0,0,1.925-3.27c0-.042.011-.084.015-.126l-.007-.007C193.231,272.834,193.234,272.756,193.234,272.677Zm-38.2-.727h-2.426V275.1h-3.986l-2.32-2.668-.008.009-.113-.13-2.668,2.79h-7.761v-8.488h7.882l2.153,2.359.453.494.061-.064,2.547-2.789h6.427c1.247,0,2.644.308,3.173,1.577a3.429,3.429,0,0,1,.1.848C158.553,271.464,156.855,271.95,155.037,271.95Zm12.126-.122a2.752,2.752,0,0,1,.364,1.577v1.7h-2.061v-1.091a2.706,2.706,0,0,0-.364-1.7c-.242-.363-.728-.363-1.455-.363h-2.183V275.1H159.4v-8.61h4.608a4.892,4.892,0,0,1,2.426.363,2.146,2.146,0,0,1,1.091,1.941,2.415,2.415,0,0,1-1.455,2.3A2.067,2.067,0,0,1,167.163,271.828Zm8.367-3.517H170.8v1.576h4.608v1.7H170.8v1.7h4.73V275.1H168.74v-8.61h6.791Zm5.093,6.791h-3.881v-1.819h3.881a1.025,1.025,0,0,0,.849-.243.881.881,0,0,0,0-1.212,1.028,1.028,0,0,0-.728-.243c-1.94-.121-4.244,0-4.244-2.668,0-1.213.728-2.547,2.91-2.547h4v2.061h-3.759a1.8,1.8,0,0,0-.849.121c-.242.122-.242.364-.242.607,0,.364.242.485.484.606a1.536,1.536,0,0,0,.728.122h1.092a3.086,3.086,0,0,1,2.3.728,2.51,2.51,0,0,1,.607,1.819C183.776,274.253,182.684,275.1,180.623,275.1Zm10.428-.849a3.533,3.533,0,0,1-2.547.849h-3.88v-1.819H188.5a1.023,1.023,0,0,0,.849-.243.879.879,0,0,0,0-1.212,1.025,1.025,0,0,0-.728-.243c-1.94-.121-4.244,0-4.244-2.667a2.478,2.478,0,0,1,2.286-2.5,4.525,4.525,0,0,1,.625-.044h4v2.061h-3.759a1.794,1.794,0,0,0-.848.121.925.925,0,0,0-.243.607c0,.364.121.485.486.606a1.534,1.534,0,0,0,.728.122h1.091a3.788,3.788,0,0,1,1.3.194,2.611,2.611,0,0,1,1.7,1.917,2.722,2.722,0,0,1,.038.435A2.466,2.466,0,0,1,191.052,274.253Z" transform="translate(-116.788 -250.365)" fill="#fff"/>
  </g>
</svg>
