<svg xmlns="http://www.w3.org/2000/svg" width="29.252" height="17.551" viewBox="0 0 29.252 17.551">
  <path id="delivery-svgrepo-com" d="M15.094,11.85a.5.5,0,0,0-.338.148l-2.572,2.564L10.6,12.984c-.444-.462-1.16.252-.7.694l1.934,1.929a.494.494,0,0,0,.7,0l2.92-2.913a.494.494,0,0,0-.358-.843ZM.488,15.751H3.413a.488.488,0,0,1,0,.975H.488a.488.488,0,0,1,0-.975Zm0-3.9H3.413a.488.488,0,1,1,0,.975H.488a.488.488,0,1,1,0-.975Zm0-3.9H3.413a.488.488,0,1,1,0,.975H.488a.488.488,0,1,1,0-.975Zm23.4,10.726a2.438,2.438,0,1,0,2.438,2.438A2.445,2.445,0,0,0,23.889,18.676Zm0,.975a1.463,1.463,0,1,1-1.463,1.463A1.456,1.456,0,0,1,23.889,19.651Zm-12.676-.975a2.438,2.438,0,1,0,2.438,2.438A2.445,2.445,0,0,0,11.213,18.676Zm0,.975a1.463,1.463,0,1,1-1.463,1.463A1.456,1.456,0,0,1,11.213,19.651ZM6.338,6A1.471,1.471,0,0,0,4.875,7.463V18.189a1.471,1.471,0,0,0,1.463,1.463h1.95a.488.488,0,1,0,0-.975H6.338a.476.476,0,0,1-.488-.488V7.463a.476.476,0,0,1,.488-.488H19.014a.476.476,0,0,1,.488.488V18.676H14.139a.488.488,0,0,0,0,.975h6.826a.488.488,0,0,0,0-.975h-.488V9.9H24.6l3.679,5.749v2.539a.476.476,0,0,1-.488.488h-.975a.488.488,0,0,0,0,.975h.975a1.471,1.471,0,0,0,1.463-1.463V15.507a.493.493,0,0,0-.076-.263l-3.9-6.094a.488.488,0,0,0-.411-.224H20.477V7.463A1.471,1.471,0,0,0,19.014,6Z" transform="translate(0 -6)" fill="#fff"/>
</svg>
