<svg xmlns="http://www.w3.org/2000/svg" width="52.489" height="66.055" viewBox="0 0 52.489 66.055">
  <path id="LOCATION_ICON" data-name="LOCATION ICON" d="M204.317-827.457a6.033,6.033,0,0,0,4.434-1.847,6.07,6.07,0,0,0,1.84-4.44,6.034,6.034,0,0,0-1.848-4.434,6.069,6.069,0,0,0-4.44-1.84,6.034,6.034,0,0,0-4.434,1.846,6.07,6.07,0,0,0-1.84,4.44,6.036,6.036,0,0,0,1.848,4.434A6.068,6.068,0,0,0,204.317-827.457Zm0,33.51A111.252,111.252,0,0,1,184.645-815.1q-6.555-9.789-6.555-17.974a25.731,25.731,0,0,1,7.781-19.474A25.775,25.775,0,0,1,204.311-860a25.776,25.776,0,0,1,18.446,7.447,25.731,25.731,0,0,1,7.781,19.474q0,8.185-6.555,17.974a111.238,111.238,0,0,1-19.672,21.153Z" transform="translate(-178.07 860.001)" fill="#fff"/>
</svg>
