<svg id="MASTERCARD" xmlns="http://www.w3.org/2000/svg" width="79.48" height="61.577" viewBox="0 0 79.48 61.577">
  <path id="Trazado_4488" data-name="Trazado 4488" d="M167.9,375.308v-4.091a2.382,2.382,0,0,0-2.522-2.591,2.7,2.7,0,0,0-2.318,1.152,2.371,2.371,0,0,0-2.181-1.152,2.316,2.316,0,0,0-1.976.955v-.823h-1.3V375.3h1.3v-3.746a1.528,1.528,0,0,1,1.637-1.7c.955,0,1.5.614,1.5,1.7v3.751h1.3v-3.751a1.528,1.528,0,0,1,1.637-1.7c.955,0,1.5.614,1.5,1.7v3.751Zm21.275-6.479h-2.387v-1.976H185.5v1.976h-1.363v1.152H185.5v3.075c0,1.5.545,2.387,2.181,2.387a3.814,3.814,0,0,0,1.77-.477l-.41-1.152a2.244,2.244,0,0,1-1.228.341.954.954,0,0,1-1.022-1.092v-3.135h2.387v-1.092Zm12.137-.2a2.04,2.04,0,0,0-1.773.955v-.823h-1.3V375.3h1.3v-3.676c0-1.092.545-1.773,1.432-1.773a3.992,3.992,0,0,1,.886.137l.41-1.228a4.609,4.609,0,0,0-.955-.137Zm-18.343.682a4.678,4.678,0,0,0-2.659-.682c-1.637,0-2.659.751-2.659,2.046,0,1.092.751,1.7,2.181,1.91l.682.067c.751.137,1.228.41,1.228.751,0,.477-.545.823-1.569.823a3.6,3.6,0,0,1-2.181-.682l-.682,1.022a4.956,4.956,0,0,0,2.8.823c1.91,0,2.932-.886,2.932-2.114,0-1.152-.823-1.7-2.251-1.91l-.682-.068c-.614-.068-1.152-.273-1.152-.682,0-.477.545-.823,1.3-.823a4.908,4.908,0,0,1,2.046.545Zm19.775,2.728a3.222,3.222,0,0,0,3.41,3.41,3.386,3.386,0,0,0,2.318-.751l-.682-1.022a2.756,2.756,0,0,1-1.7.614,2.182,2.182,0,0,1,0-4.356,2.756,2.756,0,0,1,1.7.614l.682-1.022a3.394,3.394,0,0,0-2.318-.751,3.083,3.083,0,0,0-3.41,3.273h0Zm-9.138-3.41a3.136,3.136,0,0,0-3.206,3.41,3.2,3.2,0,0,0,3.341,3.41,4.17,4.17,0,0,0,2.659-.886l-.682-.955a3.258,3.258,0,0,1-1.91.682,1.912,1.912,0,0,1-1.976-1.7h4.842v-.545c0-2.046-1.228-3.41-3.069-3.41h0Zm-.068,1.228a1.629,1.629,0,0,1,1.7,1.637H191.7A1.847,1.847,0,0,1,193.543,369.853Zm-17.661,2.181v-3.273h-1.3v.823a2.5,2.5,0,0,0-2.114-.955,3.416,3.416,0,0,0,0,6.819,2.506,2.506,0,0,0,2.114-.955v.823h1.3Zm-5.25,0a2.018,2.018,0,1,1,2.046,2.181A1.972,1.972,0,0,1,170.631,372.034Zm50.393-3.41a2.04,2.04,0,0,0-1.773.955v-.823h-1.3V375.3h1.294v-3.676c0-1.092.545-1.773,1.432-1.773a3.992,3.992,0,0,1,.886.137l.41-1.228a4.61,4.61,0,0,0-.955-.137Zm-5.046,3.41v-3.273h-1.3v.823a2.5,2.5,0,0,0-2.114-.955,3.416,3.416,0,0,0,0,6.819,2.506,2.506,0,0,0,2.114-.955v.823h1.3Zm-5.25,0a2.018,2.018,0,1,1,2.046,2.181A1.972,1.972,0,0,1,210.728,372.034Zm18.412,0V366.17h-1.3v3.41a2.5,2.5,0,0,0-2.114-.955,3.416,3.416,0,0,0,0,6.819,2.506,2.506,0,0,0,2.114-.955v.823h1.3Zm-5.25,0a2.018,2.018,0,1,1,2.046,2.181,1.971,1.971,0,0,1-2.048-2.181Z" transform="translate(-153.477 -313.872)"/>
  <g id="Grupo_2132" data-name="Grupo 2132" transform="translate(0 0)">
    <rect id="Rectángulo_738" data-name="Rectángulo 738" width="23.662" height="38.595" transform="translate(27.996 5.247)" fill="#ff5f00"/>
    <path id="Trazado_4489" data-name="Trazado 4489" d="M162.892,73.063a24.611,24.611,0,0,1,9.337-19.294,24.548,24.548,0,1,0,0,38.592A24.614,24.614,0,0,1,162.892,73.063Z" transform="translate(-132.509 -48.518)" fill="#eb001b"/>
    <path id="Trazado_4490" data-name="Trazado 4490" d="M413.938,73.082a24.523,24.523,0,0,1-39.678,19.3,24.6,24.6,0,0,0,0-38.595,24.523,24.523,0,0,1,39.678,19.3Z" transform="translate(-334.458 -48.537)" fill="#f79e1b"/>
  </g>
</svg>
