<svg xmlns="http://www.w3.org/2000/svg" width="48.425" height="65.2" viewBox="0 0 48.425 65.2">
  <g id="restaurant-menu-card" transform="translate(-131.728 1)">
    <path id="Trazado_4542" data-name="Trazado 4542" d="M155.941,65.083l.425.117v-.234L180.153,58.4V0L155.941,6.679,131.728,0V58.4l23.788,6.562V65.2l.425-.117ZM134.56,6.438l12.739,3.4V22.575l-12.739-3.4ZM154.1,45.231l-12.739-3.4V29.093l12.739,3.4Zm4.819-35.847,17.841-4.922V55.815l-17.841,4.921Z" transform="translate(0 -1)" fill="#fff"/>
    <path id="Trazado_4543" data-name="Trazado 4543" d="M580.973,126.691l15-4V107.605l-15,4Zm2.266-13.343,10.474-2.795v10.394l-10.474,2.794Z" transform="translate(-420.641 -100.972)" fill="#fff"/>
  </g>
</svg>
