<svg id="Phone_icon" data-name="Phone icon" xmlns="http://www.w3.org/2000/svg" width="84.618" height="82.886" viewBox="0 0 84.618 82.886">
  <path id="Trazado_1" data-name="Trazado 1" d="M446.041,321.163a1.4,1.4,0,0,1-1.283-.859,29.585,29.585,0,0,0-23.509-17.051,1.454,1.454,0,0,1-1.283-1.656,1.418,1.418,0,0,1,1.575-1.349,32.561,32.561,0,0,1,25.843,18.769,1.56,1.56,0,0,1-.642,2.024A4.119,4.119,0,0,1,446.041,321.163Z" transform="translate(-387.824 -275.959)" fill="#f3a42c"/>
  <path id="Trazado_2" data-name="Trazado 2" d="M392.839,190.809a1.579,1.579,0,0,1-1.4-1.043c-5.542-17.113-20.884-28.644-38.093-28.644-.817,0-1.692,0-2.508.061a1.429,1.429,0,0,1-1.517-1.411,1.448,1.448,0,0,1,1.342-1.595c.875-.061,1.808-.061,2.683-.061,18.493,0,34.885,12.329,40.894,30.729a1.631,1.631,0,0,1-.934,1.963Z" transform="translate(-322.664 -145.42)" fill="#f3a42c"/>
  <path id="Trazado_3" data-name="Trazado 3" d="M338.317,49.672a1.451,1.451,0,0,1-1.4-1.227C331.667,23.481,310.2,5.326,285.874,5.326a50.355,50.355,0,0,0-8.05.675,1.507,1.507,0,0,1-1.692-1.288,1.566,1.566,0,0,1,1.225-1.779,56.176,56.176,0,0,1,8.459-.675,53.584,53.584,0,0,1,34.827,13A58.458,58.458,0,0,1,339.718,47.77a1.587,1.587,0,0,1-1.108,1.84.607.607,0,0,1-.292.061Z" transform="translate(-255.134 -2.259)" fill="#f3a42c"/>
  <path id="Trazado_4" data-name="Trazado 4" d="M71.868,317.78a6.3,6.3,0,0,1-.7,1.411c-.117.184-.175.307-.292.491a19.049,19.049,0,0,1-9.684,8.587c-4.492,1.595-9.684.613-14.117-.552a56.781,56.781,0,0,1-33.368-23.431A56.731,56.731,0,0,1,9.682,297.6a39.825,39.825,0,0,1-3.442-8.526c-.175-.552-.292-1.1-.467-1.656a15.484,15.484,0,0,1,2.217-12.39,44.624,44.624,0,0,1,2.8-3.8,6.262,6.262,0,0,1,1.225-1.288c.058-.061.117-.061.117-.123a7.5,7.5,0,0,1,9.217-.491,81.189,81.189,0,0,1,7.992,6.44,8.4,8.4,0,0,1,1.867,9.507c-.058.123-.058.245-.117.307a9.36,9.36,0,0,1-.583,1.043c-.7,1.043-1.458,2.024-2.217,3.067-1.633,2.208-1.517,4.171.233,6.256a55.49,55.49,0,0,0,15.109,12.145c2.1,1.165,3.967.736,5.484-1.227.758-.981,1.517-2.024,2.275-3.005a7.162,7.162,0,0,1,1.342-1.349,7.655,7.655,0,0,1,9.45-.307c2.508,1.84,4.959,3.864,7.35,5.888a8.442,8.442,0,0,1,2.333,9.691Z" transform="translate(-5.309 -246.323)" fill="#f3a42c"/>
  <path id="Trazado_5" data-name="Trazado 5" d="M113.193,285.333c-.058.123-.058.245-.117.307L94.118,269.815a7.5,7.5,0,0,1,9.217-.491,81.193,81.193,0,0,1,7.992,6.44,8.568,8.568,0,0,1,1.867,9.569Z" transform="translate(-87.237 -246.323)" fill="#f3a42c"/>
  <path id="Trazado_6" data-name="Trazado 6" d="M82.648,558.357c-.292.061-.933,1.411-1.108,1.718-.467.675-.933,1.349-1.458,2.024a17.873,17.873,0,0,1-3.267,3.128c-7.409,5.152-18.318,1.779-25.9-1.411a58.511,58.511,0,0,1-25.376-20.793,56.729,56.729,0,0,1-4.025-6.686,39.824,39.824,0,0,1-3.442-8.526c23.568,33.858,46.844,35.268,64.578,30.546Z" transform="translate(-17.082 -484.999)" fill="#f3a42c"/>
  <path id="Trazado_7" data-name="Trazado 7" d="M636.546,687.009l-19.134-15.273a7.655,7.655,0,0,1,9.45-.307q3.763,2.76,7.35,5.888A8.464,8.464,0,0,1,636.546,687.009Z" transform="translate(-569.988 -615.552)" fill="#f3a42c"/>
</svg>
