<svg xmlns="http://www.w3.org/2000/svg" width="101" height="63" viewBox="0 0 101 63">
  <g id="VISA" transform="translate(-0.001)">
    <g id="visa-2" data-name="visa" transform="translate(0)">
      <rect id="Rectangle-1" width="101" height="63" rx="7" transform="translate(0.001)" fill="#0e4595"/>
      <path id="Shape" d="M278.2,164.855l4.5-26.39h7.193l-4.5,26.39Z" transform="translate(-240.652 -119.799)" fill="#fff"/>
      <path id="path13" d="M385.782,135.574a18.573,18.573,0,0,0-6.447-1.109c-7.107,0-12.114,3.579-12.157,8.709-.04,3.792,3.574,5.907,6.3,7.17,2.8,1.293,3.741,2.118,3.728,3.273-.018,1.769-2.236,2.577-4.3,2.577a15.078,15.078,0,0,1-6.771-1.385l-.927-.42L364.2,160.3a22.774,22.774,0,0,0,8.012,1.408c7.561,0,12.47-3.538,12.526-9.016.027-3-1.889-5.287-6.039-7.17-2.514-1.221-4.054-2.035-4.038-3.272,0-1.1,1.3-2.27,4.119-2.27a13.271,13.271,0,0,1,5.383,1.011l.645.3.975-5.72" transform="translate(-315.059 -116.338)" fill="#fff"/>
      <path id="Path" d="M533.206,138.465h-5.558c-1.722,0-3.01.47-3.766,2.188L513.2,164.838h7.553s1.235-3.252,1.514-3.966c.825,0,8.163.011,9.212.011.215.924.875,3.955.875,3.955h6.674Zm-8.819,17.04c.595-1.52,2.866-7.377,2.866-7.377-.042.07.59-1.528.954-2.519l.486,2.275s1.377,6.3,1.665,7.62h-5.971Z" transform="translate(-443.973 -119.799)" fill="#fff"/>
      <path id="path16" d="M45.289,138.465l-.092.549a30.151,30.151,0,0,1,7.606,2.923l6.383,22.875,7.61-.009,11.324-26.339H70.5l-7.042,18-.75-3.657c-.035-.112-.072-.224-.111-.336l-2.449-11.775c-.435-1.671-1.7-2.17-3.261-2.228Z" transform="translate(-39.061 -119.799)" fill="#fff"/>
    </g>
  </g>
</svg>
